<svg width="167" height="212" viewBox="0 0 167 212" fill="none" xmlns="http://www.w3.org/2000/svg">
<path d="M82 160C126.183 160 162 124.183 162 80C162 35.8172 126.183 0 82 0C37.8172 0 2 35.8172 2 80C2 124.183 37.8172 160 82 160Z" fill="#3B4EFF"/>
<path d="M131.806 76.1615C134.808 73.4945 134.547 68.9812 132.994 65.2064C131.441 61.418 127.369 58.9562 123.467 59.4212C126.599 57.1098 126.182 52.3914 124.407 48.8354C122.632 45.2795 118.182 43.4878 114.593 44.8692C117.934 42.0791 118.051 37.4564 115.872 33.5996C114.958 31.9857 113.549 30.7412 111.931 29.9616C111.017 26.2552 108.981 22.8497 106.019 20.5931C103.643 18.7741 100.772 17.7893 97.8491 17.5842C94.4429 15.1771 90.1101 13.7684 86.4821 15.6284C76.1852 11.7579 63.8133 14.9583 56.4398 23.4105C55.2 24.8328 54.0646 26.4604 53.7645 28.3477C53.4643 30.2488 54.2343 32.4371 55.9308 33.1893C51.3371 30.8506 47.2784 32.6833 43.7547 36.5538C40.2441 40.4379 39.4611 46.7429 41.9277 51.434C37.9864 51.5708 34.8151 56.426 33.8755 60.4469C32.9359 64.4679 34.8412 69.0086 38.2735 71.0327C33.4187 71.5524 31.6178 78.5549 33.0794 83.4375C34.0452 86.6378 37.0076 88.8261 40.1528 89.2774C37.4513 90.6724 35.0631 93.3668 33.9538 96.02C32.205 100.205 33.6145 105.58 37.1642 108.247C40.7009 110.914 46.0125 110.613 49.249 107.549C48.1397 110.764 50.4366 115.113 53.3338 116.658C56.231 118.217 59.7807 117.875 62.7954 116.562C65.797 115.249 68.368 113.075 70.8998 110.914C69.8557 111.57 71.4087 113.212 71.8786 114.388C72.3484 115.564 73.3533 116.412 74.4104 117.041C80.27 120.57 88.5962 118.491 92.3026 112.569C92.1068 116.795 95.2129 120.761 99.2585 120.884C103.304 121.007 107.063 117.205 107.102 112.979C109.699 117.082 114.475 118.135 118.182 115.113C121.888 112.09 122.423 105.648 119.265 102.01C122.684 105.211 128.661 107.153 131.48 103.364C134.299 99.5897 133.386 93.3804 129.601 90.6588C133.816 91.6025 138.71 89.8655 139.258 85.3932C139.806 80.9073 136.152 76.3666 131.846 76.1615H131.806Z" fill="#2E2E2E"/>
<path d="M98.1752 127.49C98.4623 136.544 91.6891 144.039 83.2454 144.039C74.8018 144.039 68.3157 136.845 68.3157 128.023C68.3157 127.846 68.3157 127.668 68.3157 127.49L69.9731 103.597L70.1819 100.52L71.2259 85.6667H95.2388L96.309 101.067L96.5439 104.431L98.1622 127.49H98.1752Z" fill="#F5F5FF" stroke="#2E2E2E" stroke-width="0.5" stroke-linecap="round" stroke-linejoin="round"/>
<path d="M97.471 115.619C89.9017 116.59 81.3667 112.774 75.5853 105.033C73.2362 101.901 71.6049 98.4543 70.6653 94.9668L71.3439 85.3247H95.3568L96.427 100.725L96.6749 104.089L97.471 115.619Z" fill="#2E2E2E"/>
<path d="M105.47 63.0863C102.456 68.1603 102.743 74.1781 106.123 76.5168C109.503 78.8555 114.684 76.6399 117.699 71.5658C120.713 66.4918 120.426 60.474 117.046 58.1353C113.666 55.7966 108.485 58.0122 105.47 63.0863Z" fill="#F5F5FF" stroke="#2E2E2E" stroke-width="0.5" stroke-linecap="round" stroke-linejoin="round"/>
<path d="M114.501 60.5696C115.963 61.1714 117.072 62.6211 117.307 64.2486C117.542 65.8761 116.902 67.6131 115.676 68.6388" stroke="#2E2E2E" stroke-width="0.5" stroke-linecap="round" stroke-linejoin="round"/>
<path d="M60.8247 63.0863C63.8394 68.1603 63.5523 74.1781 60.1722 76.5168C56.7921 78.8555 51.6111 76.6399 48.5964 71.5658C45.5818 66.4918 45.8689 60.474 49.2489 58.1353C52.629 55.7966 57.8101 58.0122 60.8247 63.0863Z" fill="#F5F5FF" stroke="#2E2E2E" stroke-width="0.5" stroke-linecap="round" stroke-linejoin="round"/>
<path d="M51.7934 60.5696C50.3317 61.1714 49.2224 62.6211 48.9875 64.2486C48.7526 65.8761 49.3921 67.6131 50.6188 68.6388" stroke="#2E2E2E" stroke-width="0.5" stroke-linecap="round" stroke-linejoin="round"/>
<path d="M113.275 53.5813C113.275 54.0463 113.275 54.4977 113.235 54.9216C113.183 56.2483 113.066 57.5749 112.896 58.8742L112.7 60.7342L112.609 61.7463L112.465 63.2097C112.387 64.0987 112.322 64.9604 112.27 65.8357C112.231 66.3964 112.204 66.9435 112.165 67.4905C112.035 69.6925 111.904 71.8808 111.591 74.0554C111.591 74.0827 111.578 74.1237 111.578 74.1648C111.513 74.5751 111.448 74.999 111.369 75.4093C111.291 75.8607 111.2 76.2983 111.082 76.736C110.939 77.3925 110.756 78.049 110.534 78.7191C110.469 78.9653 110.39 79.1841 110.299 79.4303C110.129 79.909 109.934 80.4013 109.738 80.8937C109.19 82.1656 108.537 83.4102 107.78 84.6548C104.661 89.8246 99.8848 94.5567 95.0952 97.7024C95.0822 97.7297 95.0431 97.7571 95.03 97.7571C94.4427 98.1537 93.8554 98.5093 93.2812 98.8512C87.4477 102.229 80.5309 102.421 74.4755 99.5077C73.2226 98.9059 72.0089 98.2221 70.8474 97.4015C70.8344 97.4015 70.8083 97.4015 70.7952 97.3741C66.1623 94.2285 62.1819 89.6741 59.1803 84.6685C58.9715 84.3266 58.7627 83.971 58.5669 83.6154C58.4625 83.4239 58.3711 83.2324 58.2667 83.0546C58.0971 82.7401 57.9405 82.4118 57.7708 82.0836C57.288 81.2219 56.8703 80.3193 56.4919 79.444C56.3875 79.1978 56.2831 78.9653 56.1917 78.7054C54.7822 75.1905 54.2863 71.2516 53.947 67.3811C53.8948 66.7794 53.8426 66.1639 53.7904 65.5621C53.7382 64.892 53.673 64.2081 53.6208 63.538L53.4511 61.719C53.412 61.5138 53.3728 61.3223 53.3467 61.1309C53.2945 60.912 53.2684 60.6932 53.2423 60.4744C53.0987 59.6401 52.9813 58.8195 52.8899 57.9579C52.7464 56.5629 52.655 55.0994 52.655 53.6087C52.655 53.4856 52.655 53.3488 52.6681 53.2257C52.6681 52.2957 52.7072 51.3657 52.7855 50.463C52.8508 49.6835 52.9552 48.9176 53.0726 48.179C53.7643 43.5837 55.3173 39.3165 57.549 35.5691C58.1101 34.6254 58.7104 33.7228 59.3499 32.8475C65.7447 24.1764 76.681 19.1297 87.8653 21.0171C96.8049 22.5216 104.074 28.3068 108.433 35.7332C108.563 35.9247 108.668 36.1299 108.798 36.3487C110.756 39.891 112.152 43.8572 112.805 48.097C112.805 48.1243 112.818 48.1517 112.818 48.179C112.935 48.9313 113.027 49.6972 113.092 50.463C113.17 51.3794 113.209 52.2957 113.209 53.2257C113.222 53.3488 113.222 53.4856 113.222 53.6087L113.275 53.5813Z" fill="#F5F5FF" stroke="#2E2E2E" stroke-width="0.51" stroke-linecap="round" stroke-linejoin="round"/>
<path d="M86.743 16.4626C89.9534 19.5398 90.7364 24.8464 88.557 28.7306C86.3775 32.6147 81.4445 34.7073 77.1378 33.5858C78.4689 35.6783 77.4249 38.8924 75.9893 40.9302C74.5538 42.9543 71.8393 43.9938 69.4119 43.433C71.4608 50.1346 67.2847 57.985 61.2031 61.4726C62.8475 64.796 61.9731 70.0889 60.2374 73.3576C58.5017 76.6264 55.1346 78.9924 51.4675 79.5121C53.8948 82.3706 54.7562 86.9523 53.4772 90.4672C52.1983 93.9958 48.9357 96.7174 45.2293 97.3602C42.2147 97.8799 37.5948 97.073 36.2897 94.3103C34.9847 91.5476 35.8199 87.9233 38.2212 86.0222C36.8379 83.0544 35.9765 80.278 35.7938 77.0093C35.572 72.9473 36.3811 68.7623 38.5997 65.3568C40.8182 61.9513 44.5768 59.4484 48.6355 59.2296C45.1249 54.0188 44.2636 47.8232 46.8215 42.079C49.3794 36.3348 55.0172 32.0814 61.2423 31.1924C61.177 27.5954 62.5082 24.1352 65.2879 21.8649C68.0677 19.5945 71.9176 18.6645 75.4282 19.4441C76.3287 17.2968 79.5652 16.0249 81.8621 15.642C84.172 15.2727 86.6386 16.148 88.1785 17.9123" fill="#2E2E2E"/>
<path d="M89.4313 18.0627C87.0822 22.3845 87.2127 28.0603 89.7706 32.2454C92.3285 36.4305 97.1833 38.947 101.908 38.523C99.702 41.0942 100.094 45.334 102.129 48.042C104.178 50.75 108.159 51.5842 111.043 49.9157C109.568 51.215 108.067 53.1707 107.924 55.1812C107.78 57.1917 108.89 59.3526 110.717 59.9681C112.557 60.5835 114.854 59.1338 114.88 57.1096C114.919 51.4338 118.247 46.0862 116.42 40.7386C114.593 35.391 110.495 30.9461 105.444 28.8673C103.643 21.5502 96.6351 17.9669 89.4313 18.0627Z" fill="#2E2E2E"/>
<path d="M68.7983 77.2007C74.6724 77.2007 79.4344 72.2103 79.4344 66.0542C79.4344 59.8982 74.6724 54.9077 68.7983 54.9077C62.9241 54.9077 58.1621 59.8982 58.1621 66.0542C58.1621 72.2103 62.9241 77.2007 68.7983 77.2007Z" stroke="#2E2E2E" stroke-width="0.5" stroke-linecap="round" stroke-linejoin="round"/>
<path d="M98.0971 77.2007C103.971 77.2007 108.733 72.2103 108.733 66.0542C108.733 59.8982 103.971 54.9077 98.0971 54.9077C92.2229 54.9077 87.4609 59.8982 87.4609 66.0542C87.4609 72.2103 92.2229 77.2007 98.0971 77.2007Z" stroke="#2E2E2E" stroke-width="0.5" stroke-linecap="round" stroke-linejoin="round"/>
<path d="M79.4473 64.7414C80.6218 64.0302 81.9921 63.6199 83.4538 63.6199C84.9154 63.6199 86.3118 64.0438 87.4994 64.7824" stroke="#2E2E2E" stroke-width="0.5" stroke-linecap="round" stroke-linejoin="round"/>
<path d="M58.1618 66.0542L52.1455 57.6567" stroke="#2E2E2E" stroke-width="0.5" stroke-linecap="round" stroke-linejoin="round"/>
<path d="M108.537 66.0542L114.553 57.6567" stroke="#2E2E2E" stroke-width="0.5" stroke-linecap="round" stroke-linejoin="round"/>
<path d="M88.4651 54.7436C89.0785 53.1708 90.3052 52.022 91.6625 51.2151C93.0328 50.4218 94.5858 49.9978 96.1649 49.9431C97.744 49.8884 99.3101 50.2167 100.72 50.9005C102.116 51.598 103.408 52.6511 104.152 54.1692L99.9626 54.0461C98.6967 54.0188 97.483 54.0325 96.2954 54.0598C95.0947 54.1008 93.8941 54.1692 92.6412 54.2786C91.3623 54.3881 90.0703 54.5385 88.4781 54.73L88.4651 54.7436Z" fill="#2E2E2E"/>
<path d="M78.2335 54.7437C76.6413 54.5522 75.3493 54.4018 74.0703 54.2923C72.8044 54.1829 71.6038 54.1145 70.4162 54.0735C69.2156 54.0325 68.0149 54.0325 66.749 54.0598L62.5598 54.1829C63.2906 52.6648 64.5826 51.6117 65.9921 50.9142C67.4016 50.2304 68.9807 49.8884 70.5467 49.9568C72.1128 50.0115 73.6788 50.4355 75.0491 51.2288C76.4064 52.022 77.6331 53.1845 78.2465 54.7573L78.2335 54.7437Z" fill="#2E2E2E"/>
<path d="M89.1956 65.8218C89.4827 65.1653 89.7959 64.5225 90.0961 63.8797L90.1222 63.8387C90.8661 62.6625 91.8057 61.5273 93.0455 60.7888C94.2723 60.0229 95.747 59.6399 97.1695 59.7356C98.592 59.804 99.9884 60.2554 101.202 61.0213C101.802 61.4042 102.351 61.8555 102.859 62.3479C103.368 62.8266 103.825 63.4147 104.008 64.1395C104.047 64.331 103.956 64.5088 103.786 64.5498C103.721 64.5635 103.643 64.5498 103.577 64.5362C102.912 64.2216 102.468 63.825 101.985 63.4147C101.502 63.0181 100.993 62.6761 100.458 62.4026C99.4011 61.8282 98.2527 61.4863 97.0781 61.3905C95.9166 61.2948 94.7421 61.5136 93.685 62.047C92.6279 62.5941 91.6883 63.4284 90.8661 64.4268L90.8922 64.3857C90.4876 64.9601 90.0961 65.5619 89.6654 66.1227C89.5741 66.2594 89.3914 66.2731 89.2609 66.1774C89.1564 66.0953 89.1173 65.9449 89.1695 65.8218H89.1956Z" fill="#2E2E2E"/>
<path d="M94.0117 63.2916C94.103 61.9103 95.2515 60.8708 96.5826 60.9666C97.9007 61.0623 98.8926 62.2659 98.8012 63.6609C98.7099 65.0422 97.5614 66.0817 96.2303 65.9859C94.9122 65.8902 93.9203 64.6866 94.0117 63.2916Z" fill="#2E2E2E"/>
<path d="M101.241 65.5893C102.129 65.3841 102.964 64.9602 103.669 64.3721" stroke="#2E2E2E" stroke-width="0.5" stroke-linecap="round" stroke-linejoin="round"/>
<path d="M77.0198 66.1363C76.6022 65.5619 76.2107 64.9738 75.7931 64.3994L75.8192 64.4404C75.01 63.442 74.0574 62.6077 73.0003 62.0607C71.9432 61.5273 70.7817 61.3085 69.6071 61.4042C68.4326 61.4999 67.2711 61.8419 66.227 62.4163C65.692 62.7035 65.183 63.0454 64.7001 63.4283C64.2173 63.825 63.7736 64.2353 63.108 64.5498C62.9514 64.6182 62.7687 64.5498 62.6904 64.3857C62.6643 64.3173 62.6512 64.2353 62.6773 64.1669C62.86 63.442 63.3168 62.8539 63.8258 62.3752C64.3347 61.8829 64.8829 61.4316 65.4832 61.0486C66.6838 60.2827 68.0933 59.8314 69.5158 59.763C70.9513 59.6673 72.426 60.0502 73.6397 60.8161C74.8926 61.5546 75.8192 62.6898 76.563 63.866L76.5891 63.907C76.8893 64.5635 77.2025 65.1926 77.4896 65.8491C77.5549 65.9996 77.4896 66.1774 77.3461 66.2457C77.2286 66.3005 77.0851 66.2594 77.0068 66.15L77.0198 66.1363Z" fill="#2E2E2E"/>
<path d="M72.7006 63.2916C72.6093 61.9103 71.4608 60.8708 70.1297 60.9666C68.8116 61.0623 67.8198 62.2659 67.9111 63.6609C68.0025 65.0422 69.1509 66.0817 70.482 65.9859C71.8001 65.8902 72.792 64.6866 72.7006 63.2916Z" fill="#2E2E2E"/>
<path d="M65.4577 65.5893C64.5702 65.3841 63.735 64.9602 63.0303 64.3721" stroke="#2E2E2E" stroke-width="0.5" stroke-linecap="round" stroke-linejoin="round"/>
<path d="M79.1992 77.0776C80.1911 75.7373 81.7571 74.903 83.3493 74.8893C84.9284 74.8757 86.5075 75.6689 87.5124 76.9955" stroke="#2E2E2E" stroke-width="0.46" stroke-linecap="round" stroke-linejoin="round"/>
<path d="M83.61 86.5967C84.6801 86.5967 85.7502 86.5147 86.8073 86.3779C87.1336 86.3369 90.3049 85.8855 90.2918 85.6667C90.2918 85.6667 88.6605 84.3537 88.0863 83.8477L87.8383 83.6152C87.2249 83.0408 86.5985 82.4527 85.8155 82.1518C85.0455 81.8783 84.0015 82.0013 83.4012 82.7125C82.8269 81.9877 81.7959 81.8372 80.9999 82.0834C80.2038 82.3569 79.5643 82.9314 78.9379 83.4784L78.6769 83.7109C78.0896 84.2033 76.4191 85.4752 76.4191 85.4752C76.393 85.7488 79.1597 86.2548 79.4729 86.2958C80.6344 86.4736 81.809 86.5694 82.9835 86.5967C83.1923 86.5967 83.3881 86.5967 83.5969 86.5967H83.61Z" fill="#2E2E2E"/>
<path d="M79.512 88.7712C81.9263 90.262 85.0845 90.3167 87.538 88.8943L79.512 88.7712Z" fill="#F5F5FF"/>
<path d="M79.512 88.7712C81.9263 90.262 85.0845 90.3167 87.538 88.8943" stroke="#2E2E2E" stroke-width="0.51" stroke-linecap="round" stroke-linejoin="round"/>
<path d="M16.9229 203.19C27.5199 208.196 37.2033 209.742 38.5345 206.637C39.8657 203.532 32.3616 196.954 21.7646 191.934C11.1676 186.929 1.48412 185.383 0.152968 188.488C-1.17818 191.593 6.32586 198.171 16.9229 203.19Z" fill="#2E2E2E"/>
<path d="M31.1353 211L41.8889 184.207L43.6638 179.762L46.6001 172.445L48.5446 167.604L51.8464 159.343L54.6914 152.258C58.6327 142.425 54.8872 131.484 46.561 128.42C45.1124 127.887 43.6116 127.627 42.1369 127.627C40.8188 127.627 39.5137 127.832 38.2347 128.215C33.0798 129.733 28.486 134.233 26.3849 140.51L20.1729 159.11L17.0929 168.329L2.97229 210.603C2.93314 210.74 2.88095 210.863 2.8418 211" fill="#F5F5FF"/>
<path d="M31.1353 211L41.8889 184.207L43.6638 179.762L46.6001 172.445L48.5446 167.604L51.8464 159.343L54.6914 152.258C58.6327 142.425 54.8872 131.484 46.561 128.42C45.1124 127.887 43.6116 127.627 42.1369 127.627C40.8188 127.627 39.5137 127.832 38.2348 128.215C33.0798 129.733 28.486 134.233 26.3849 140.51L20.1729 159.11L17.0929 168.329L2.97229 210.603C2.93314 210.74 2.88095 210.863 2.8418 211" stroke="#2E2E2E" stroke-width="0.5" stroke-linecap="round" stroke-linejoin="round"/>
<path d="M0.283203 188.146C2.24078 185.548 11.5327 187.189 21.6599 191.962C32.2569 196.981 39.774 203.56 38.4298 206.678C38.4037 206.746 38.3646 206.801 38.3124 206.87L38.4298 206.924L61.3465 149.769C65.9403 138.472 60.9811 125.603 50.5407 121.773C48.57 121.048 46.5603 120.693 44.5505 120.693C37.3988 120.693 30.5473 125.138 27.0237 132.345L0.296246 188.16L0.283203 188.146Z" fill="#2E2E2E"/>
<path d="M18.0322 168.329C18.7602 168.329 19.3503 167.71 19.3503 166.947C19.3503 166.184 18.7602 165.566 18.0322 165.566C17.3043 165.566 16.7141 166.184 16.7141 166.947C16.7141 167.71 17.3043 168.329 18.0322 168.329Z" fill="#F5F5FF"/>
<path d="M20.512 183.264C20.512 184.344 21.3472 185.233 22.3912 185.233C23.4353 185.233 24.2705 184.358 24.2705 183.264C24.2705 182.17 23.4353 181.294 22.3912 181.294C21.3472 181.294 20.512 182.17 20.512 183.264Z" fill="#F5F5FF"/>
<path d="M28.0156 157.51C28.0156 158.427 27.2978 159.179 26.4235 159.179C25.5491 159.179 24.8313 158.427 24.8313 157.51C24.8313 156.594 25.5491 155.842 26.4235 155.842C27.2978 155.842 28.0156 156.594 28.0156 157.51Z" fill="#F5F5FF"/>
<path d="M150.077 203.19C139.48 208.196 129.796 209.742 128.465 206.637C127.134 203.532 134.638 196.954 145.235 191.934C155.832 186.929 165.516 185.383 166.847 188.488C168.178 191.593 160.674 198.171 150.077 203.19Z" fill="#2E2E2E"/>
<path d="M135.865 211L125.111 184.207L123.336 179.762L120.4 172.445L118.455 167.604L115.154 159.343L112.309 152.258C108.367 142.425 112.113 131.484 120.439 128.42C121.888 127.887 123.388 127.627 124.863 127.627C126.181 127.627 127.486 127.832 128.765 128.215C133.92 129.733 138.514 134.233 140.615 140.51L146.827 159.11L149.907 168.329L164.028 210.603C164.067 210.74 164.119 210.863 164.158 211" fill="#F5F5FF"/>
<path d="M135.865 211L125.111 184.207L123.336 179.762L120.4 172.445L118.455 167.604L115.154 159.343L112.309 152.258C108.367 142.425 112.113 131.484 120.439 128.42C121.888 127.887 123.388 127.627 124.863 127.627C126.181 127.627 127.486 127.832 128.765 128.215C133.92 129.733 138.514 134.233 140.615 140.51L146.827 159.11L149.907 168.329L164.028 210.603C164.067 210.74 164.119 210.863 164.158 211" stroke="#2E2E2E" stroke-width="0.5" stroke-linecap="round" stroke-linejoin="round"/>
<path d="M166.716 188.146C164.759 185.548 155.467 187.189 145.34 191.962C134.743 196.981 127.226 203.56 128.57 206.678C128.596 206.746 128.635 206.801 128.687 206.87L128.57 206.924L105.666 149.769C101.072 138.472 106.032 125.603 116.472 121.773C118.443 121.048 120.452 120.693 122.462 120.693C129.614 120.693 136.465 125.138 139.989 132.345L166.716 188.16V188.146Z" fill="#2E2E2E"/>
<path d="M134.938 135.737C134.938 136.489 134.351 137.105 133.633 137.105C132.915 137.105 132.328 136.489 132.328 135.737C132.328 134.985 132.915 134.369 133.633 134.369C134.351 134.369 134.938 134.985 134.938 135.737Z" fill="#F5F5FF"/>
<path d="M148.968 168.328C149.696 168.328 150.286 167.71 150.286 166.947C150.286 166.184 149.696 165.566 148.968 165.566C148.24 165.566 147.65 166.184 147.65 166.947C147.65 167.71 148.24 168.328 148.968 168.328Z" fill="#F5F5FF"/>
<path d="M139.272 156.922C139.272 157.839 138.554 158.591 137.68 158.591C136.805 158.591 136.088 157.839 136.088 156.922C136.088 156.006 136.805 155.254 137.68 155.254C138.554 155.254 139.272 156.006 139.272 156.922Z" fill="#F5F5FF"/>
<path d="M146.489 183.263C146.489 184.344 145.654 185.233 144.609 185.233C143.565 185.233 142.73 184.358 142.73 183.263C142.73 182.169 143.565 181.294 144.609 181.294C145.654 181.294 146.489 182.169 146.489 183.263Z" fill="#F5F5FF"/>
<path d="M131.18 187.503C131.18 188.255 130.593 188.871 129.875 188.871C129.157 188.871 128.57 188.255 128.57 187.503C128.57 186.751 129.157 186.135 129.875 186.135C130.593 186.135 131.18 186.751 131.18 187.503Z" fill="#F5F5FF"/>
<path d="M131.415 145.735L128.074 162.475C128.74 164.007 129.262 165.621 129.614 167.303C129.98 169.054 130.175 170.859 130.175 172.719C130.175 174.935 129.901 177.095 129.366 179.147C128.923 180.925 128.296 182.621 127.5 184.207C126.195 186.833 124.472 189.199 122.397 191.182L118.469 211H47.7746L43.8464 190.622C42.4239 189.172 41.1711 187.517 40.127 185.725C38.8872 183.592 37.9345 181.253 37.3473 178.764C36.8905 176.836 36.6425 174.811 36.6425 172.719C36.6425 170.626 36.9036 168.534 37.3734 166.564C37.6735 165.32 38.052 164.116 38.5088 162.954L35.1939 145.735C33.7714 139.389 34.0455 133.18 36.1858 128.502C37.9476 124.618 41.0014 121.801 45.4386 120.802C46.5609 120.556 47.7877 120.419 49.1058 120.419H119.239C120.544 120.419 121.745 120.556 122.841 120.802C127.043 121.76 129.719 124.481 131.154 128.215C132.994 132.933 132.864 139.266 131.415 145.735Z" fill="#2E2E2E"/>
<path d="M131.52 145.735C131.024 148.539 130.58 151.356 130.045 154.146C129.536 156.95 129.027 159.74 128.466 162.53V162.338C129.497 164.745 130.189 167.317 130.463 169.956C130.724 172.596 130.58 175.263 130.058 177.848C129.549 180.433 128.57 182.908 127.305 185.178C126.026 187.449 124.368 189.459 122.502 191.183C124.29 189.364 125.791 187.257 126.978 184.987C128.179 182.717 129.001 180.255 129.497 177.725C130.463 172.664 129.902 167.303 127.905 162.585C127.879 162.53 127.879 162.461 127.892 162.393C128.453 159.603 129.053 156.827 129.654 154.037C130.241 151.247 130.893 148.484 131.507 145.708L131.52 145.735Z" fill="white"/>
<path d="M43.951 190.635C42.2153 188.926 40.6753 186.97 39.5007 184.768C38.3262 182.58 37.4388 180.2 36.9559 177.725C36.473 175.249 36.3295 172.692 36.5644 170.175C36.7862 167.659 37.4127 165.183 38.3523 162.844V163.022C37.243 157.278 36.2512 151.506 35.3115 145.735C36.5774 151.438 37.8042 157.169 38.9135 162.899C38.9135 162.967 38.9135 163.022 38.9004 163.077C37.1125 167.645 36.6035 172.746 37.504 177.588C37.9608 180.009 38.7177 182.375 39.827 184.563C40.9232 186.751 42.3066 188.816 43.964 190.608L43.951 190.635Z" fill="white"/>
<path d="M97.4053 119.558L104.518 120.679C101.36 129.268 93.2552 135.901 84.407 136.298C74.9062 136.736 65.6665 129.925 62.3125 120.679L69.2162 118.942" fill="#F5F5FF"/>
<path d="M97.4053 119.558L104.518 120.679C101.36 129.268 93.2552 135.901 84.407 136.298C74.9062 136.736 65.6665 129.925 62.3125 120.679L69.2162 118.942" stroke="#2E2E2E" stroke-width="0.5" stroke-linecap="round" stroke-linejoin="round"/>
<path d="M51.7153 155.418C51.7153 156.334 50.9976 157.086 50.1232 157.086C49.2488 157.086 48.531 156.334 48.531 155.418C48.531 154.501 49.2488 153.749 50.1232 153.749C50.9976 153.749 51.7153 154.501 51.7153 155.418Z" fill="#F5F5FF"/>
<path d="M67.3242 196.284C67.3242 198.034 65.967 199.457 64.2965 199.457C62.6261 199.457 61.2688 198.034 61.2688 196.284C61.2688 194.533 62.6261 193.111 64.2965 193.111C65.967 193.111 67.3242 194.533 67.3242 196.284Z" fill="#F5F5FF"/>
<path d="M113.836 169.491C113.836 170.667 112.935 171.611 111.813 171.611C110.691 171.611 109.79 170.667 109.79 169.491C109.79 168.315 110.691 167.371 111.813 167.371C112.935 167.371 113.836 168.315 113.836 169.491Z" fill="#F5F5FF"/>
<path d="M86.2471 167.672C88.5607 167.672 90.4363 165.706 90.4363 163.282C90.4363 160.857 88.5607 158.892 86.2471 158.892C83.9334 158.892 82.0579 160.857 82.0579 163.282C82.0579 165.706 83.9334 167.672 86.2471 167.672Z" fill="#F5F5FF"/>
<path d="M121.341 130.896C121.341 131.812 120.623 132.564 119.748 132.564C118.874 132.564 118.156 131.812 118.156 130.896C118.156 129.979 118.874 129.227 119.748 129.227C120.623 129.227 121.341 129.979 121.341 130.896Z" fill="#F5F5FF"/>
<path d="M51.7156 133.015C51.7156 134.766 50.3583 136.188 48.6879 136.188C47.0174 136.188 45.6602 134.766 45.6602 133.015C45.6602 131.265 47.0174 129.842 48.6879 129.842C50.3583 129.842 51.7156 131.265 51.7156 133.015Z" fill="#F5F5FF"/>
<path d="M102.129 201.276C103.484 201.276 104.583 200.125 104.583 198.705C104.583 197.284 103.484 196.133 102.129 196.133C100.774 196.133 99.6758 197.284 99.6758 198.705C99.6758 200.125 100.774 201.276 102.129 201.276Z" fill="#F5F5FF"/>
<path d="M50.8539 184.33C52.1296 184.33 53.1638 183.247 53.1638 181.91C53.1638 180.573 52.1296 179.489 50.8539 179.489C49.5781 179.489 48.5439 180.573 48.5439 181.91C48.5439 183.247 49.5781 184.33 50.8539 184.33Z" fill="#F5F5FF"/>
<path d="M109.217 147.089C109.217 148.265 108.316 149.209 107.194 149.209C106.071 149.209 105.171 148.265 105.171 147.089C105.171 145.913 106.071 144.969 107.194 144.969C108.316 144.969 109.217 145.913 109.217 147.089Z" fill="#F5F5FF"/>
<path d="M74.5414 150.412C75.8171 150.412 76.8513 149.328 76.8513 147.991C76.8513 146.654 75.8171 145.571 74.5414 145.571C73.2656 145.571 72.2314 146.654 72.2314 147.991C72.2314 149.328 73.2656 150.412 74.5414 150.412Z" fill="#F5F5FF"/>
<path d="M87.8393 202.794C87.8393 203.464 87.3173 204.011 86.6779 204.011C86.0384 204.011 85.5164 203.464 85.5164 202.794C85.5164 202.124 86.0384 201.577 86.6779 201.577C87.3173 201.577 87.8393 202.124 87.8393 202.794Z" fill="#F5F5FF"/>
</svg>
