<svg width="209" height="284" viewBox="0 0 209 284" fill="none" xmlns="http://www.w3.org/2000/svg">
<rect width="209" height="284" rx="20" fill="#F6F5F3"/>
<path d="M76.169 250V235.455H85.6293V237.663H78.804V241.612H85.1392V243.821H78.804V247.791H85.6861V250H76.169ZM88.2038 250V239.091H90.6612V240.945H90.7891C91.0163 240.32 91.3928 239.832 91.9183 239.482C92.4439 239.126 93.0713 238.949 93.8004 238.949C94.5391 238.949 95.1617 239.129 95.6683 239.489C96.1797 239.844 96.5395 240.329 96.7479 240.945H96.8615C97.103 240.339 97.5102 239.856 98.0831 239.496C98.6607 239.131 99.3449 238.949 100.136 238.949C101.139 238.949 101.959 239.266 102.593 239.901C103.228 240.535 103.545 241.461 103.545 242.678V250H100.967V243.075C100.967 242.398 100.787 241.903 100.427 241.591C100.067 241.274 99.6267 241.115 99.1058 241.115C98.4856 241.115 98.0002 241.309 97.6499 241.697C97.3042 242.081 97.1314 242.58 97.1314 243.196V250H94.6101V242.969C94.6101 242.405 94.4396 241.955 94.0987 241.619C93.7625 241.283 93.3222 241.115 92.7777 241.115C92.4084 241.115 92.0722 241.21 91.7692 241.399C91.4661 241.584 91.2247 241.847 91.0447 242.188C90.8648 242.524 90.7749 242.917 90.7749 243.366V250H88.2038ZM106.153 250V239.091H108.61V240.945H108.738C108.966 240.32 109.342 239.832 109.868 239.482C110.393 239.126 111.02 238.949 111.75 238.949C112.488 238.949 113.111 239.129 113.618 239.489C114.129 239.844 114.489 240.329 114.697 240.945H114.811C115.052 240.339 115.459 239.856 116.032 239.496C116.61 239.131 117.294 238.949 118.085 238.949C119.089 238.949 119.908 239.266 120.542 239.901C121.177 240.535 121.494 241.461 121.494 242.678V250H118.916V243.075C118.916 242.398 118.736 241.903 118.376 241.591C118.016 241.274 117.576 241.115 117.055 241.115C116.435 241.115 115.949 241.309 115.599 241.697C115.253 242.081 115.081 242.58 115.081 243.196V250H112.559V242.969C112.559 242.405 112.389 241.955 112.048 241.619C111.712 241.283 111.271 241.115 110.727 241.115C110.358 241.115 110.021 241.21 109.718 241.399C109.415 241.584 109.174 241.847 108.994 242.188C108.814 242.524 108.724 242.917 108.724 243.366V250H106.153ZM127.241 250.22C126.55 250.22 125.928 250.097 125.374 249.851C124.824 249.6 124.389 249.231 124.067 248.743C123.75 248.255 123.591 247.654 123.591 246.939C123.591 246.323 123.705 245.814 123.932 245.412C124.159 245.009 124.469 244.688 124.862 244.446C125.255 244.205 125.698 244.022 126.19 243.899C126.688 243.771 127.201 243.679 127.732 243.622C128.371 243.556 128.889 243.497 129.287 243.445C129.685 243.388 129.973 243.303 130.153 243.189C130.338 243.071 130.43 242.888 130.43 242.642V242.599C130.43 242.064 130.272 241.65 129.955 241.357C129.637 241.063 129.18 240.916 128.584 240.916C127.954 240.916 127.455 241.054 127.085 241.328C126.721 241.603 126.474 241.927 126.347 242.301L123.946 241.96C124.135 241.297 124.448 240.743 124.884 240.298C125.319 239.848 125.852 239.512 126.482 239.29C127.111 239.062 127.807 238.949 128.57 238.949C129.095 238.949 129.618 239.01 130.139 239.134C130.66 239.257 131.136 239.46 131.567 239.744C131.998 240.024 132.343 240.405 132.604 240.888C132.869 241.371 133.001 241.974 133.001 242.699V250H130.53V248.501H130.445C130.288 248.804 130.068 249.089 129.784 249.354C129.505 249.614 129.152 249.825 128.726 249.986C128.304 250.142 127.81 250.22 127.241 250.22ZM127.909 248.331C128.425 248.331 128.873 248.229 129.251 248.026C129.63 247.817 129.921 247.543 130.125 247.202C130.333 246.861 130.438 246.489 130.438 246.087V244.801C130.357 244.867 130.22 244.929 130.026 244.986C129.836 245.043 129.623 245.092 129.386 245.135C129.15 245.178 128.915 245.215 128.683 245.249C128.451 245.282 128.25 245.31 128.08 245.334C127.696 245.386 127.353 245.471 127.05 245.589C126.747 245.708 126.508 245.874 126.332 246.087C126.157 246.295 126.07 246.565 126.07 246.896C126.07 247.37 126.242 247.727 126.588 247.969C126.934 248.21 127.374 248.331 127.909 248.331Z" fill="#101828"/>
<path d="M28.6103 272H27.41L30.8816 262.545H32.0634L35.535 272H34.3347L31.5095 264.041H31.4356L28.6103 272ZM29.0535 268.307H33.8916V269.322H29.0535V268.307ZM39.7222 274.807C39.1959 274.807 38.7435 274.739 38.3649 274.604C37.9864 274.471 37.6709 274.296 37.4185 274.077C37.1693 273.862 36.9707 273.631 36.823 273.385L37.6909 272.776C37.7894 272.905 37.914 273.053 38.0649 273.219C38.2157 273.388 38.4219 273.534 38.6835 273.657C38.9481 273.783 39.2944 273.847 39.7222 273.847C40.2946 273.847 40.767 273.708 41.1394 273.431C41.5118 273.154 41.698 272.72 41.698 272.129V270.689H41.6057C41.5257 270.818 41.4118 270.978 41.2641 271.169C41.1194 271.357 40.9101 271.525 40.6362 271.672C40.3654 271.817 39.9992 271.889 39.5375 271.889C38.9651 271.889 38.4511 271.754 37.9956 271.483C37.5432 271.212 37.1846 270.818 36.92 270.301C36.6584 269.784 36.5276 269.156 36.5276 268.418C36.5276 267.691 36.6553 267.059 36.9107 266.52C37.1662 265.979 37.5216 265.56 37.9771 265.265C38.4326 264.966 38.9589 264.817 39.556 264.817C40.0176 264.817 40.3839 264.894 40.6547 265.048C40.9286 265.198 41.1379 265.371 41.2825 265.565C41.4303 265.755 41.5441 265.912 41.6242 266.036H41.735V264.909H42.7875V272.203C42.7875 272.812 42.649 273.308 42.372 273.69C42.0981 274.074 41.7288 274.356 41.2641 274.534C40.8024 274.716 40.2885 274.807 39.7222 274.807ZM39.6852 270.911C40.1223 270.911 40.4916 270.81 40.7932 270.61C41.0948 270.41 41.3241 270.123 41.481 269.747C41.638 269.372 41.7165 268.922 41.7165 268.399C41.7165 267.888 41.6395 267.437 41.4857 267.047C41.3318 266.656 41.104 266.349 40.8024 266.128C40.5008 265.906 40.1284 265.795 39.6852 265.795C39.2236 265.795 38.8389 265.912 38.5311 266.146C38.2264 266.38 37.9971 266.694 37.8433 267.088C37.6925 267.482 37.6171 267.919 37.6171 268.399C37.6171 268.892 37.694 269.327 37.8479 269.706C38.0048 270.081 38.2357 270.377 38.5403 270.592C38.8481 270.804 39.2297 270.911 39.6852 270.911ZM47.7548 272.148C47.0716 272.148 46.4822 271.997 45.9867 271.695C45.4943 271.391 45.1142 270.966 44.8465 270.421C44.5818 269.873 44.4494 269.236 44.4494 268.51C44.4494 267.784 44.5818 267.143 44.8465 266.589C45.1142 266.032 45.4866 265.598 45.9636 265.288C46.4438 264.974 47.0039 264.817 47.644 264.817C48.0134 264.817 48.3781 264.878 48.7381 265.001C49.0982 265.125 49.426 265.325 49.7215 265.602C50.0169 265.875 50.2524 266.239 50.4278 266.691C50.6032 267.143 50.6909 267.701 50.6909 268.362V268.824H45.225V267.882H49.583C49.583 267.482 49.5029 267.125 49.3429 266.811C49.1859 266.497 48.9613 266.249 48.6689 266.068C48.3796 265.886 48.038 265.795 47.644 265.795C47.2101 265.795 46.8346 265.903 46.5176 266.119C46.2037 266.331 45.9621 266.608 45.7928 266.95C45.6236 267.291 45.5389 267.657 45.5389 268.048V268.676C45.5389 269.212 45.6313 269.666 45.8159 270.038C46.0037 270.407 46.2637 270.689 46.5961 270.883C46.9285 271.074 47.3147 271.169 47.7548 271.169C48.0411 271.169 48.2996 271.129 48.5304 271.049C48.7643 270.966 48.9659 270.843 49.1352 270.68C49.3044 270.513 49.4352 270.307 49.5276 270.061L50.5801 270.357C50.4693 270.714 50.2831 271.027 50.0215 271.298C49.7599 271.566 49.4368 271.775 49.0521 271.926C48.6674 272.074 48.235 272.148 47.7548 272.148ZM53.1423 272.074C52.9145 272.074 52.7191 271.992 52.556 271.829C52.3929 271.666 52.3113 271.471 52.3113 271.243C52.3113 271.015 52.3929 270.82 52.556 270.657C52.7191 270.493 52.9145 270.412 53.1423 270.412C53.37 270.412 53.5654 270.493 53.7286 270.657C53.8917 270.82 53.9732 271.015 53.9732 271.243C53.9732 271.394 53.9348 271.532 53.8578 271.658C53.784 271.785 53.6839 271.886 53.5578 271.963C53.4346 272.037 53.2962 272.074 53.1423 272.074ZM53.1423 266.811C52.9145 266.811 52.7191 266.73 52.556 266.566C52.3929 266.403 52.3113 266.208 52.3113 265.98C52.3113 265.752 52.3929 265.557 52.556 265.394C52.7191 265.231 52.9145 265.149 53.1423 265.149C53.37 265.149 53.5654 265.231 53.7286 265.394C53.8917 265.557 53.9732 265.752 53.9732 265.98C53.9732 266.131 53.9348 266.269 53.8578 266.396C53.784 266.522 53.6839 266.623 53.5578 266.7C53.4346 266.774 53.2962 266.811 53.1423 266.811ZM59.5661 272V271.169L62.6868 267.753C63.0531 267.353 63.3547 267.005 63.5917 266.71C63.8286 266.411 64.0041 266.131 64.1179 265.869C64.2349 265.605 64.2934 265.328 64.2934 265.038C64.2934 264.706 64.2133 264.418 64.0533 264.175C63.8964 263.932 63.6809 263.744 63.407 263.612C63.1331 263.48 62.8253 263.413 62.4837 263.413C62.1205 263.413 61.8035 263.489 61.5327 263.64C61.265 263.787 61.0572 263.995 60.9095 264.263C60.7648 264.531 60.6925 264.844 60.6925 265.205H59.603C59.603 264.651 59.7307 264.164 59.9862 263.746C60.2416 263.327 60.5894 263.001 61.0295 262.767C61.4727 262.533 61.9697 262.416 62.5206 262.416C63.0746 262.416 63.5655 262.533 63.9933 262.767C64.4211 263.001 64.7566 263.316 64.9997 263.713C65.2428 264.11 65.3644 264.552 65.3644 265.038C65.3644 265.386 65.3013 265.726 65.1751 266.059C65.052 266.388 64.8366 266.756 64.5288 267.162C64.2241 267.565 63.8009 268.058 63.2593 268.639L61.1357 270.911V270.984H65.5306V272H59.5661ZM70.4656 272.129C69.8316 272.129 69.2715 272.017 68.7852 271.792C68.302 271.565 67.925 271.252 67.6542 270.855C67.3833 270.455 67.2495 270 67.2525 269.489C67.2495 269.089 67.3279 268.719 67.488 268.381C67.648 268.039 67.8665 267.754 68.1435 267.527C68.4236 267.296 68.736 267.15 69.0807 267.088V267.033C68.6282 266.916 68.2682 266.662 68.0004 266.271C67.7326 265.877 67.6003 265.429 67.6034 264.928C67.6003 264.447 67.7219 264.018 67.9681 263.64C68.2143 263.261 68.5528 262.962 68.9837 262.744C69.4177 262.525 69.9116 262.416 70.4656 262.416C71.0134 262.416 71.5028 262.525 71.9336 262.744C72.3645 262.962 72.7031 263.261 72.9493 263.64C73.1986 264.018 73.3247 264.447 73.3278 264.928C73.3247 265.429 73.1878 265.877 72.9169 266.271C72.6492 266.662 72.2937 266.916 71.8505 267.033V267.088C72.1922 267.15 72.4999 267.296 72.7738 267.527C73.0477 267.754 73.2663 268.039 73.4294 268.381C73.5925 268.719 73.6756 269.089 73.6787 269.489C73.6756 270 73.5371 270.455 73.2632 270.855C72.9924 271.252 72.6153 271.565 72.1321 271.792C71.652 272.017 71.0965 272.129 70.4656 272.129ZM70.4656 271.114C70.8934 271.114 71.2627 271.044 71.5736 270.906C71.8844 270.767 72.1245 270.572 72.2937 270.32C72.463 270.067 72.5492 269.772 72.5522 269.433C72.5492 269.076 72.4568 268.761 72.2753 268.487C72.0937 268.213 71.8459 267.998 71.532 267.841C71.2212 267.684 70.8657 267.605 70.4656 267.605C70.0624 267.605 69.7023 267.684 69.3853 267.841C69.0714 267.998 68.8237 268.213 68.6421 268.487C68.4636 268.761 68.3759 269.076 68.379 269.433C68.3759 269.772 68.4574 270.067 68.6236 270.32C68.7929 270.572 69.0345 270.767 69.3484 270.906C69.6623 271.044 70.0347 271.114 70.4656 271.114ZM70.4656 266.626C70.8041 266.626 71.1042 266.559 71.3658 266.423C71.6305 266.288 71.8382 266.099 71.989 265.855C72.1398 265.612 72.2168 265.328 72.2199 265.001C72.2168 264.681 72.1414 264.403 71.9937 264.166C71.8459 263.926 71.6413 263.741 71.3797 263.612C71.1181 263.48 70.8134 263.413 70.4656 263.413C70.1117 263.413 69.8024 263.48 69.5377 263.612C69.273 263.741 69.0683 263.926 68.9237 264.166C68.779 264.403 68.7083 264.681 68.7113 265.001C68.7083 265.328 68.7806 265.612 68.9283 265.855C69.0791 266.099 69.2869 266.288 69.5515 266.423C69.8162 266.559 70.1209 266.626 70.4656 266.626ZM80.7476 270.707L80.6738 271.206C80.6215 271.557 80.5414 271.932 80.4337 272.332C80.3291 272.732 80.2198 273.109 80.106 273.463C79.9921 273.817 79.8982 274.099 79.8244 274.308H78.9934C79.0334 274.111 79.0857 273.851 79.1503 273.528C79.215 273.205 79.2796 272.843 79.3442 272.443C79.4119 272.046 79.4673 271.64 79.5104 271.224L79.5658 270.707H80.7476ZM93.0332 265.5C92.9317 265.189 92.7978 264.911 92.6316 264.664C92.4685 264.415 92.2731 264.203 92.0453 264.027C91.8207 263.852 91.5652 263.718 91.279 263.626C90.9928 263.533 90.6788 263.487 90.3372 263.487C89.7771 263.487 89.2677 263.632 88.8092 263.921C88.3506 264.21 87.9859 264.637 87.7151 265.2C87.4442 265.763 87.3088 266.454 87.3088 267.273C87.3088 268.091 87.4458 268.782 87.7197 269.346C87.9936 269.909 88.3645 270.335 88.8323 270.624C89.3001 270.914 89.8263 271.058 90.4111 271.058C90.9528 271.058 91.4298 270.943 91.8422 270.712C92.2577 270.478 92.5808 270.149 92.8117 269.724C93.0456 269.296 93.1625 268.793 93.1625 268.214L93.5134 268.288H90.6696V267.273H94.2705V268.288C94.2705 269.067 94.1043 269.744 93.7719 270.32C93.4426 270.895 92.9871 271.341 92.4054 271.658C91.8268 271.972 91.162 272.129 90.4111 272.129C89.574 272.129 88.8384 271.932 88.2044 271.538C87.5735 271.144 87.0811 270.584 86.7271 269.858C86.3763 269.132 86.2009 268.27 86.2009 267.273C86.2009 266.525 86.3009 265.852 86.5009 265.255C86.7041 264.655 86.9903 264.144 87.3596 263.723C87.7289 263.301 88.1659 262.978 88.6707 262.753C89.1754 262.529 89.7309 262.416 90.3372 262.416C90.8358 262.416 91.3005 262.492 91.7314 262.642C92.1653 262.79 92.5516 263.001 92.8901 263.275C93.2318 263.546 93.5164 263.87 93.7442 264.249C93.9719 264.624 94.1289 265.041 94.2151 265.5H93.0332ZM99.0566 272.148C98.3734 272.148 97.784 271.997 97.2885 271.695C96.7961 271.391 96.416 270.966 96.1482 270.421C95.8835 269.873 95.7512 269.236 95.7512 268.51C95.7512 267.784 95.8835 267.143 96.1482 266.589C96.416 266.032 96.7884 265.598 97.2654 265.288C97.7455 264.974 98.3056 264.817 98.9458 264.817C99.3151 264.817 99.6798 264.878 100.04 265.001C100.4 265.125 100.728 265.325 101.023 265.602C101.319 265.875 101.554 266.239 101.73 266.691C101.905 267.143 101.993 267.701 101.993 268.362V268.824H96.5268V267.882H100.885C100.885 267.482 100.805 267.125 100.645 266.811C100.488 266.497 100.263 266.249 99.9707 266.068C99.6814 265.886 99.3397 265.795 98.9458 265.795C98.5119 265.795 98.1364 265.903 97.8194 266.119C97.5055 266.331 97.2639 266.608 97.0946 266.95C96.9253 267.291 96.8407 267.657 96.8407 268.048V268.676C96.8407 269.212 96.933 269.666 97.1177 270.038C97.3054 270.407 97.5655 270.689 97.8979 270.883C98.2302 271.074 98.6165 271.169 99.0566 271.169C99.3428 271.169 99.6013 271.129 99.8322 271.049C100.066 270.966 100.268 270.843 100.437 270.68C100.606 270.513 100.737 270.307 100.829 270.061L101.882 270.357C101.771 270.714 101.585 271.027 101.323 271.298C101.062 271.566 100.739 271.775 100.354 271.926C99.9691 272.074 99.5367 272.148 99.0566 272.148ZM104.739 267.734V272H103.65V264.909H104.703V266.017H104.795C104.961 265.657 105.213 265.368 105.552 265.149C105.891 264.928 106.328 264.817 106.863 264.817C107.343 264.817 107.763 264.915 108.123 265.112C108.483 265.306 108.764 265.602 108.964 265.999C109.164 266.393 109.264 266.891 109.264 267.494V272H108.174V267.568C108.174 267.011 108.029 266.577 107.74 266.266C107.451 265.952 107.054 265.795 106.549 265.795C106.201 265.795 105.891 265.871 105.617 266.022C105.346 266.172 105.132 266.393 104.975 266.682C104.818 266.971 104.739 267.322 104.739 267.734ZM113.932 272.148C113.341 272.148 112.819 271.998 112.367 271.7C111.915 271.398 111.561 270.974 111.305 270.426C111.05 269.875 110.922 269.224 110.922 268.473C110.922 267.728 111.05 267.082 111.305 266.534C111.561 265.986 111.916 265.563 112.372 265.265C112.827 264.966 113.353 264.817 113.951 264.817C114.412 264.817 114.777 264.894 115.045 265.048C115.315 265.198 115.522 265.371 115.663 265.565C115.808 265.755 115.92 265.912 116 266.036H116.093V262.545H117.182V272H116.129V270.911H116C115.92 271.04 115.806 271.203 115.659 271.4C115.511 271.594 115.3 271.768 115.026 271.922C114.752 272.072 114.388 272.148 113.932 272.148ZM114.08 271.169C114.517 271.169 114.886 271.055 115.188 270.827C115.489 270.597 115.719 270.278 115.876 269.872C116.033 269.462 116.111 268.99 116.111 268.455C116.111 267.925 116.034 267.462 115.88 267.065C115.726 266.665 115.499 266.354 115.197 266.132C114.895 265.908 114.523 265.795 114.08 265.795C113.618 265.795 113.233 265.914 112.926 266.151C112.621 266.385 112.392 266.703 112.238 267.107C112.087 267.507 112.012 267.956 112.012 268.455C112.012 268.959 112.089 269.418 112.242 269.83C112.399 270.24 112.63 270.566 112.935 270.809C113.243 271.049 113.624 271.169 114.08 271.169ZM122.302 272.148C121.618 272.148 121.029 271.997 120.534 271.695C120.041 271.391 119.661 270.966 119.393 270.421C119.129 269.873 118.996 269.236 118.996 268.51C118.996 267.784 119.129 267.143 119.393 266.589C119.661 266.032 120.033 265.598 120.511 265.288C120.991 264.974 121.551 264.817 122.191 264.817C122.56 264.817 122.925 264.878 123.285 265.001C123.645 265.125 123.973 265.325 124.268 265.602C124.564 265.875 124.799 266.239 124.975 266.691C125.15 267.143 125.238 267.701 125.238 268.362V268.824H119.772V267.882H124.13C124.13 267.482 124.05 267.125 123.89 266.811C123.733 266.497 123.508 266.249 123.216 266.068C122.926 265.886 122.585 265.795 122.191 265.795C121.757 265.795 121.381 265.903 121.064 266.119C120.751 266.331 120.509 266.608 120.34 266.95C120.17 267.291 120.086 267.657 120.086 268.048V268.676C120.086 269.212 120.178 269.666 120.363 270.038C120.551 270.407 120.811 270.689 121.143 270.883C121.475 271.074 121.862 271.169 122.302 271.169C122.588 271.169 122.846 271.129 123.077 271.049C123.311 270.966 123.513 270.843 123.682 270.68C123.851 270.513 123.982 270.307 124.074 270.061L125.127 270.357C125.016 270.714 124.83 271.027 124.568 271.298C124.307 271.566 123.984 271.775 123.599 271.926C123.214 272.074 122.782 272.148 122.302 272.148ZM126.895 272V264.909H127.948V265.98H128.022C128.151 265.629 128.385 265.345 128.723 265.126C129.062 264.908 129.443 264.798 129.868 264.798C129.948 264.798 130.048 264.8 130.168 264.803C130.288 264.806 130.379 264.811 130.441 264.817V265.925C130.404 265.915 130.319 265.902 130.187 265.883C130.057 265.862 129.92 265.851 129.776 265.851C129.431 265.851 129.123 265.923 128.852 266.068C128.585 266.209 128.372 266.406 128.215 266.659C128.062 266.908 127.985 267.193 127.985 267.513V272H126.895ZM132.526 272.074C132.298 272.074 132.103 271.992 131.94 271.829C131.777 271.666 131.695 271.471 131.695 271.243C131.695 271.015 131.777 270.82 131.94 270.657C132.103 270.493 132.298 270.412 132.526 270.412C132.754 270.412 132.949 270.493 133.112 270.657C133.275 270.82 133.357 271.015 133.357 271.243C133.357 271.394 133.319 271.532 133.242 271.658C133.168 271.785 133.068 271.886 132.942 271.963C132.818 272.037 132.68 272.074 132.526 272.074ZM132.526 266.811C132.298 266.811 132.103 266.73 131.94 266.566C131.777 266.403 131.695 266.208 131.695 265.98C131.695 265.752 131.777 265.557 131.94 265.394C132.103 265.231 132.298 265.149 132.526 265.149C132.754 265.149 132.949 265.231 133.112 265.394C133.275 265.557 133.357 265.752 133.357 265.98C133.357 266.131 133.319 266.269 133.242 266.396C133.168 266.522 133.068 266.623 132.942 266.7C132.818 266.774 132.68 266.811 132.526 266.811ZM139.116 272V262.545H144.785V263.561H140.261V266.756H144.36V267.771H140.261V272H139.116ZM149.051 272.148C148.367 272.148 147.778 271.997 147.283 271.695C146.79 271.391 146.41 270.966 146.142 270.421C145.878 269.873 145.745 269.236 145.745 268.51C145.745 267.784 145.878 267.143 146.142 266.589C146.41 266.032 146.783 265.598 147.26 265.288C147.74 264.974 148.3 264.817 148.94 264.817C149.309 264.817 149.674 264.878 150.034 265.001C150.394 265.125 150.722 265.325 151.017 265.602C151.313 265.875 151.548 266.239 151.724 266.691C151.899 267.143 151.987 267.701 151.987 268.362V268.824H146.521V267.882H150.879C150.879 267.482 150.799 267.125 150.639 266.811C150.482 266.497 150.257 266.249 149.965 266.068C149.676 265.886 149.334 265.795 148.94 265.795C148.506 265.795 148.131 265.903 147.814 266.119C147.5 266.331 147.258 266.608 147.089 266.95C146.919 267.291 146.835 267.657 146.835 268.048V268.676C146.835 269.212 146.927 269.666 147.112 270.038C147.3 270.407 147.56 270.689 147.892 270.883C148.224 271.074 148.611 271.169 149.051 271.169C149.337 271.169 149.595 271.129 149.826 271.049C150.06 270.966 150.262 270.843 150.431 270.68C150.6 270.513 150.731 270.307 150.823 270.061L151.876 270.357C151.765 270.714 151.579 271.027 151.317 271.298C151.056 271.566 150.733 271.775 150.348 271.926C149.963 272.074 149.531 272.148 149.051 272.148ZM153.644 272V264.909H154.697V266.017H154.789C154.937 265.638 155.175 265.345 155.505 265.135C155.834 264.923 156.229 264.817 156.691 264.817C157.159 264.817 157.548 264.923 157.859 265.135C158.173 265.345 158.418 265.638 158.593 266.017H158.667C158.848 265.651 159.121 265.36 159.484 265.145C159.847 264.926 160.283 264.817 160.79 264.817C161.424 264.817 161.943 265.015 162.346 265.412C162.749 265.806 162.951 266.42 162.951 267.254V272H161.861V267.254C161.861 266.731 161.718 266.357 161.432 266.132C161.146 265.908 160.809 265.795 160.421 265.795C159.923 265.795 159.536 265.946 159.262 266.248C158.988 266.546 158.852 266.925 158.852 267.384V272H157.744V267.143C157.744 266.74 157.613 266.416 157.351 266.169C157.09 265.92 156.753 265.795 156.34 265.795C156.057 265.795 155.792 265.871 155.546 266.022C155.303 266.172 155.106 266.382 154.955 266.65C154.807 266.914 154.734 267.22 154.734 267.568V272H153.644ZM167.03 272.166C166.58 272.166 166.172 272.082 165.806 271.912C165.44 271.74 165.149 271.492 164.934 271.169C164.718 270.843 164.611 270.449 164.611 269.987C164.611 269.581 164.691 269.252 164.851 268.999C165.011 268.744 165.225 268.544 165.492 268.399C165.76 268.254 166.056 268.147 166.379 268.076C166.705 268.002 167.033 267.944 167.362 267.901C167.793 267.845 168.142 267.804 168.41 267.776C168.681 267.745 168.878 267.694 169.001 267.624C169.127 267.553 169.19 267.43 169.19 267.254V267.217C169.19 266.762 169.065 266.408 168.816 266.156C168.57 265.903 168.196 265.777 167.694 265.777C167.174 265.777 166.766 265.891 166.471 266.119C166.176 266.346 165.968 266.589 165.848 266.848L164.814 266.479C164.998 266.048 165.245 265.712 165.552 265.472C165.863 265.229 166.202 265.06 166.568 264.964C166.937 264.866 167.3 264.817 167.657 264.817C167.885 264.817 168.147 264.844 168.442 264.9C168.741 264.952 169.029 265.061 169.306 265.228C169.586 265.394 169.818 265.645 170.003 265.98C170.187 266.316 170.28 266.765 170.28 267.328V272H169.19V271.04H169.135C169.061 271.194 168.938 271.358 168.765 271.534C168.593 271.709 168.364 271.858 168.078 271.982C167.791 272.105 167.442 272.166 167.03 272.166ZM167.196 271.188C167.627 271.188 167.99 271.103 168.285 270.934C168.584 270.764 168.808 270.546 168.959 270.278C169.113 270.01 169.19 269.729 169.19 269.433V268.436C169.144 268.491 169.042 268.542 168.885 268.588C168.732 268.632 168.553 268.67 168.35 268.704C168.15 268.735 167.954 268.762 167.764 268.787C167.576 268.808 167.424 268.827 167.307 268.842C167.023 268.879 166.759 268.939 166.513 269.022C166.269 269.102 166.072 269.224 165.922 269.387C165.774 269.547 165.7 269.766 165.7 270.043C165.7 270.421 165.84 270.707 166.12 270.901C166.403 271.092 166.762 271.188 167.196 271.188ZM173.358 262.545V272H172.268V262.545H173.358ZM178.326 272.148C177.643 272.148 177.054 271.997 176.558 271.695C176.066 271.391 175.686 270.966 175.418 270.421C175.153 269.873 175.021 269.236 175.021 268.51C175.021 267.784 175.153 267.143 175.418 266.589C175.686 266.032 176.058 265.598 176.535 265.288C177.015 264.974 177.575 264.817 178.215 264.817C178.585 264.817 178.949 264.878 179.309 265.001C179.67 265.125 179.997 265.325 180.293 265.602C180.588 265.875 180.824 266.239 180.999 266.691C181.174 267.143 181.262 267.701 181.262 268.362V268.824H175.796V267.882H180.154C180.154 267.482 180.074 267.125 179.914 266.811C179.757 266.497 179.533 266.249 179.24 266.068C178.951 265.886 178.609 265.795 178.215 265.795C177.781 265.795 177.406 265.903 177.089 266.119C176.775 266.331 176.533 266.608 176.364 266.95C176.195 267.291 176.11 267.657 176.11 268.048V268.676C176.11 269.212 176.203 269.666 176.387 270.038C176.575 270.407 176.835 270.689 177.167 270.883C177.5 271.074 177.886 271.169 178.326 271.169C178.612 271.169 178.871 271.129 179.102 271.049C179.336 270.966 179.537 270.843 179.706 270.68C179.876 270.513 180.007 270.307 180.099 270.061L181.151 270.357C181.041 270.714 180.854 271.027 180.593 271.298C180.331 271.566 180.008 271.775 179.623 271.926C179.239 272.074 178.806 272.148 178.326 272.148Z" fill="#644A41"/>
<path d="M105 170C149.183 170 185 134.183 185 90C185 45.8172 149.183 10 105 10C60.8172 10 25 45.8172 25 90C25 134.183 60.8172 170 105 170Z" fill="#3B4EFF"/>
<path d="M140.372 72.4201C140.263 69.1342 140.086 65.8484 139.854 62.5626C139.118 52.567 138.054 42.9719 131.507 35.1025C118.727 19.7364 94.5864 20.5095 82.3932 36.2484C73.4187 47.8316 75.3146 64.6335 72.9005 78.5913C70.1045 94.7167 64.1579 110.069 58.4022 125.297C56.411 130.557 54.256 135.9 54.0923 141.533C53.9832 145.164 54.8834 148.988 56.9293 151.943C61.9484 159.177 73.7734 159.398 81.3976 160.668C92.036 162.449 102.838 163.678 113.626 162.877C127.32 161.855 134.344 152.163 136.554 138.647C138.94 124.054 140.072 109.172 140.427 94.4268C140.604 87.0958 140.645 79.751 140.386 72.4201H140.372Z" fill="#2E2E2E"/>
<path d="M107.421 28.5031C102.77 28.4617 98.2555 30.2565 94.3957 33.211C92.2953 34.7987 90.3858 36.7315 88.7491 38.8852C84.0982 44.9875 81.4386 52.7326 79.952 60.5882C78.4517 68.4576 78.0562 76.5066 77.4151 84.514C76.0103 102.213 73.378 119.968 67.636 136.535C65.672 142.209 63.2715 147.828 59.4253 152.122C59.0161 152.578 58.5797 153.033 58.1296 153.447" stroke="white" stroke-width="0.44" stroke-linecap="round" stroke-linejoin="round"/>
<path d="M122.424 32.5762C131.384 46.534 132.898 63.9158 134.003 80.5244C135.149 97.4367 136.145 114.584 132.98 131.234C130.962 141.892 127.034 152.454 120.951 161.317" stroke="white" stroke-width="0.44" stroke-linecap="round" stroke-linejoin="round"/>
<path d="M65.8086 157.907C70.7459 151.749 74.1693 144.253 76.2151 136.535C79.4203 124.483 79.5567 111.836 79.4339 99.3557C79.3248 86.8612 78.9702 74.2702 81.2752 62.0104C83.2665 51.5179 87.3854 41.122 94.3959 33.2112" stroke="white" stroke-width="0.44" stroke-linecap="round" stroke-linejoin="round"/>
<path d="M98.133 29.4421C96.7964 30.6156 95.5416 31.872 94.3823 33.2112" stroke="white" stroke-width="0.44" stroke-linecap="round" stroke-linejoin="round"/>
<path d="M119.273 35.075C125.738 43.2343 127.961 53.9754 129.148 64.3437C131.739 86.9026 130.362 109.917 125.07 131.979C122.451 142.941 118.796 153.82 112.304 162.974" stroke="white" stroke-width="0.44" stroke-linecap="round" stroke-linejoin="round"/>
<path d="M89.8539 64.3574C92.4453 86.9164 91.0677 109.931 85.7758 132.007C83.4572 141.712 80.3202 151.39 75.1238 159.826" stroke="white" stroke-width="0.44" stroke-linecap="round" stroke-linejoin="round"/>
<path d="M123.051 133.926C123.351 143.065 116.273 150.631 107.448 150.631C98.6238 150.631 91.8452 143.369 91.8452 134.464C91.8452 134.285 91.8452 134.105 91.8452 133.926L93.5773 109.807L93.7956 106.7L94.8867 91.707H119.982L121.101 107.253L121.346 110.649L123.038 133.926H123.051Z" fill="#F5F5FF" stroke="#2E2E2E" stroke-width="0.5" stroke-linecap="round" stroke-linejoin="round"/>
<path d="M122.178 122.135C114.268 123.116 105.348 119.264 99.3057 111.45C96.8507 108.288 95.1458 104.809 94.1638 101.288L94.8731 91.5552H119.969L121.087 107.101L121.346 110.497L122.178 122.135Z" fill="#2E2E2E"/>
<path d="M128.725 67.5328C125.574 72.6548 125.875 78.7294 129.407 81.0902C132.94 83.4511 138.354 81.2145 141.505 76.0925C144.655 70.9705 144.355 64.8958 140.823 62.535C137.29 60.1742 131.876 62.4107 128.725 67.5328Z" fill="#F5F5FF" stroke="#2E2E2E" stroke-width="0.5" stroke-linecap="round" stroke-linejoin="round"/>
<path d="M138.177 64.9924C139.704 65.5999 140.864 67.0633 141.109 68.7062C141.355 70.3492 140.686 72.1025 139.404 73.138" stroke="#2E2E2E" stroke-width="0.5" stroke-linecap="round" stroke-linejoin="round"/>
<path d="M86.1713 67.5328C89.3219 72.6548 89.0219 78.7294 85.4894 81.0902C81.9569 83.4511 76.5422 81.2145 73.3916 76.0925C70.241 70.9705 70.541 64.8958 74.0735 62.535C77.606 60.1742 83.0207 62.4107 86.1713 67.5328Z" fill="#F5F5FF" stroke="#2E2E2E" stroke-width="0.5" stroke-linecap="round" stroke-linejoin="round"/>
<path d="M76.7197 64.9924C75.1921 65.5999 74.0328 67.0633 73.7873 68.7062C73.5418 70.3492 74.2101 72.1025 75.4922 73.138" stroke="#2E2E2E" stroke-width="0.5" stroke-linecap="round" stroke-linejoin="round"/>
<path d="M137.072 59.0696C137.072 59.5529 137.072 60.0223 137.045 60.4779C136.99 61.8585 136.881 63.2529 136.704 64.6059L136.513 66.5387L136.431 67.588L136.294 69.1066C136.213 70.0316 136.158 70.9428 136.09 71.854C136.063 72.4338 136.035 72.9999 135.994 73.5797C135.872 75.8715 135.749 78.1495 135.449 80.4137C135.449 80.4551 135.422 80.4965 135.422 80.5242C135.367 80.9521 135.299 81.3939 135.217 81.8081C135.135 82.2913 135.053 82.7469 134.931 83.2025C134.794 83.8928 134.617 84.5693 134.399 85.2596C134.344 85.5219 134.262 85.7566 134.167 86.019C134.017 86.516 133.812 87.0268 133.621 87.5376C133.089 88.8768 132.448 90.1745 131.712 91.4723C128.67 96.8566 123.992 101.799 119.314 105.071C119.287 105.113 119.259 105.126 119.246 105.126C118.673 105.541 118.1 105.913 117.541 106.259C111.826 109.793 105.075 109.986 99.1556 106.935C97.928 106.314 96.7415 105.596 95.5958 104.74C95.5822 104.74 95.5685 104.74 95.5549 104.712C91.0267 101.44 87.126 96.6909 84.2072 91.4723C83.989 91.0995 83.7981 90.7406 83.5935 90.3678C83.498 90.1745 83.4025 89.9675 83.3071 89.7742C83.1434 89.4566 82.9797 89.1115 82.816 88.7663C82.3523 87.8689 81.9432 86.9301 81.5613 86.019C81.4658 85.7566 81.3567 85.5081 81.2749 85.2458C79.8973 81.5734 79.4063 77.4731 79.079 73.4279C79.0244 72.8066 78.9699 72.1577 78.929 71.5364C78.8744 70.8323 78.8199 70.1144 78.7653 69.4241L78.6016 67.5327C78.5607 67.3256 78.5334 67.1185 78.5062 66.9253C78.4516 66.6906 78.4243 66.4697 78.397 66.235C78.247 65.379 78.1379 64.5092 78.0424 63.6118C77.906 62.1484 77.8242 60.6297 77.8242 59.0696C77.8242 58.9454 77.8242 58.8074 77.8242 58.6693V58.5174C77.8242 57.8547 77.8515 57.1921 77.8924 56.5432L77.9333 55.7976C78.0015 54.9831 78.097 54.1824 78.2197 53.4092C78.9017 48.6185 80.4156 44.1592 82.5979 40.2521C83.1434 39.2719 83.7299 38.3331 84.3709 37.4219C86.4713 34.3708 89.0491 31.7476 91.9269 29.6905C92.1315 29.5248 92.3497 29.373 92.5543 29.2349C92.8134 29.0555 93.0726 28.876 93.3317 28.7103C94.3546 28.0752 95.4048 27.4954 96.4823 26.9984C99.6329 25.5349 103.056 24.6927 106.657 24.5961C106.671 24.5685 106.684 24.5685 106.698 24.5961V24.5685C106.875 24.5547 107.066 24.5547 107.243 24.5547H107.421C107.871 24.5547 108.362 24.5685 108.812 24.6099C109.412 24.6375 109.985 24.679 110.571 24.7618C110.885 24.7894 111.199 24.8308 111.499 24.8861C111.744 24.9137 111.99 24.9689 112.235 25.0103C114.281 25.4107 116.245 26.0319 118.127 26.9017C119.573 27.5368 120.978 28.3237 122.301 29.2349C122.369 29.2764 122.437 29.3316 122.505 29.373C123.351 29.9529 124.156 30.5603 124.933 31.2368C127.866 33.7357 130.375 36.842 132.353 40.404C132.489 40.6249 132.585 40.8319 132.707 41.039V41.0667C134.617 44.7529 135.994 48.8809 136.622 53.3126C136.622 53.3402 136.622 53.3678 136.622 53.4092C136.745 54.1824 136.826 54.9831 136.895 55.7976C136.895 55.9357 136.922 56.0738 136.922 56.2118C136.963 56.7365 136.99 57.2611 137.004 57.7995C137.004 58.0894 137.004 58.3794 137.004 58.6693C137.017 58.8074 137.017 58.9454 137.017 59.0696H137.072Z" fill="#F5F5FF" stroke="#2E2E2E" stroke-width="0.5" stroke-linecap="round" stroke-linejoin="round"/>
<path d="M101.392 62.5212C100.438 61.2786 99.0738 60.5607 97.7372 60.0637C96.3733 59.5943 94.9685 59.3872 93.5637 59.3872C92.1589 59.3872 90.7677 59.5943 89.4174 60.0361C88.0808 60.4917 86.7578 61.1129 85.6531 62.2174C87.1261 62.604 88.4218 62.7559 89.7311 62.8801C91.0268 62.9906 92.2953 63.032 93.5501 63.032C94.8048 63.032 96.0596 62.9768 97.3417 62.8939C98.6238 62.7973 99.8922 62.6868 101.392 62.5212Z" fill="#2E2E2E"/>
<path d="M113.504 62.5212C114.458 61.2786 115.822 60.5607 117.159 60.0637C118.523 59.5943 119.928 59.3872 121.332 59.3872C122.737 59.3872 124.128 59.5943 125.479 60.0361C126.815 60.4917 128.138 61.1129 129.243 62.2174C127.77 62.604 126.474 62.7559 125.165 62.8801C123.869 62.9906 122.601 63.032 121.346 63.032C120.091 63.032 118.837 62.9768 117.554 62.8939C116.272 62.7973 115.004 62.6868 113.504 62.5212Z" fill="#2E2E2E"/>
<path d="M100.915 73.925C100.465 73.3589 100.042 72.7653 99.6056 72.1854C99.1828 71.647 98.7599 71.1224 98.228 70.7082C97.2187 69.8384 95.9912 69.231 94.7228 68.941C93.4544 68.6373 92.1178 68.6373 90.8493 68.941C90.2083 69.0653 89.6082 69.3276 89.0081 69.6037C88.3534 69.9074 87.7124 70.225 87.0577 70.5149L86.9622 70.5563C86.8531 70.5977 86.744 70.6115 86.6485 70.5839C86.1848 70.4597 86.0211 70.2664 85.8029 70.0869C85.6119 69.9074 85.4483 69.728 85.2983 69.5347C84.9982 69.1619 84.7254 68.7891 84.4799 68.3612C84.3981 68.2231 84.439 68.0298 84.589 67.947C84.7118 67.878 84.8482 67.9056 84.9437 67.9884C85.2437 68.2921 85.5983 68.5683 85.9393 68.803C86.1166 68.9272 86.2939 69.0239 86.4576 69.1067C86.6076 69.1895 86.8258 69.2447 86.8122 69.2033L86.403 69.2724C87.0168 68.8858 87.6441 68.5406 88.2715 68.1817C88.9671 67.8227 89.69 67.5052 90.4538 67.3257C91.9813 66.9253 93.5908 66.9944 95.1047 67.3809C96.5913 67.8504 98.0098 68.6235 99.06 69.7832C99.6055 70.3354 100.028 70.9843 100.424 71.647C100.751 72.2959 101.092 72.9448 101.406 73.5936C101.474 73.7455 101.406 73.925 101.27 73.994C101.147 74.0492 100.997 74.0216 100.901 73.9112L100.915 73.925Z" fill="#2E2E2E"/>
<path d="M96.7959 70.7222C96.8914 69.3278 95.8412 68.1129 94.4637 68.03C93.0861 67.9334 91.8859 68.9964 91.7905 70.3908C91.695 71.7852 92.7452 73.0002 94.1227 73.083C95.5002 73.1797 96.7005 72.1166 96.7823 70.7222H96.7959Z" fill="#2E2E2E"/>
<path d="M89.008 71.6608C88.1215 71.3294 87.3168 70.791 86.6621 70.0869" stroke="#2E2E2E" stroke-width="0.5" stroke-linecap="round" stroke-linejoin="round"/>
<path d="M101.652 70.7636C100.533 68.6375 98.5419 67.0222 96.2642 66.3733" stroke="#2E2E2E" stroke-width="0.5" stroke-linecap="round" stroke-linejoin="round"/>
<path d="M113.476 73.6076C113.79 72.9449 114.131 72.3098 114.458 71.6609C114.84 70.9982 115.277 70.3494 115.822 69.7971C116.872 68.6513 118.291 67.8643 119.777 67.3949C121.291 66.9945 122.901 66.9255 124.428 67.3397C125.192 67.5192 125.915 67.8505 126.611 68.1957C127.224 68.5684 127.865 68.9136 128.479 69.2863L128.07 69.2173C128.07 69.2173 128.261 69.2173 128.425 69.1206C128.602 69.0378 128.779 68.9273 128.943 68.8169C129.297 68.5822 129.638 68.3061 129.938 68.0162C130.061 67.8919 130.252 67.8919 130.361 68.0162C130.457 68.1128 130.47 68.2647 130.402 68.3751C130.157 68.8031 129.898 69.1758 129.584 69.5486C129.434 69.7281 129.27 69.9214 129.079 70.1009C128.875 70.2666 128.697 70.4736 128.234 70.5979C128.124 70.6255 128.015 70.5979 127.92 70.5703L127.824 70.5289C127.17 70.2389 126.515 69.9214 125.874 69.6177C125.274 69.3415 124.674 69.093 124.033 68.955C122.764 68.6374 121.441 68.6512 120.159 68.955C118.891 69.2449 117.663 69.8523 116.654 70.7221C116.122 71.1363 115.699 71.6609 115.277 72.1994C114.84 72.7792 114.417 73.3729 113.967 73.9389C113.858 74.0632 113.681 74.0908 113.544 73.9804C113.435 73.8975 113.408 73.7318 113.463 73.6076H113.476Z" fill="#2E2E2E"/>
<path d="M118.086 70.7222C117.991 69.3278 119.041 68.1129 120.418 68.03C121.796 67.9334 122.996 68.9964 123.078 70.3908C123.173 71.7852 122.123 73.0002 120.746 73.083C119.368 73.1797 118.168 72.1166 118.086 70.7222Z" fill="#2E2E2E"/>
<path d="M125.888 71.661C126.774 71.3297 127.579 70.7913 128.234 70.0872" stroke="#2E2E2E" stroke-width="0.5" stroke-linecap="round" stroke-linejoin="round"/>
<path d="M113.245 70.7636C114.363 68.6375 116.354 67.0222 118.632 66.3733" stroke="#2E2E2E" stroke-width="0.5" stroke-linecap="round" stroke-linejoin="round"/>
<path d="M108.621 86.7782C109.303 86.4745 109.903 85.9913 110.353 85.3838" stroke="#2E2E2E" stroke-width="0.5" stroke-linecap="round" stroke-linejoin="round"/>
<path d="M106.275 86.7782C105.593 86.4745 104.993 85.9913 104.543 85.3838" stroke="#2E2E2E" stroke-width="0.5" stroke-linecap="round" stroke-linejoin="round"/>
<path d="M107.462 73.842V83.023" stroke="#2E2E2E" stroke-width="0.5" stroke-linecap="round" stroke-linejoin="round"/>
<path d="M115.672 95.1032C113.886 96.2491 111.526 96.3871 109.562 95.4759C108.253 96.0558 106.712 96.042 105.402 95.4621C103.452 96.3457 101.079 96.2352 99.2783 95.1308C100.192 95.1584 101.365 94.3715 102.02 93.8606L102.32 93.6259C103.043 93.0323 103.793 92.411 104.734 92.1073C105.648 91.8312 106.875 91.9692 107.571 92.7285C108.253 91.9692 109.48 91.8312 110.394 92.1073C111.335 92.411 112.085 93.0323 112.808 93.6259L113.108 93.8606C113.763 94.3715 114.772 95.0894 115.672 95.1032Z" fill="#2E2E2E" stroke="#2E2E2E" stroke-width="0.58" stroke-linecap="round" stroke-linejoin="round"/>
<path d="M99.2777 95.1309H99.2373H99.2777Z" fill="#2E2E2E"/>
<path d="M99.2777 95.1309H99.2373" stroke="#2E2E2E" stroke-width="0.58" stroke-linecap="round" stroke-linejoin="round"/>
<path d="M115.672 95.1033H115.781H115.672Z" fill="#2E2E2E"/>
<path d="M115.672 95.1033H115.781" stroke="#2E2E2E" stroke-width="0.58" stroke-linecap="round" stroke-linejoin="round"/>
<path d="M116.941 94.0264C116.573 94.4544 116.136 94.8133 115.672 95.1032L116.941 94.0264Z" fill="#2E2E2E"/>
<path d="M116.941 94.0264C116.573 94.4544 116.136 94.8133 115.672 95.1032" stroke="#2E2E2E" stroke-width="0.58" stroke-linecap="round" stroke-linejoin="round"/>
<path d="M99.2783 95.1308C98.7873 94.8409 98.3372 94.4682 97.9553 94.0264L99.2783 95.1308Z" fill="#2E2E2E"/>
<path d="M99.2783 95.1308C98.7873 94.8409 98.3372 94.4682 97.9553 94.0264" stroke="#2E2E2E" stroke-width="0.58" stroke-linecap="round" stroke-linejoin="round"/>
<path d="M103.097 98.8584C106.057 99.5625 109.167 99.6453 112.154 99.0793" stroke="#2E2E2E" stroke-width="0.5" stroke-linecap="round" stroke-linejoin="round"/>
<path d="M116.368 77.7907V77.6113C116.368 77.6113 116.368 77.5146 116.341 77.4732C116.327 77.4318 116.3 77.3903 116.273 77.3627C116.245 77.3351 116.204 77.3075 116.163 77.2937C116.122 77.2661 116.082 77.2661 116.027 77.2661H115.932C115.932 77.2661 115.822 77.3213 115.782 77.3627L115.727 77.4318C115.727 77.4318 115.686 77.5422 115.686 77.6113V77.7907C115.686 77.7907 115.686 77.8874 115.713 77.9288C115.727 77.9702 115.754 78.0116 115.782 78.0392C115.809 78.0669 115.85 78.0945 115.891 78.1083C115.932 78.1359 115.972 78.1359 116.027 78.1359H116.122C116.122 78.1359 116.232 78.0807 116.273 78.0392L116.327 77.9702C116.327 77.9702 116.368 77.8597 116.368 77.7907Z" fill="#2E2E2E"/>
<path d="M122.547 78.84C122.983 78.84 122.983 78.1497 122.547 78.1497C122.11 78.1497 122.11 78.84 122.547 78.84Z" fill="#2E2E2E"/>
<path d="M119.805 80.0548C120.242 80.0548 120.242 79.3645 119.805 79.3645C119.369 79.3645 119.369 80.0548 119.805 80.0548Z" fill="#2E2E2E"/>
<path d="M120.487 77.1005C120.923 77.1005 120.923 76.4102 120.487 76.4102C120.051 76.4102 120.051 77.1005 120.487 77.1005Z" fill="#2E2E2E"/>
<path d="M127.525 77.266C127.961 77.266 127.961 76.5757 127.525 76.5757C127.088 76.5757 127.088 77.266 127.525 77.266Z" fill="#2E2E2E"/>
<path d="M124.783 76.3964C125.219 76.3964 125.219 75.7061 124.783 75.7061C124.346 75.7061 124.346 76.3964 124.783 76.3964Z" fill="#2E2E2E"/>
<path d="M125.301 79.1852C125.738 79.1852 125.738 78.4949 125.301 78.4949C124.865 78.4949 124.865 79.1852 125.301 79.1852Z" fill="#2E2E2E"/>
<path d="M114.145 80.7451V80.5656C114.145 80.5656 114.145 80.469 114.118 80.4275C114.104 80.3861 114.077 80.3447 114.049 80.3171C114.022 80.2895 113.981 80.2619 113.94 80.2481C113.899 80.2204 113.858 80.2205 113.804 80.2205H113.708C113.708 80.2205 113.599 80.2757 113.558 80.3171L113.504 80.3861C113.504 80.3861 113.463 80.4966 113.463 80.5656V80.7451C113.463 80.7451 113.463 80.8417 113.49 80.8832C113.504 80.9246 113.531 80.966 113.558 80.9936C113.586 81.0212 113.627 81.0488 113.668 81.0626C113.708 81.0903 113.749 81.0902 113.804 81.0902H113.899C113.899 81.0902 114.008 81.035 114.049 80.9936L114.104 80.9246C114.104 80.9246 114.145 80.8141 114.145 80.7451Z" fill="#2E2E2E"/>
<path d="M113.967 77.8044H113.79C113.79 77.8044 113.694 77.8044 113.654 77.832C113.613 77.8458 113.572 77.8735 113.544 77.9011C113.517 77.9287 113.49 77.9701 113.476 78.0115C113.449 78.0529 113.449 78.0944 113.449 78.1496V78.2462C113.449 78.2462 113.504 78.3567 113.544 78.3981L113.613 78.4533C113.613 78.4533 113.722 78.4947 113.79 78.4947H113.967C113.967 78.4947 114.063 78.4948 114.104 78.4671C114.145 78.4533 114.185 78.4257 114.213 78.3981C114.24 78.3705 114.267 78.3291 114.281 78.2877C114.308 78.2462 114.308 78.2048 114.308 78.1496V78.0529C114.308 78.0529 114.254 77.9425 114.213 77.9011L114.145 77.8459C114.145 77.8459 114.035 77.8044 113.967 77.8044Z" fill="#2E2E2E"/>
<path d="M129.08 76.2306C129.516 76.2306 129.516 75.5403 129.08 75.5403C128.643 75.5403 128.643 76.2306 129.08 76.2306Z" fill="#2E2E2E"/>
<path d="M111.567 82.1396V81.9601C111.567 81.9601 111.567 81.8635 111.54 81.8221C111.526 81.7807 111.499 81.7393 111.472 81.7116C111.444 81.684 111.404 81.6564 111.363 81.6426C111.322 81.615 111.281 81.615 111.226 81.615H111.131C111.131 81.615 111.022 81.6702 110.981 81.7116L110.926 81.7807C110.926 81.7807 110.885 81.8911 110.885 81.9601V82.1396C110.885 82.1396 110.885 82.2362 110.913 82.2777C110.926 82.3191 110.953 82.3605 110.981 82.3881C111.008 82.4157 111.049 82.4433 111.09 82.4571C111.131 82.4847 111.172 82.4848 111.226 82.4848H111.322C111.322 82.4848 111.431 82.4295 111.472 82.3881L111.526 82.3191C111.526 82.3191 111.567 82.2087 111.567 82.1396Z" fill="#2E2E2E"/>
<path d="M102.81 77.9701C103.247 77.9701 103.247 77.2798 102.81 77.2798C102.374 77.2798 102.374 77.9701 102.81 77.9701Z" fill="#2E2E2E"/>
<path d="M103.492 80.5795C103.929 80.5795 103.929 79.8892 103.492 79.8892C103.056 79.8892 103.056 80.5795 103.492 80.5795Z" fill="#2E2E2E"/>
<path d="M100.069 77.4457C100.505 77.4457 100.505 76.7554 100.069 76.7554C99.6326 76.7554 99.6326 77.4457 100.069 77.4457Z" fill="#2E2E2E"/>
<path d="M96.4687 76.921C96.9051 76.921 96.9051 76.2307 96.4687 76.2307C96.0322 76.2307 96.0322 76.921 96.4687 76.921Z" fill="#2E2E2E"/>
<path d="M99.3737 79.3507C99.8102 79.3507 99.8102 78.6604 99.3737 78.6604C98.9373 78.6604 98.9373 79.3507 99.3737 79.3507Z" fill="#2E2E2E"/>
<path d="M93.5497 77.266C93.9862 77.266 93.9862 76.5757 93.5497 76.5757C93.1133 76.5757 93.1133 77.266 93.5497 77.266Z" fill="#2E2E2E"/>
<path d="M88.3945 77.4457C88.8309 77.4457 88.8309 76.7554 88.3945 76.7554C87.958 76.7554 87.958 77.4457 88.3945 77.4457Z" fill="#2E2E2E"/>
<path d="M85.8166 75.7059C86.253 75.7059 86.253 75.0156 85.8166 75.0156C85.3801 75.0156 85.3801 75.7059 85.8166 75.7059Z" fill="#2E2E2E"/>
<path d="M90.2763 77.1005C90.7128 77.1005 90.7128 76.4102 90.2763 76.4102C89.8399 76.4102 89.8399 77.1005 90.2763 77.1005Z" fill="#2E2E2E"/>
<path d="M95.9501 78.84C96.3866 78.84 96.3866 78.1497 95.9501 78.1497C95.5137 78.1497 95.5137 78.84 95.9501 78.84Z" fill="#2E2E2E"/>
<path d="M91.8313 78.1497H91.654C91.654 78.1497 91.5585 78.1496 91.5176 78.1773C91.4766 78.1911 91.4357 78.2187 91.4085 78.2463C91.3812 78.2739 91.3539 78.3153 91.3403 78.3567C91.313 78.3982 91.313 78.4396 91.313 78.4948V78.5915C91.313 78.5915 91.3676 78.7019 91.4085 78.7433L91.4766 78.7985C91.4766 78.7985 91.5858 78.84 91.654 78.84H91.8313C91.8313 78.84 91.9268 78.84 91.9677 78.8124C92.0086 78.7986 92.0495 78.7709 92.0768 78.7433C92.104 78.7157 92.1313 78.6743 92.145 78.6329C92.1723 78.5915 92.1723 78.55 92.1723 78.4948V78.3982C92.1723 78.3982 92.1177 78.2877 92.0768 78.2463L92.0086 78.1911C92.0086 78.1911 91.8995 78.1497 91.8313 78.1497Z" fill="#2E2E2E"/>
<path d="M86.1577 78.3153C86.5941 78.3153 86.5941 77.625 86.1577 77.625C85.7212 77.625 85.7212 78.3153 86.1577 78.3153Z" fill="#2E2E2E"/>
<path d="M89.0764 79.8754C89.5128 79.8754 89.5128 79.1851 89.0764 79.1851C88.6399 79.1851 88.6399 79.8754 89.0764 79.8754Z" fill="#2E2E2E"/>
<path d="M93.7136 81.2699C94.15 81.2699 94.15 80.5796 93.7136 80.5796C93.2771 80.5796 93.2771 81.2699 93.7136 81.2699Z" fill="#2E2E2E"/>
<path d="M128.752 41.1082C130.239 42.5716 131.534 44.2559 132.694 46.0231C133.798 47.8317 134.767 49.7369 135.544 51.725C136.335 53.713 136.908 55.7701 137.399 57.841C137.849 59.9257 138.149 62.038 138.367 64.1503C138.517 66.2765 138.599 68.4026 138.545 70.5149C138.449 72.641 138.326 74.7395 138.026 76.838C137.495 81.0212 136.594 85.1216 135.367 89.1254C135.476 84.9283 135.776 80.7727 135.899 76.6586C136.022 72.5306 136.008 68.444 135.64 64.3988C135.312 60.3399 134.603 56.3362 133.526 52.4153C132.939 50.4686 132.298 48.5358 131.507 46.6581C130.716 44.7667 129.761 42.9444 128.752 41.1082Z" fill="#2E2E2E"/>
<path d="M89.0626 32.0513C86.4166 35.9998 84.4253 40.2106 83.0478 44.6285C81.7112 49.0464 80.8383 53.6162 80.4564 58.2412C80.0063 62.8524 80.0336 67.5326 80.1291 72.2267C80.2518 76.9345 80.5109 81.6562 80.4836 86.433C79.3789 81.7942 78.5196 77.1278 78.0013 72.3785C77.4694 67.6293 77.3194 62.811 77.7422 57.9927C78.1923 53.1882 79.2152 48.3975 81.0565 43.8968C82.8705 39.4098 85.5574 35.2405 89.0626 32.0513Z" fill="#2E2E2E"/>
<path d="M122.41 28.8897C113.272 23.2292 99.4694 23.3121 90.6722 29.4971C82.2297 35.4199 79.0654 45.8572 76.3376 55.8804C77.3878 55.8804 80.9749 55.8804 85.9395 55.8804C86.0213 55.5904 86.1441 55.3005 86.3078 54.9692C87.999 51.6005 89.7039 48.2456 91.3951 44.877C89.7311 48.1766 89.4175 51.9595 88.7355 55.5214C88.7082 55.6457 88.681 55.7561 88.6537 55.8666C90.3313 55.8666 92.1179 55.8666 93.9865 55.8666C95.7459 55.8666 100.601 45.6778 100.601 45.6778C100.601 45.6778 104.789 55.9218 107.489 55.9494C109.344 55.9632 111.199 55.9908 113.027 56.0184C111.84 53.3953 110.667 50.7722 109.48 48.1352C111.376 50.7722 113.272 53.4091 115.168 56.046C117.309 56.0874 119.41 56.1289 121.401 56.1703C121.319 55.9356 121.224 55.7147 121.128 55.4938C119.519 51.8766 117.937 48.2457 116.341 44.6285C119.3 48.508 122.26 52.4013 125.22 56.2807C130.648 56.4602 135.081 56.7087 137.481 57.0539C138.9 46.3128 131.548 34.5225 122.41 28.8759V28.8897Z" fill="#2E2E2E"/>
<path d="M99.4011 40.5833C98.7328 46.1195 100.615 51.9179 104.42 55.9631" stroke="#2E2E2E" stroke-linecap="round" stroke-linejoin="round"/>
<path d="M55.3202 170.65C65.904 175.482 75.5604 176.973 76.897 173.977C78.2336 170.981 70.7322 164.644 60.162 159.812C49.5781 154.98 39.9217 153.489 38.5851 156.485C37.2485 159.48 44.7499 165.817 55.3202 170.65Z" fill="#2E2E2E"/>
<path d="M22 221C22.0409 220.862 22.0955 220.738 22.1364 220.6L36.8938 177.925L40.1126 168.62L46.6047 149.844C48.6642 143.866 53.0423 139.503 58.0478 137.722C59.6709 137.143 61.3621 136.839 63.0533 136.839C64.6082 136.839 66.163 137.101 67.6906 137.64C76.3922 140.732 80.293 151.777 76.1877 161.703L67.7315 182.081L64.6627 189.467L62.1668 195.487L51.5693 221" fill="#F5F5FF"/>
<path d="M22 221C22.0409 220.862 22.0955 220.738 22.1364 220.6L36.8938 177.925L40.1126 168.62L46.6047 149.844C48.6642 143.866 53.0423 139.503 58.0478 137.722C59.6709 137.143 61.3621 136.839 63.0533 136.839C64.6082 136.839 66.163 137.101 67.6906 137.64C76.3922 140.732 80.293 151.777 76.1877 161.703L67.7315 182.081L64.6627 189.467L62.1668 195.487L51.5693 221" stroke="#2E2E2E" stroke-width="0.5" stroke-linecap="round" stroke-linejoin="round"/>
<path d="M83.13 159.163L76.8425 174.101C74.0601 170.36 67.1588 165.528 58.4844 161.565C50.8465 158.086 43.6316 156.084 38.8579 155.905L47.2595 141.588C49.7827 136.576 53.9835 132.89 58.7844 131.068C66.3131 135.5 74.4556 138.896 82.8982 141.146C85.4077 146.517 85.6941 153.075 83.13 159.163Z" fill="#2E2E2E"/>
<path d="M154.68 170.65C144.096 175.482 134.44 176.973 133.103 173.977C131.767 170.981 139.268 164.644 149.838 159.812C160.422 154.98 170.078 153.489 171.415 156.485C172.752 159.48 165.25 165.817 154.68 170.65Z" fill="#2E2E2E"/>
<path d="M188 221C187.959 220.862 187.905 220.738 187.864 220.6L173.106 177.925L169.888 168.62L163.395 149.844C161.336 143.866 156.958 139.503 151.952 137.722C150.329 137.143 148.638 136.839 146.947 136.839C145.392 136.839 143.837 137.101 142.31 137.64C133.608 140.732 129.707 151.777 133.813 161.703L142.269 182.081L145.337 189.467L147.833 195.487L158.431 221" fill="#F5F5FF"/>
<path d="M188 221C187.959 220.862 187.905 220.738 187.864 220.6L173.106 177.925L169.888 168.62L163.395 149.844C161.336 143.866 156.958 139.503 151.952 137.722C150.329 137.143 148.638 136.839 146.947 136.839C145.392 136.839 143.837 137.101 142.31 137.64C133.608 140.732 129.707 151.777 133.813 161.703L142.269 182.081L145.337 189.467L147.833 195.487L158.431 221" stroke="#2E2E2E" stroke-width="0.5" stroke-linecap="round" stroke-linejoin="round"/>
<path d="M126.87 159.163L133.158 174.101C135.94 170.36 142.842 165.528 151.516 161.565C159.154 158.086 166.369 156.084 171.142 155.905L162.741 141.588C160.218 136.576 156.017 132.89 151.216 131.068C143.687 135.5 135.545 138.896 127.102 141.146C124.593 146.517 124.306 153.075 126.87 159.163Z" fill="#2E2E2E"/>
<path d="M153.875 132.504C141.532 139.269 127.757 143.355 113.749 144.253C95.8278 145.398 77.6334 141.326 61.7986 132.766C63.408 131.427 65.3856 130.46 67.7179 129.95C68.8908 129.701 70.1729 129.563 71.5504 129.563H144.846C146.21 129.563 147.465 129.701 148.611 129.95C150.725 130.419 152.47 131.289 153.875 132.504Z" fill="#F5F5FF"/>
<path d="M157.571 155.118L154.08 172.016C154.775 173.563 155.321 175.192 155.689 176.89C156.071 178.657 156.276 180.479 156.276 182.357C156.276 184.594 155.989 186.775 155.43 188.846C154.966 190.641 154.312 192.353 153.48 193.954C152.116 196.605 150.316 198.993 148.147 200.995L144.042 221H70.1593L66.054 200.429C64.5673 198.966 63.258 197.295 62.1668 195.487C60.8711 193.333 59.8755 190.972 59.2617 188.459C58.7844 186.513 58.5252 184.469 58.5252 182.357C58.5252 180.245 58.798 178.132 59.289 176.144C59.6027 174.888 59.9983 173.673 60.4756 172.5L57.0113 155.118C55.5247 148.712 55.8111 142.444 58.0479 137.722C58.9617 135.776 60.2028 134.105 61.7986 132.766C77.6335 141.326 95.8278 145.398 113.749 144.253C127.757 143.355 141.532 139.269 153.875 132.504C155.389 133.801 156.521 135.486 157.299 137.432C159.222 142.195 159.085 148.588 157.571 155.118Z" fill="#2E2E2E"/>
<path d="M157.572 155.104C157.053 157.934 156.59 160.778 156.031 163.595C155.499 166.425 154.967 169.241 154.38 172.058V171.864C155.458 174.294 156.181 176.89 156.467 179.554C156.74 182.219 156.59 184.911 156.044 187.52C155.512 190.13 154.489 192.629 153.166 194.921C151.83 197.212 150.098 199.242 148.147 200.981C150.016 199.145 151.584 197.019 152.825 194.727C154.08 192.435 154.939 189.95 155.458 187.396C156.467 182.288 155.88 176.876 153.794 172.113C153.766 172.058 153.766 171.989 153.78 171.92C154.367 169.103 154.994 166.301 155.621 163.484C156.221 160.668 156.917 157.879 157.558 155.076L157.572 155.104Z" fill="white"/>
<path d="M66.0541 200.429C64.2402 198.703 62.6308 196.729 61.4032 194.506C60.1757 192.297 59.2483 189.895 58.7436 187.396C58.239 184.897 58.089 182.316 58.3345 179.775C58.5663 177.235 59.221 174.736 60.203 172.375V172.555C59.0437 166.756 58.0072 160.93 57.0251 155.104C58.3481 160.861 59.6302 166.646 60.7895 172.431C60.7895 172.5 60.7895 172.555 60.7759 172.61C58.9073 177.221 58.3754 182.371 59.3165 187.258C59.7938 189.702 60.5849 192.09 61.7442 194.299C62.8899 196.508 64.3356 198.593 66.0678 200.401L66.0541 200.429Z" fill="white"/>
</svg>
