<svg width="209" height="284" viewBox="0 0 209 284" fill="none" xmlns="http://www.w3.org/2000/svg">
<rect width="209" height="284" rx="20" fill="#F6F5F3"/>
<path d="M68.2979 250V235.455H70.9329V242.138H71.1104L76.7852 235.455H80.0025L74.3775 241.982L80.0522 250H76.8846L72.5451 243.764L70.9329 245.668V250H68.2979ZM82.7209 250L79.6385 239.091H82.2592L84.1768 246.761H84.2763L86.2365 239.091H88.8288L90.7891 246.719H90.8956L92.7848 239.091H95.4126L92.3232 250H89.6456L87.6001 242.628H87.451L85.4055 250H82.7209ZM100.347 250.22C99.6557 250.22 99.033 250.097 98.479 249.851C97.9298 249.6 97.4942 249.231 97.1722 248.743C96.855 248.255 96.6964 247.654 96.6964 246.939C96.6964 246.323 96.81 245.814 97.0373 245.412C97.2646 245.009 97.5747 244.688 97.9677 244.446C98.3607 244.205 98.8034 244.022 99.2958 243.899C99.793 243.771 100.307 243.679 100.837 243.622C101.476 243.556 101.995 243.497 102.392 243.445C102.79 243.388 103.079 243.303 103.259 243.189C103.444 243.071 103.536 242.888 103.536 242.642V242.599C103.536 242.064 103.377 241.65 103.06 241.357C102.743 241.063 102.286 240.916 101.689 240.916C101.06 240.916 100.56 241.054 100.191 241.328C99.8261 241.603 99.5799 241.927 99.4521 242.301L97.0515 241.96C97.2409 241.297 97.5534 240.743 97.989 240.298C98.4246 239.848 98.9573 239.512 99.587 239.29C100.217 239.062 100.913 238.949 101.675 238.949C102.201 238.949 102.724 239.01 103.245 239.134C103.766 239.257 104.241 239.46 104.672 239.744C105.103 240.024 105.449 240.405 105.709 240.888C105.974 241.371 106.107 241.974 106.107 242.699V250H103.635V248.501H103.55C103.394 248.804 103.174 249.089 102.89 249.354C102.61 249.614 102.257 249.825 101.831 249.986C101.41 250.142 100.915 250.22 100.347 250.22ZM101.015 248.331C101.531 248.331 101.978 248.229 102.357 248.026C102.736 247.817 103.027 247.543 103.23 247.202C103.439 246.861 103.543 246.489 103.543 246.087V244.801C103.462 244.867 103.325 244.929 103.131 244.986C102.942 245.043 102.729 245.092 102.492 245.135C102.255 245.178 102.021 245.215 101.789 245.249C101.557 245.282 101.355 245.31 101.185 245.334C100.801 245.386 100.458 245.471 100.155 245.589C99.8522 245.708 99.613 245.874 99.4379 246.087C99.2627 246.295 99.1751 246.565 99.1751 246.896C99.1751 247.37 99.3479 247.727 99.6935 247.969C100.039 248.21 100.48 248.331 101.015 248.331ZM108.692 250V239.091H111.15V240.945H111.277C111.505 240.32 111.881 239.832 112.407 239.482C112.932 239.126 113.56 238.949 114.289 238.949C115.027 238.949 115.65 239.129 116.157 239.489C116.668 239.844 117.028 240.329 117.236 240.945H117.35C117.591 240.339 117.998 239.856 118.571 239.496C119.149 239.131 119.833 238.949 120.624 238.949C121.628 238.949 122.447 239.266 123.081 239.901C123.716 240.535 124.033 241.461 124.033 242.678V250H121.455V243.075C121.455 242.398 121.275 241.903 120.915 241.591C120.555 241.274 120.115 241.115 119.594 241.115C118.974 241.115 118.489 241.309 118.138 241.697C117.792 242.081 117.62 242.58 117.62 243.196V250H115.098V242.969C115.098 242.405 114.928 241.955 114.587 241.619C114.251 241.283 113.81 241.115 113.266 241.115C112.897 241.115 112.56 241.21 112.257 241.399C111.954 241.584 111.713 241.847 111.533 242.188C111.353 242.524 111.263 242.917 111.263 243.366V250H108.692ZM131.471 250.213C130.377 250.213 129.433 249.986 128.637 249.531C127.846 249.072 127.238 248.423 126.812 247.585C126.386 246.742 126.173 245.75 126.173 244.609C126.173 243.487 126.386 242.502 126.812 241.655C127.243 240.803 127.844 240.14 128.616 239.666C129.388 239.188 130.294 238.949 131.336 238.949C132.008 238.949 132.643 239.058 133.239 239.276C133.841 239.489 134.371 239.82 134.83 240.27C135.294 240.72 135.659 241.293 135.924 241.989C136.189 242.68 136.322 243.504 136.322 244.46V245.249H127.38V243.516H133.857C133.853 243.023 133.746 242.585 133.538 242.202C133.329 241.813 133.038 241.508 132.664 241.286C132.295 241.063 131.864 240.952 131.371 240.952C130.846 240.952 130.384 241.08 129.987 241.335C129.589 241.586 129.279 241.918 129.056 242.33C128.838 242.737 128.727 243.184 128.722 243.672V245.185C128.722 245.819 128.838 246.364 129.07 246.818C129.302 247.268 129.627 247.614 130.043 247.855C130.46 248.092 130.948 248.21 131.506 248.21C131.88 248.21 132.219 248.158 132.522 248.054C132.825 247.945 133.088 247.786 133.31 247.578C133.533 247.37 133.701 247.112 133.815 246.804L136.215 247.074C136.064 247.708 135.775 248.262 135.349 248.736C134.927 249.205 134.388 249.569 133.729 249.83C133.071 250.085 132.318 250.213 131.471 250.213Z" fill="#101828"/>
<path d="M35.7641 272H34.5638L38.0354 262.545H39.2172L42.6888 272H41.4885L38.6633 264.041H38.5894L35.7641 272ZM36.2073 268.307H41.0454V269.322H36.2073V268.307ZM46.876 274.807C46.3497 274.807 45.8973 274.739 45.5187 274.604C45.1402 274.471 44.8247 274.296 44.5724 274.077C44.3231 273.862 44.1246 273.631 43.9768 273.385L44.8447 272.776C44.9432 272.905 45.0679 273.053 45.2187 273.219C45.3695 273.388 45.5757 273.534 45.8373 273.657C46.1019 273.783 46.4482 273.847 46.876 273.847C47.4484 273.847 47.9208 273.708 48.2932 273.431C48.6656 273.154 48.8518 272.72 48.8518 272.129V270.689H48.7595C48.6795 270.818 48.5656 270.978 48.4179 271.169C48.2732 271.357 48.064 271.525 47.79 271.672C47.5192 271.817 47.153 271.889 46.6913 271.889C46.1189 271.889 45.6049 271.754 45.1494 271.483C44.697 271.212 44.3385 270.818 44.0738 270.301C43.8122 269.784 43.6814 269.156 43.6814 268.418C43.6814 267.691 43.8091 267.059 44.0645 266.52C44.32 265.979 44.6755 265.56 45.1309 265.265C45.5864 264.966 46.1127 264.817 46.7098 264.817C47.1714 264.817 47.5377 264.894 47.8085 265.048C48.0824 265.198 48.2917 265.371 48.4363 265.565C48.5841 265.755 48.6979 265.912 48.778 266.036H48.8888V264.909H49.9413V272.203C49.9413 272.812 49.8028 273.308 49.5258 273.69C49.2519 274.074 48.8826 274.356 48.4179 274.534C47.9562 274.716 47.4423 274.807 46.876 274.807ZM46.839 270.911C47.2761 270.911 47.6454 270.81 47.947 270.61C48.2486 270.41 48.4779 270.123 48.6349 269.747C48.7918 269.372 48.8703 268.922 48.8703 268.399C48.8703 267.888 48.7934 267.437 48.6395 267.047C48.4856 266.656 48.2578 266.349 47.9562 266.128C47.6546 265.906 47.2822 265.795 46.839 265.795C46.3774 265.795 45.9927 265.912 45.6849 266.146C45.3802 266.38 45.151 266.694 44.9971 267.088C44.8463 267.482 44.7709 267.919 44.7709 268.399C44.7709 268.892 44.8478 269.327 45.0017 269.706C45.1586 270.081 45.3895 270.377 45.6942 270.592C46.0019 270.804 46.3836 270.911 46.839 270.911ZM54.9086 272.148C54.2254 272.148 53.636 271.997 53.1405 271.695C52.6481 271.391 52.268 270.966 52.0003 270.421C51.7356 269.873 51.6032 269.236 51.6032 268.51C51.6032 267.784 51.7356 267.143 52.0003 266.589C52.268 266.032 52.6404 265.598 53.1175 265.288C53.5976 264.974 54.1577 264.817 54.7979 264.817C55.1672 264.817 55.5319 264.878 55.892 265.001C56.252 265.125 56.5798 265.325 56.8753 265.602C57.1707 265.875 57.4062 266.239 57.5816 266.691C57.757 267.143 57.8447 267.701 57.8447 268.362V268.824H52.3788V267.882H56.7368C56.7368 267.482 56.6568 267.125 56.4967 266.811C56.3398 266.497 56.1151 266.249 55.8227 266.068C55.5334 265.886 55.1918 265.795 54.7979 265.795C54.3639 265.795 53.9884 265.903 53.6714 266.119C53.3575 266.331 53.1159 266.608 52.9466 266.95C52.7774 267.291 52.6927 267.657 52.6927 268.048V268.676C52.6927 269.212 52.7851 269.666 52.9697 270.038C53.1575 270.407 53.4175 270.689 53.7499 270.883C54.0823 271.074 54.4685 271.169 54.9086 271.169C55.1949 271.169 55.4534 271.129 55.6842 271.049C55.9181 270.966 56.1197 270.843 56.289 270.68C56.4582 270.513 56.589 270.307 56.6814 270.061L57.7339 270.357C57.6231 270.714 57.4369 271.027 57.1753 271.298C56.9137 271.566 56.5906 271.775 56.2059 271.926C55.8212 272.074 55.3888 272.148 54.9086 272.148ZM60.2961 272.074C60.0683 272.074 59.8729 271.992 59.7098 271.829C59.5467 271.666 59.4651 271.471 59.4651 271.243C59.4651 271.015 59.5467 270.82 59.7098 270.657C59.8729 270.493 60.0683 270.412 60.2961 270.412C60.5238 270.412 60.7193 270.493 60.8824 270.657C61.0455 270.82 61.127 271.015 61.127 271.243C61.127 271.394 61.0886 271.532 61.0116 271.658C60.9378 271.785 60.8377 271.886 60.7116 271.963C60.5885 272.037 60.45 272.074 60.2961 272.074ZM60.2961 266.811C60.0683 266.811 59.8729 266.73 59.7098 266.566C59.5467 266.403 59.4651 266.208 59.4651 265.98C59.4651 265.752 59.5467 265.557 59.7098 265.394C59.8729 265.231 60.0683 265.149 60.2961 265.149C60.5238 265.149 60.7193 265.231 60.8824 265.394C61.0455 265.557 61.127 265.752 61.127 265.98C61.127 266.131 61.0886 266.269 61.0116 266.396C60.9378 266.522 60.8377 266.623 60.7116 266.7C60.5885 266.774 60.45 266.811 60.2961 266.811ZM69.8591 272.129C69.4713 272.123 69.0835 272.049 68.6958 271.908C68.308 271.766 67.954 271.528 67.634 271.192C67.3139 270.854 67.0569 270.397 66.863 269.821C66.6691 269.242 66.5722 268.516 66.5722 267.642C66.5722 266.805 66.6507 266.063 66.8076 265.417C66.9646 264.768 67.1923 264.221 67.4909 263.778C67.7894 263.332 68.1495 262.993 68.5711 262.762C68.9958 262.532 69.4744 262.416 70.0068 262.416C70.5362 262.416 71.0071 262.522 71.4195 262.735C71.835 262.944 72.1735 263.236 72.4351 263.612C72.6967 263.987 72.866 264.42 72.9429 264.909H71.8165C71.7119 264.484 71.5087 264.132 71.2071 263.852C70.9055 263.572 70.5054 263.432 70.0068 263.432C69.2744 263.432 68.6973 263.75 68.2757 264.387C67.8571 265.025 67.6463 265.919 67.6432 267.07H67.7171C67.8894 266.808 68.0941 266.585 68.3311 266.4C68.5711 266.212 68.8358 266.068 69.1251 265.966C69.4144 265.865 69.7206 265.814 70.0438 265.814C70.5854 265.814 71.0809 265.949 71.5303 266.22C71.9796 266.488 72.3397 266.859 72.6105 267.333C72.8814 267.804 73.0168 268.344 73.0168 268.953C73.0168 269.538 72.886 270.073 72.6244 270.56C72.3628 271.043 71.995 271.428 71.521 271.714C71.0502 271.997 70.4962 272.135 69.8591 272.129ZM69.8591 271.114C70.2469 271.114 70.5947 271.017 70.9024 270.823C71.2133 270.629 71.4579 270.369 71.6365 270.043C71.818 269.716 71.9088 269.353 71.9088 268.953C71.9088 268.562 71.8211 268.207 71.6457 267.887C71.4733 267.564 71.2348 267.307 70.9301 267.116C70.6285 266.925 70.2838 266.83 69.896 266.83C69.6037 266.83 69.3313 266.888 69.0789 267.005C68.8266 267.119 68.605 267.276 68.4142 267.476C68.2264 267.676 68.0787 267.905 67.971 268.164C67.8633 268.419 67.8094 268.688 67.8094 268.972C67.8094 269.347 67.8971 269.698 68.0725 270.024C68.251 270.35 68.4942 270.614 68.8019 270.814C69.1128 271.014 69.4652 271.114 69.8591 271.114ZM74.8322 272V271.169L77.9529 267.753C78.3192 267.353 78.6208 267.005 78.8578 266.71C79.0948 266.411 79.2702 266.131 79.3841 265.869C79.501 265.605 79.5595 265.328 79.5595 265.038C79.5595 264.706 79.4795 264.418 79.3194 264.175C79.1625 263.932 78.947 263.744 78.6731 263.612C78.3992 263.48 78.0914 263.413 77.7498 263.413C77.3867 263.413 77.0697 263.489 76.7988 263.64C76.5311 263.787 76.3233 263.995 76.1756 264.263C76.031 264.531 75.9586 264.844 75.9586 265.205H74.8691C74.8691 264.651 74.9969 264.164 75.2523 263.746C75.5078 263.327 75.8555 263.001 76.2956 262.767C76.7388 262.533 77.2359 262.416 77.7868 262.416C78.3407 262.416 78.8316 262.533 79.2594 262.767C79.6872 263.001 80.0227 263.316 80.2658 263.713C80.5089 264.11 80.6305 264.552 80.6305 265.038C80.6305 265.386 80.5674 265.726 80.4412 266.059C80.3181 266.388 80.1027 266.756 79.7949 267.162C79.4902 267.565 79.0671 268.058 78.5254 268.639L76.4018 270.911V270.984H80.7967V272H74.8322ZM88.003 270.707L87.9292 271.206C87.8768 271.557 87.7968 271.932 87.6891 272.332C87.5845 272.732 87.4752 273.109 87.3613 273.463C87.2475 273.817 87.1536 274.099 87.0797 274.308H86.2488C86.2888 274.111 86.3411 273.851 86.4057 273.528C86.4703 273.205 86.535 272.843 86.5996 272.443C86.6673 272.046 86.7227 271.64 86.7658 271.224L86.8212 270.707H88.003ZM100.289 265.5C100.187 265.189 100.053 264.911 99.887 264.664C99.7239 264.415 99.5284 264.203 99.3007 264.027C99.076 263.852 98.8206 263.718 98.5344 263.626C98.2481 263.533 97.9342 263.487 97.5926 263.487C97.0325 263.487 96.5231 263.632 96.0645 263.921C95.606 264.21 95.2413 264.637 94.9704 265.2C94.6996 265.763 94.5642 266.454 94.5642 267.273C94.5642 268.091 94.7011 268.782 94.9751 269.346C95.249 269.909 95.6198 270.335 96.0876 270.624C96.5554 270.914 97.0817 271.058 97.6665 271.058C98.2081 271.058 98.6852 270.943 99.0976 270.712C99.5131 270.478 99.8362 270.149 100.067 269.724C100.301 269.296 100.418 268.793 100.418 268.214L100.769 268.288H97.925V267.273H101.526V268.288C101.526 269.067 101.36 269.744 101.027 270.32C100.698 270.895 100.242 271.341 99.6608 271.658C99.0822 271.972 98.4174 272.129 97.6665 272.129C96.8293 272.129 96.0938 271.932 95.4598 271.538C94.8289 271.144 94.3364 270.584 93.9825 269.858C93.6317 269.132 93.4562 268.27 93.4562 267.273C93.4562 266.525 93.5563 265.852 93.7563 265.255C93.9594 264.655 94.2456 264.144 94.615 263.723C94.9843 263.301 95.4213 262.978 95.926 262.753C96.4308 262.529 96.9863 262.416 97.5926 262.416C98.0912 262.416 98.5559 262.492 98.9868 262.642C99.4207 262.79 99.807 263.001 100.146 263.275C100.487 263.546 100.772 263.87 101 264.249C101.227 264.624 101.384 265.041 101.47 265.5H100.289ZM106.312 272.148C105.629 272.148 105.039 271.997 104.544 271.695C104.051 271.391 103.671 270.966 103.404 270.421C103.139 269.873 103.007 269.236 103.007 268.51C103.007 267.784 103.139 267.143 103.404 266.589C103.671 266.032 104.044 265.598 104.521 265.288C105.001 264.974 105.561 264.817 106.201 264.817C106.57 264.817 106.935 264.878 107.295 265.001C107.655 265.125 107.983 265.325 108.279 265.602C108.574 265.875 108.809 266.239 108.985 266.691C109.16 267.143 109.248 267.701 109.248 268.362V268.824H103.782V267.882H108.14C108.14 267.482 108.06 267.125 107.9 266.811C107.743 266.497 107.518 266.249 107.226 266.068C106.937 265.886 106.595 265.795 106.201 265.795C105.767 265.795 105.392 265.903 105.075 266.119C104.761 266.331 104.519 266.608 104.35 266.95C104.181 267.291 104.096 267.657 104.096 268.048V268.676C104.096 269.212 104.188 269.666 104.373 270.038C104.561 270.407 104.821 270.689 105.153 270.883C105.486 271.074 105.872 271.169 106.312 271.169C106.598 271.169 106.857 271.129 107.088 271.049C107.321 270.966 107.523 270.843 107.692 270.68C107.862 270.513 107.992 270.307 108.085 270.061L109.137 270.357C109.026 270.714 108.84 271.027 108.579 271.298C108.317 271.566 107.994 271.775 107.609 271.926C107.224 272.074 106.792 272.148 106.312 272.148ZM111.995 267.734V272H110.905V264.909H111.958V266.017H112.05C112.216 265.657 112.469 265.368 112.807 265.149C113.146 264.928 113.583 264.817 114.118 264.817C114.599 264.817 115.019 264.915 115.379 265.112C115.739 265.306 116.019 265.602 116.219 265.999C116.419 266.393 116.519 266.891 116.519 267.494V272H115.43V267.568C115.43 267.011 115.285 266.577 114.996 266.266C114.706 265.952 114.309 265.795 113.805 265.795C113.457 265.795 113.146 265.871 112.872 266.022C112.601 266.172 112.387 266.393 112.23 266.682C112.073 266.971 111.995 267.322 111.995 267.734ZM121.187 272.148C120.597 272.148 120.075 271.998 119.622 271.7C119.17 271.398 118.816 270.974 118.561 270.426C118.305 269.875 118.177 269.224 118.177 268.473C118.177 267.728 118.305 267.082 118.561 266.534C118.816 265.986 119.172 265.563 119.627 265.265C120.083 264.966 120.609 264.817 121.206 264.817C121.668 264.817 122.032 264.894 122.3 265.048C122.571 265.198 122.777 265.371 122.919 265.565C123.063 265.755 123.176 265.912 123.256 266.036H123.348V262.545H124.437V272H123.385V270.911H123.256C123.176 271.04 123.062 271.203 122.914 271.4C122.766 271.594 122.555 271.768 122.282 271.922C122.008 272.072 121.643 272.148 121.187 272.148ZM121.335 271.169C121.772 271.169 122.141 271.055 122.443 270.827C122.745 270.597 122.974 270.278 123.131 269.872C123.288 269.462 123.366 268.99 123.366 268.455C123.366 267.925 123.289 267.462 123.136 267.065C122.982 266.665 122.754 266.354 122.452 266.132C122.151 265.908 121.778 265.795 121.335 265.795C120.873 265.795 120.489 265.914 120.181 266.151C119.876 266.385 119.647 266.703 119.493 267.107C119.342 267.507 119.267 267.956 119.267 268.455C119.267 268.959 119.344 269.418 119.498 269.83C119.655 270.24 119.886 270.566 120.19 270.809C120.498 271.049 120.88 271.169 121.335 271.169ZM129.557 272.148C128.874 272.148 128.284 271.997 127.789 271.695C127.297 271.391 126.916 270.966 126.649 270.421C126.384 269.873 126.252 269.236 126.252 268.51C126.252 267.784 126.384 267.143 126.649 266.589C126.916 266.032 127.289 265.598 127.766 265.288C128.246 264.974 128.806 264.817 129.446 264.817C129.816 264.817 130.18 264.878 130.54 265.001C130.9 265.125 131.228 265.325 131.524 265.602C131.819 265.875 132.055 266.239 132.23 266.691C132.405 267.143 132.493 267.701 132.493 268.362V268.824H127.027V267.882H131.385C131.385 267.482 131.305 267.125 131.145 266.811C130.988 266.497 130.764 266.249 130.471 266.068C130.182 265.886 129.84 265.795 129.446 265.795C129.012 265.795 128.637 265.903 128.32 266.119C128.006 266.331 127.764 266.608 127.595 266.95C127.426 267.291 127.341 267.657 127.341 268.048V268.676C127.341 269.212 127.434 269.666 127.618 270.038C127.806 270.407 128.066 270.689 128.398 270.883C128.731 271.074 129.117 271.169 129.557 271.169C129.843 271.169 130.102 271.129 130.333 271.049C130.567 270.966 130.768 270.843 130.937 270.68C131.107 270.513 131.237 270.307 131.33 270.061L132.382 270.357C132.272 270.714 132.085 271.027 131.824 271.298C131.562 271.566 131.239 271.775 130.854 271.926C130.47 272.074 130.037 272.148 129.557 272.148ZM134.15 272V264.909H135.203V265.98H135.277C135.406 265.629 135.64 265.345 135.979 265.126C136.317 264.908 136.699 264.798 137.123 264.798C137.204 264.798 137.304 264.8 137.424 264.803C137.544 264.806 137.634 264.811 137.696 264.817V265.925C137.659 265.915 137.574 265.902 137.442 265.883C137.313 265.862 137.176 265.851 137.031 265.851C136.686 265.851 136.379 265.923 136.108 266.068C135.84 266.209 135.628 266.406 135.471 266.659C135.317 266.908 135.24 267.193 135.24 267.513V272H134.15ZM139.781 272.074C139.554 272.074 139.358 271.992 139.195 271.829C139.032 271.666 138.95 271.471 138.95 271.243C138.95 271.015 139.032 270.82 139.195 270.657C139.358 270.493 139.554 270.412 139.781 270.412C140.009 270.412 140.205 270.493 140.368 270.657C140.531 270.82 140.612 271.015 140.612 271.243C140.612 271.394 140.574 271.532 140.497 271.658C140.423 271.785 140.323 271.886 140.197 271.963C140.074 272.037 139.935 272.074 139.781 272.074ZM139.781 266.811C139.554 266.811 139.358 266.73 139.195 266.566C139.032 266.403 138.95 266.208 138.95 265.98C138.95 265.752 139.032 265.557 139.195 265.394C139.358 265.231 139.554 265.149 139.781 265.149C140.009 265.149 140.205 265.231 140.368 265.394C140.531 265.557 140.612 265.752 140.612 265.98C140.612 266.131 140.574 266.269 140.497 266.396C140.423 266.522 140.323 266.623 140.197 266.7C140.074 266.774 139.935 266.811 139.781 266.811ZM146.371 262.545H147.738L150.951 270.393H151.062L154.275 262.545H155.641V272H154.57V264.817H154.478L151.523 272H150.489L147.535 264.817H147.442V272H146.371V262.545ZM159.876 272.166C159.426 272.166 159.019 272.082 158.652 271.912C158.286 271.74 157.995 271.492 157.78 271.169C157.564 270.843 157.457 270.449 157.457 269.987C157.457 269.581 157.537 269.252 157.697 268.999C157.857 268.744 158.071 268.544 158.339 268.399C158.606 268.254 158.902 268.147 159.225 268.076C159.551 268.002 159.879 267.944 160.208 267.901C160.639 267.845 160.988 267.804 161.256 267.776C161.527 267.745 161.724 267.694 161.847 267.624C161.973 267.553 162.036 267.43 162.036 267.254V267.217C162.036 266.762 161.912 266.408 161.662 266.156C161.416 265.903 161.042 265.777 160.541 265.777C160.02 265.777 159.613 265.891 159.317 266.119C159.022 266.346 158.814 266.589 158.694 266.848L157.66 266.479C157.845 266.048 158.091 265.712 158.399 265.472C158.709 265.229 159.048 265.06 159.414 264.964C159.783 264.866 160.147 264.817 160.504 264.817C160.731 264.817 160.993 264.844 161.288 264.9C161.587 264.952 161.875 265.061 162.152 265.228C162.432 265.394 162.664 265.645 162.849 265.98C163.033 266.316 163.126 266.765 163.126 267.328V272H162.036V271.04H161.981C161.907 271.194 161.784 271.358 161.612 271.534C161.439 271.709 161.21 271.858 160.924 271.982C160.638 272.105 160.288 272.166 159.876 272.166ZM160.042 271.188C160.473 271.188 160.836 271.103 161.131 270.934C161.43 270.764 161.655 270.546 161.805 270.278C161.959 270.01 162.036 269.729 162.036 269.433V268.436C161.99 268.491 161.889 268.542 161.732 268.588C161.578 268.632 161.399 268.67 161.196 268.704C160.996 268.735 160.801 268.762 160.61 268.787C160.422 268.808 160.27 268.827 160.153 268.842C159.87 268.879 159.605 268.939 159.359 269.022C159.116 269.102 158.919 269.224 158.768 269.387C158.62 269.547 158.546 269.766 158.546 270.043C158.546 270.421 158.686 270.707 158.966 270.901C159.249 271.092 159.608 271.188 160.042 271.188ZM166.204 262.545V272H165.114V262.545H166.204ZM171.172 272.148C170.489 272.148 169.9 271.997 169.404 271.695C168.912 271.391 168.532 270.966 168.264 270.421C167.999 269.873 167.867 269.236 167.867 268.51C167.867 267.784 167.999 267.143 168.264 266.589C168.532 266.032 168.904 265.598 169.381 265.288C169.861 264.974 170.421 264.817 171.062 264.817C171.431 264.817 171.796 264.878 172.156 265.001C172.516 265.125 172.843 265.325 173.139 265.602C173.434 265.875 173.67 266.239 173.845 266.691C174.021 267.143 174.108 267.701 174.108 268.362V268.824H168.642V267.882H173C173 267.482 172.92 267.125 172.76 266.811C172.603 266.497 172.379 266.249 172.086 266.068C171.797 265.886 171.455 265.795 171.062 265.795C170.628 265.795 170.252 265.903 169.935 266.119C169.621 266.331 169.38 266.608 169.21 266.95C169.041 267.291 168.956 267.657 168.956 268.048V268.676C168.956 269.212 169.049 269.666 169.233 270.038C169.421 270.407 169.681 270.689 170.014 270.883C170.346 271.074 170.732 271.169 171.172 271.169C171.459 271.169 171.717 271.129 171.948 271.049C172.182 270.966 172.383 270.843 172.553 270.68C172.722 270.513 172.853 270.307 172.945 270.061L173.998 270.357C173.887 270.714 173.701 271.027 173.439 271.298C173.177 271.566 172.854 271.775 172.47 271.926C172.085 272.074 171.652 272.148 171.172 272.148Z" fill="#644A41"/>
<path d="M108 170C152.183 170 188 134.183 188 90C188 45.8172 152.183 10 108 10C63.8172 10 28 45.8172 28 90C28 134.183 63.8172 170 108 170Z" fill="#FFCE33"/>
<path d="M117.826 95H96.0112C89.5959 95 84.1365 89.12 83.1575 81.1575L81.1534 64.7915C79.9441 54.9058 86.0369 46 94.0072 46H119.991C128.03 46 134.135 55.0528 132.822 64.9998L130.645 81.3657C129.597 89.2303 124.172 95 117.814 95H117.826Z" fill="#9B9B9B"/>
<path d="M126.23 80.3782C123.343 84.9358 123.618 90.3264 126.855 92.4336C130.092 94.5286 135.067 92.5439 137.954 87.9864C140.841 83.4288 140.566 78.0382 137.329 75.931C134.092 73.8237 129.117 75.8207 126.23 80.3782Z" fill="#F5F5FF" stroke="#2E2E2E" stroke-width="0.5" stroke-linecap="round" stroke-linejoin="round"/>
<path d="M134.892 78.124C136.292 78.6631 137.354 79.9617 137.592 81.4197C137.817 82.8776 137.204 84.4335 136.029 85.3524" stroke="#2E2E2E" stroke-width="0.5" stroke-linecap="round" stroke-linejoin="round"/>
<path d="M87.17 80.3782C90.0572 84.9358 89.7823 90.3264 86.545 92.4336C83.3078 94.5286 78.3331 92.5439 75.4458 87.9864C72.5585 83.4288 72.8335 78.0382 76.0708 75.931C79.308 73.8237 84.2827 75.8207 87.17 80.3782Z" fill="#F5F5FF" stroke="#2E2E2E" stroke-width="0.5" stroke-linecap="round" stroke-linejoin="round"/>
<path d="M78.5087 78.124C77.1087 78.6631 76.0462 79.9617 75.8087 81.4197C75.5837 82.8776 76.1962 84.4335 77.3712 85.3524" stroke="#2E2E2E" stroke-width="0.5" stroke-linecap="round" stroke-linejoin="round"/>
<path d="M122.792 135.363C123.067 143.596 116.355 150.395 107.956 150.395C99.5562 150.395 93.1067 143.853 93.1067 135.853C93.1067 135.693 93.1067 135.522 93.1192 135.363L94.769 113.665L95.194 108.177L96.019 97.3955H119.892L121.205 114.437L122.142 126.836L122.804 135.363H122.792Z" fill="#F5F5FF" stroke="#2E2E2E" stroke-width="0.56" stroke-linecap="round" stroke-linejoin="round"/>
<path d="M122.142 126.823C114.305 127.375 105.669 123.552 99.744 116.128C97.7442 113.641 96.2193 110.933 95.1943 108.177L96.0193 97.3955H119.893L121.205 114.437L122.142 126.836V126.823Z" fill="#2E2E2E"/>
<path d="M133.592 87.4441C133.592 93.7128 130.967 99.7015 126.305 104.035L119.205 110.243C117.056 112.531 114.006 113.833 110.819 113.833H104.207C101.044 113.833 98.032 112.555 95.8697 110.316L88.6202 104.047C83.8831 99.7136 81.1958 93.6641 81.1958 87.3346L81.3083 85.4236L81.9582 74.4565L82.4457 66.3255C82.4457 52.8145 93.6074 41.8474 107.369 41.8474C114.268 41.8474 120.493 44.5861 125.005 49.0168C129.517 53.4353 132.317 59.5578 132.317 66.3255L132.867 75.5763L133.404 84.7054L133.567 87.4441H133.592Z" fill="#F5F5FF" stroke="#2E2E2E" stroke-width="0.5" stroke-linecap="round" stroke-linejoin="round"/>
<path d="M132.879 75.5763H132.104C128.455 70.3545 126.092 64.2806 125.317 58.012C124.83 54.1047 119.118 52.778 115.093 53.2162C113.281 55.8819 110.093 57.6225 106.794 57.7198C103.506 57.8172 100.269 55.6749 98.2943 53.1066C94.2821 52.6806 88.545 53.9952 88.0576 57.9024C87.3326 63.7694 85.2328 69.4659 81.958 74.4565L82.4455 66.3255C82.4455 52.8145 93.6072 41.8474 107.369 41.8474C114.268 41.8474 120.493 44.5861 125.005 49.0168C129.517 53.4353 132.317 59.5578 132.317 66.3255L132.867 75.5763H132.879Z" fill="#9B9B9B"/>
<path d="M133.591 87.444L133.429 84.7053C131.479 87.2128 129.092 90.2923 127.392 92.106C124.955 94.7108 120.755 94.9908 116.58 94.8934C115.493 94.869 114.055 94.3822 112.606 93.737C108.981 92.1303 104.469 92.1303 100.831 93.737C99.394 94.3822 97.9317 94.869 96.8442 94.8934C92.6695 94.9908 88.4698 94.7108 86.045 92.106C84.5701 90.5236 82.8203 87.8822 81.3454 85.4235L81.2329 87.3345C81.2329 88.4178 81.3329 89.4768 81.4954 90.5358C81.4454 90.4506 81.3954 90.3775 81.3454 90.2923L81.2329 92.2033C81.2329 98.5328 83.9077 104.57 88.6574 108.916L95.9068 115.184C98.0691 117.424 101.069 118.702 104.244 118.702H110.856C114.043 118.702 117.093 117.4 119.243 115.111L126.342 108.903C130.992 104.582 133.629 98.5815 133.629 92.3129L133.492 89.9028C133.579 89.0873 133.629 88.2596 133.629 87.4319L133.591 87.444Z" fill="#9B9B9B"/>
<path d="M102.994 118.641C104.431 118.641 105.869 118.52 107.306 118.495C108.731 118.422 110.206 118.447 111.593 118.374C114.393 118.154 117.055 116.925 119.043 114.965H119.055V114.953C120.205 114.004 121.38 113.067 122.58 112.166C121.53 113.225 120.455 114.259 119.355 115.282H119.368C117.455 117.436 114.593 118.848 111.631 118.982C110.156 119.031 108.743 118.97 107.294 118.921C105.856 118.86 104.419 118.86 102.981 118.641H102.994Z" fill="#F5F5FF"/>
<path d="M119.043 99.7989C115.781 103.037 111.381 104.863 107.007 104.716C103.032 104.595 99.1321 102.842 96.1323 99.9571H96.8323C97.9197 99.9328 99.3821 99.3729 100.819 98.6426C104.457 96.8167 108.969 96.8167 112.594 98.6426C114.044 99.3729 115.481 99.9328 116.568 99.9571C117.393 99.9815 118.218 99.9328 119.031 99.7867L119.043 99.7989Z" fill="#F5F5FF"/>
<path d="M107.007 103.207C108.394 103.767 109.107 104.327 109.632 104.887C110.119 105.447 110.357 106.007 110.357 106.567C110.357 107.126 110.132 107.686 109.644 108.246C109.132 108.806 108.407 109.366 107.019 109.926C105.632 109.366 104.907 108.806 104.394 108.246C103.907 107.686 103.669 107.126 103.682 106.567C103.682 106.007 103.919 105.447 104.407 104.887C104.919 104.327 105.644 103.767 107.032 103.207H107.007Z" fill="#9B9B9B"/>
<path d="M112.868 71.0917C114.031 70.4056 115.305 69.94 116.643 69.5848C117.98 69.2417 119.405 69.0579 120.88 69.1069C122.342 69.156 123.867 69.4867 125.205 70.1728C126.542 70.8466 127.642 71.9125 128.229 73.1744C126.88 72.7334 125.667 72.5128 124.505 72.4761C123.342 72.4393 122.23 72.5864 121.105 72.7824C118.843 73.1744 116.555 73.9463 113.981 74.2525C113.018 74.3751 112.156 73.7012 112.031 72.7701C111.943 72.084 112.293 71.4225 112.868 71.0917Z" fill="#9B9B9B"/>
<path d="M100.794 74.2644C98.2188 73.9459 95.919 73.1863 93.6691 72.7942C92.5442 72.5982 91.4318 72.4512 90.2694 72.4879C89.107 72.5247 87.8946 72.7575 86.5447 73.1863C87.1321 71.9121 88.232 70.8585 89.5694 70.1847C90.9068 69.4986 92.4317 69.1678 93.8941 69.1188C95.369 69.0698 96.7939 69.2658 98.1313 69.5966C99.4687 69.9519 100.744 70.4174 101.906 71.1035C102.731 71.5936 103.006 72.635 102.506 73.4435C102.143 74.0439 101.456 74.3379 100.794 74.2644Z" fill="#9B9B9B"/>
<path d="M113.38 81.5789C113.743 81.0276 114.118 80.5008 114.505 79.974C114.943 79.4349 115.405 78.9081 115.967 78.4916C117.08 77.6217 118.455 77.0827 119.88 76.8744C121.305 76.7029 122.792 76.8499 124.117 77.4257C124.792 77.683 125.392 78.0873 125.955 78.4916C126.48 78.8836 127.005 79.2757 127.342 79.9127C127.417 80.0598 127.367 80.2435 127.217 80.317C127.155 80.3538 127.092 80.3538 127.03 80.3538C126.305 80.2435 125.755 79.8882 125.192 79.5329C124.667 79.2267 124.13 78.9571 123.567 78.7611C122.442 78.3568 121.242 78.222 120.042 78.3078C118.855 78.4303 117.667 78.7734 116.655 79.4349C116.117 79.729 115.668 80.1333 115.218 80.5498C114.755 81.0031 114.293 81.4687 113.805 81.9097C113.693 82.0077 113.518 82.0077 113.418 81.8975C113.33 81.7995 113.317 81.6647 113.392 81.5667L113.38 81.5789Z" fill="#2E2E2E"/>
<path d="M117.942 79.6188C118.029 78.3814 119.129 77.438 120.404 77.5361C121.667 77.6218 122.629 78.6999 122.529 79.9496C122.442 81.187 121.342 82.1303 120.067 82.0323C118.804 81.9466 117.842 80.8684 117.942 79.6188Z" fill="#2E2E2E"/>
<path d="M113.855 81.7749C114.967 82.3507 116.267 82.6325 117.605 82.5835" stroke="#2E2E2E" stroke-width="0.5" stroke-linecap="round" stroke-linejoin="round"/>
<path d="M113.53 79.0551C114.805 77.3276 116.817 76.1392 118.98 75.8452" stroke="#9B9B9B" stroke-width="0.5" stroke-linecap="round" stroke-linejoin="round"/>
<path d="M102.169 81.9219C101.682 81.4809 101.219 81.0153 100.757 80.562C100.307 80.1455 99.8442 79.7412 99.3192 79.4471C98.3067 78.7856 97.1067 78.4425 95.9317 78.32C94.7442 78.222 93.5317 78.369 92.4067 78.7733C91.8442 78.9571 91.3067 79.2389 90.7817 79.5452C90.2317 79.9004 89.6817 80.2557 88.9442 80.366C88.7817 80.3905 88.6192 80.2802 88.5942 80.1087C88.5942 80.0475 88.5942 79.9862 88.6317 79.9249C88.9692 79.2879 89.5068 78.8958 90.0192 78.5038C90.5817 78.0995 91.1942 77.6952 91.8567 77.4379C93.1692 76.8621 94.6692 76.7151 96.0942 76.8866C97.5192 77.0949 98.8942 77.6339 100.007 78.5038C100.569 78.9203 101.044 79.4594 101.469 79.9862C101.844 80.5253 102.232 81.0398 102.594 81.5911C102.682 81.7137 102.644 81.8852 102.507 81.9587C102.394 82.0322 102.257 82.0077 102.169 81.9342V81.9219Z" fill="#2E2E2E"/>
<path d="M98.0316 79.6188C97.9441 78.3814 96.8441 77.438 95.5692 77.5361C94.3067 77.6218 93.3442 78.6999 93.4442 79.9496C93.5317 81.187 94.6316 82.1303 95.9066 82.0323C97.1691 81.9466 98.1316 80.8684 98.0316 79.6188Z" fill="#2E2E2E"/>
<path d="M102.119 81.7749C101.006 82.3507 99.7061 82.6325 98.3687 82.5835" stroke="#2E2E2E" stroke-width="0.5" stroke-linecap="round" stroke-linejoin="round"/>
<path d="M102.444 79.0551C101.169 77.3276 99.1561 76.1392 96.9937 75.8452" stroke="#9B9B9B" stroke-width="0.5" stroke-linecap="round" stroke-linejoin="round"/>
<path d="M107.893 89.9834V79.0061" stroke="#2E2E2E" stroke-width="0.46" stroke-linecap="round" stroke-linejoin="round"/>
<path d="M104.006 91.8823L105.931 92.6787C107.156 93.181 108.543 93.181 109.768 92.6787L111.693 91.8823" stroke="#2E2E2E" stroke-width="0.46" stroke-linecap="round" stroke-linejoin="round"/>
<path d="M109.43 100.568C111.768 100.593 114.23 100.14 116.23 98.9634" stroke="#2E2E2E" stroke-width="0.42" stroke-linecap="round" stroke-linejoin="round"/>
<path d="M104.981 100.666C102.644 100.691 100.181 100.237 98.1814 99.0613" stroke="#2E2E2E" stroke-width="0.42" stroke-linecap="round" stroke-linejoin="round"/>
<path d="M104.981 100.666C106.043 101.463 108.018 101.659 109.443 100.568" stroke="#2E2E2E" stroke-width="0.42" stroke-linecap="round" stroke-linejoin="round"/>
<path d="M107.269 95.2881C107.781 94.2223 108.818 93.5852 109.843 93.3034C110.881 93.0216 111.931 93.0829 112.868 93.2544C114.818 93.6832 116.205 94.4428 117.243 94.8716L118.468 95.3862C118.793 95.5332 119.118 95.6557 119.668 95.6802C120.768 95.7659 122.38 95.2146 124.442 95.0309C124.242 97.3586 123.517 99.3679 121.73 100.961C120.855 101.745 119.605 102.271 118.343 102.369C117.08 102.48 115.918 102.161 114.955 101.745C113.031 100.875 111.793 99.5761 110.843 98.5348C110.343 97.9712 109.881 97.4321 109.368 96.8686C108.843 96.305 108.256 95.7537 107.269 95.2881Z" fill="#9B9B9B"/>
<path d="M107.281 95.2881C106.306 95.7537 105.719 96.2928 105.181 96.8686C104.656 97.4321 104.194 97.9835 103.706 98.5348C102.769 99.5761 101.519 100.875 99.5942 101.745C98.6443 102.161 97.4694 102.48 96.207 102.369C94.9446 102.284 93.6947 101.745 92.8197 100.961C91.0199 99.3679 90.3074 97.3586 90.1074 95.0309C92.1573 95.2146 93.7822 95.7659 94.8821 95.6802C95.432 95.6557 95.7695 95.5332 96.082 95.3862L97.3069 94.8716C98.3443 94.4428 99.7317 93.6832 101.682 93.2544C102.631 93.0829 103.669 93.0216 104.706 93.3034C105.731 93.5852 106.769 94.2223 107.281 95.2881Z" fill="#9B9B9B"/>
<path d="M164.977 192.956C153.578 197.992 143.179 199.548 141.741 196.424C140.304 193.3 148.378 186.684 159.765 181.636C171.164 176.601 181.563 175.045 183.001 178.169C184.438 181.293 176.364 187.909 164.977 192.956Z" fill="#2E2E2E"/>
<path d="M159.965 220.387L154.628 207.683L150.353 197.502L146.754 188.913L138.842 170.071C134.679 160.159 138.767 149.17 147.753 146.156C149.316 145.629 150.928 145.396 152.516 145.409C152.666 145.409 152.816 145.409 152.953 145.421C159.915 145.666 166.652 150.738 169.352 158.481L175.751 176.834L178.614 185.067L191 220.62" fill="#F5F5FF"/>
<path d="M159.965 220.387L154.628 207.683L150.353 197.502L146.754 188.913L138.842 170.071C134.679 160.159 138.767 149.17 147.753 146.156C149.316 145.629 150.928 145.396 152.516 145.409C152.666 145.409 152.816 145.409 152.953 145.421C159.915 145.666 166.652 150.738 169.352 158.481L175.751 176.834L178.614 185.067L191 220.62" stroke="#2E2E2E" stroke-width="0.54" stroke-linecap="round" stroke-linejoin="round"/>
<path d="M182.751 177.789C180.651 175.18 170.664 176.821 159.777 181.636C148.366 186.684 140.291 193.3 141.754 196.436C141.779 196.497 141.816 196.558 141.879 196.62L141.754 196.669L136.654 184.981C138.929 181.416 145.891 176.527 154.828 172.582C163.865 168.589 172.301 166.69 176.489 167.449L182.751 177.802V177.789Z" fill="#2E2E2E" stroke="#2E2E2E" stroke-width="0.5" stroke-linecap="round" stroke-linejoin="round"/>
<path d="M176.501 167.437C172.314 166.677 163.877 168.576 154.84 172.57C145.903 176.515 138.941 181.404 136.666 184.969L129.167 167.731C124.23 156.374 129.567 143.424 140.791 139.589C142.916 138.854 145.078 138.499 147.241 138.499C154.928 138.499 162.302 142.971 166.089 150.211L176.526 167.437H176.501Z" fill="#2E2E2E"/>
<path d="M50.0231 192.956C61.4222 197.992 71.8215 199.548 73.2589 196.424C74.6963 193.3 66.6218 186.684 55.2352 181.636C43.836 176.601 33.4368 175.045 31.9994 178.169C30.562 181.293 38.6365 187.909 50.0231 192.956Z" fill="#2E2E2E"/>
<path d="M55.0352 220.388L60.3723 207.683L64.6469 197.502L68.2467 188.914L76.1586 170.071C80.3208 160.16 76.2336 149.17 67.2468 146.156C65.6844 145.629 64.072 145.397 62.4846 145.409C62.3346 145.409 62.1847 145.409 62.0472 145.421C55.0852 145.666 48.3482 150.738 45.6484 158.481L39.2489 176.834L36.3866 185.067L24 220.62" fill="#F5F5FF"/>
<path d="M55.0352 220.388L60.3723 207.683L64.647 197.502L68.2467 188.914L76.1586 170.071C80.3208 160.16 76.2336 149.17 67.2468 146.156C65.6844 145.629 64.072 145.397 62.4846 145.409C62.3346 145.409 62.1847 145.409 62.0472 145.421C55.0852 145.666 48.3482 150.738 45.6484 158.481L39.2489 176.834L36.3866 185.067L24 220.62" stroke="#2E2E2E" stroke-width="0.54" stroke-linecap="round" stroke-linejoin="round"/>
<path d="M32.2493 177.789C34.3491 175.18 44.3359 176.821 55.2226 181.636C66.6342 186.684 74.7086 193.3 73.2462 196.436C73.2212 196.497 73.1837 196.558 73.1212 196.62L73.2462 196.669L78.3458 184.981C76.071 181.416 69.109 176.527 60.1722 172.582C51.1354 168.589 42.6985 166.69 38.5113 167.449L32.2493 177.802V177.789Z" fill="#2E2E2E" stroke="#2E2E2E" stroke-width="0.5" stroke-linecap="round" stroke-linejoin="round"/>
<path d="M38.5113 167.437C42.6985 166.677 51.1354 168.576 60.1722 172.57C69.109 176.515 76.071 181.404 78.3459 184.969L85.8453 167.731C90.7824 156.374 85.4453 143.424 74.2212 139.589C72.0963 138.854 69.934 138.499 67.7716 138.499C60.0847 138.499 52.7103 142.971 48.9231 150.211L38.4863 167.437H38.5113Z" fill="#2E2E2E"/>
<path d="M155.265 221H59.897L60.3844 207.303L60.7344 197.416L61.1719 185.287L62.5968 146.082L62.8092 140.251L65.884 139.16L83.7577 132.839L87.2199 131.614L88.9323 131.001L93.3945 128.649H94.7444H120.555H121.092L126.105 130.903L127.804 131.516L131.254 132.728L149.653 139.246L152.49 140.251L152.69 146.095L153.452 168.172L154.027 185.042L154.44 197.257V197.318L154.815 208.344L155.265 221Z" fill="#F5F5FF" stroke="#2E2E2E" stroke-width="0.54" stroke-linecap="round" stroke-linejoin="round"/>
<path d="M80.2403 190.924C74.5968 190.924 70.0247 185.962 70.0247 179.837V160.772H90.4434V179.837C90.4434 185.962 85.8713 190.924 80.2278 190.924H80.2403Z" fill="#F5F5FF" stroke="#2E2E2E" stroke-width="0.5" stroke-linecap="round" stroke-linejoin="round"/>
<path d="M70 166.018H90.4685" stroke="#2E2E2E" stroke-width="0.5" stroke-linecap="round" stroke-linejoin="round"/>
<path d="M134.503 190.924C128.859 190.924 124.287 185.962 124.287 179.837V160.772H144.706V179.837C144.706 185.962 140.134 190.924 134.49 190.924H134.503Z" fill="#F5F5FF" stroke="#2E2E2E" stroke-width="0.5" stroke-linecap="round" stroke-linejoin="round"/>
<path d="M124.263 166.018H144.731" stroke="#2E2E2E" stroke-width="0.5" stroke-linecap="round" stroke-linejoin="round"/>
<path d="M121.98 128.097L125.717 130.621L127.342 131.197C126.13 140.716 117.83 148.067 107.781 148.067C97.7318 148.067 89.4949 140.765 88.22 131.295L89.8823 130.707L93.8071 127.754" fill="#F5F5FF"/>
<path d="M121.98 128.097L125.717 130.621L127.342 131.197C126.13 140.716 117.83 148.067 107.781 148.067C97.7318 148.067 89.4949 140.765 88.22 131.295L89.8823 130.707L93.8071 127.754" stroke="#2E2E2E" stroke-width="0.52" stroke-linecap="round" stroke-linejoin="round"/>
<path d="M90.3874 88.3903C89.269 86.2642 87.2777 84.6489 85 84" stroke="#A7A7B0" stroke-width="0.5" stroke-linecap="round" stroke-linejoin="round"/>
<path d="M90 82.3869C91.9446 83.7975 94.4455 84.3634 96.7749 83.936" stroke="#A7A7B0" stroke-width="0.5" stroke-linecap="round" stroke-linejoin="round"/>
<path d="M89 89C88.1696 87.5472 86.6911 86.4434 85 86" stroke="#A7A7B0" stroke-width="0.5" stroke-linecap="round" stroke-linejoin="round"/>
<path d="M88 90C87.3772 89.0314 86.2684 88.2956 85 88" stroke="#A7A7B0" stroke-width="0.5" stroke-linecap="round" stroke-linejoin="round"/>
<path d="M125.387 88.3903C126.506 86.2642 128.497 84.6489 130.775 84" stroke="#A7A7B0" stroke-width="0.5" stroke-linecap="round" stroke-linejoin="round"/>
<path d="M125.775 82.3869C123.83 83.7975 121.329 84.3634 119 83.936" stroke="#A7A7B0" stroke-width="0.5" stroke-linecap="round" stroke-linejoin="round"/>
<path d="M126.775 89C127.605 87.5472 129.084 86.4434 130.775 86" stroke="#A7A7B0" stroke-width="0.5" stroke-linecap="round" stroke-linejoin="round"/>
<path d="M127.775 90C128.398 89.0314 129.507 88.2956 130.775 88" stroke="#A7A7B0" stroke-width="0.5" stroke-linecap="round" stroke-linejoin="round"/>
</svg>
