<svg width="209" height="284" viewBox="0 0 209 284" fill="none" xmlns="http://www.w3.org/2000/svg">
<rect width="209" height="284" rx="20" fill="#F6F5F3"/>
<path d="M99.2484 250H94.3194V235.455H99.3478C100.792 235.455 102.032 235.746 103.069 236.328C104.111 236.906 104.911 237.737 105.47 238.821C106.029 239.905 106.308 241.203 106.308 242.713C106.308 244.228 106.026 245.53 105.463 246.619C104.904 247.708 104.097 248.544 103.041 249.126C101.99 249.709 100.726 250 99.2484 250ZM96.9544 247.72H99.1206C100.134 247.72 100.979 247.536 101.656 247.166C102.333 246.792 102.842 246.236 103.183 245.497C103.524 244.754 103.694 243.826 103.694 242.713C103.694 241.6 103.524 240.677 103.183 239.943C102.842 239.205 102.338 238.653 101.67 238.288C101.007 237.919 100.184 237.734 99.1987 237.734H96.9544V247.72ZM108.698 250V239.091H111.269V250H108.698ZM109.991 237.543C109.583 237.543 109.233 237.408 108.939 237.138C108.646 236.863 108.499 236.534 108.499 236.151C108.499 235.762 108.646 235.433 108.939 235.163C109.233 234.889 109.583 234.751 109.991 234.751C110.403 234.751 110.753 234.889 111.042 235.163C111.335 235.433 111.482 235.762 111.482 236.151C111.482 236.534 111.335 236.863 111.042 237.138C110.753 237.408 110.403 237.543 109.991 237.543ZM118.742 250.213C117.649 250.213 116.704 249.986 115.909 249.531C115.118 249.072 114.509 248.423 114.083 247.585C113.657 246.742 113.444 245.75 113.444 244.609C113.444 243.487 113.657 242.502 114.083 241.655C114.514 240.803 115.115 240.14 115.887 239.666C116.659 239.188 117.566 238.949 118.607 238.949C119.28 238.949 119.914 239.058 120.511 239.276C121.112 239.489 121.642 239.82 122.102 240.27C122.566 240.72 122.93 241.293 123.195 241.989C123.461 242.68 123.593 243.504 123.593 244.46V245.249H114.651V243.516H121.129C121.124 243.023 121.017 242.585 120.809 242.202C120.601 241.813 120.31 241.508 119.936 241.286C119.566 241.063 119.135 240.952 118.643 240.952C118.117 240.952 117.656 241.08 117.258 241.335C116.86 241.586 116.55 241.918 116.328 242.33C116.11 242.737 115.999 243.184 115.994 243.672V245.185C115.994 245.819 116.11 246.364 116.342 246.818C116.574 247.268 116.898 247.614 117.315 247.855C117.731 248.092 118.219 248.21 118.778 248.21C119.152 248.21 119.49 248.158 119.794 248.054C120.097 247.945 120.359 247.786 120.582 247.578C120.804 247.37 120.972 247.112 121.086 246.804L123.487 247.074C123.335 247.708 123.046 248.262 122.62 248.736C122.199 249.205 121.659 249.569 121.001 249.83C120.343 250.085 119.59 250.213 118.742 250.213ZM130.513 254.318C129.589 254.318 128.796 254.193 128.133 253.942C127.47 253.696 126.938 253.364 126.535 252.947C126.133 252.531 125.854 252.069 125.697 251.562L128.013 251.001C128.117 251.214 128.268 251.425 128.467 251.634C128.666 251.847 128.934 252.022 129.27 252.159C129.611 252.301 130.039 252.372 130.555 252.372C131.284 252.372 131.888 252.195 132.366 251.839C132.845 251.489 133.084 250.911 133.084 250.107V248.04H132.956C132.823 248.305 132.629 248.577 132.373 248.857C132.122 249.136 131.789 249.37 131.372 249.56C130.96 249.749 130.442 249.844 129.817 249.844C128.979 249.844 128.219 249.647 127.537 249.254C126.86 248.857 126.32 248.265 125.917 247.479C125.52 246.688 125.321 245.698 125.321 244.51C125.321 243.312 125.52 242.301 125.917 241.477C126.32 240.649 126.862 240.021 127.544 239.595C128.226 239.164 128.986 238.949 129.824 238.949C130.463 238.949 130.988 239.058 131.4 239.276C131.817 239.489 132.148 239.747 132.395 240.05C132.641 240.348 132.828 240.63 132.956 240.895H133.098V239.091H135.633V250.178C135.633 251.11 135.411 251.882 134.966 252.493C134.521 253.104 133.912 253.561 133.14 253.864C132.369 254.167 131.493 254.318 130.513 254.318ZM130.534 247.827C131.078 247.827 131.542 247.694 131.926 247.429C132.309 247.164 132.601 246.783 132.8 246.286C132.998 245.788 133.098 245.192 133.098 244.496C133.098 243.809 132.998 243.208 132.8 242.692C132.605 242.176 132.317 241.776 131.933 241.491C131.554 241.203 131.088 241.058 130.534 241.058C129.961 241.058 129.483 241.207 129.099 241.506C128.716 241.804 128.427 242.214 128.233 242.734C128.039 243.25 127.942 243.838 127.942 244.496C127.942 245.163 128.039 245.748 128.233 246.25C128.432 246.747 128.723 247.135 129.106 247.415C129.495 247.689 129.97 247.827 130.534 247.827ZM143.027 250.213C141.961 250.213 141.038 249.979 140.257 249.51C139.476 249.041 138.87 248.385 138.439 247.543C138.013 246.7 137.8 245.715 137.8 244.588C137.8 243.461 138.013 242.474 138.439 241.626C138.87 240.779 139.476 240.121 140.257 239.652C141.038 239.183 141.961 238.949 143.027 238.949C144.092 238.949 145.015 239.183 145.797 239.652C146.578 240.121 147.182 240.779 147.608 241.626C148.039 242.474 148.254 243.461 148.254 244.588C148.254 245.715 148.039 246.7 147.608 247.543C147.182 248.385 146.578 249.041 145.797 249.51C145.015 249.979 144.092 250.213 143.027 250.213ZM143.041 248.153C143.619 248.153 144.102 247.995 144.49 247.678C144.878 247.356 145.167 246.925 145.356 246.385C145.55 245.845 145.648 245.244 145.648 244.581C145.648 243.913 145.55 243.31 145.356 242.77C145.167 242.225 144.878 241.792 144.49 241.47C144.102 241.148 143.619 240.987 143.041 240.987C142.449 240.987 141.957 241.148 141.564 241.47C141.175 241.792 140.884 242.225 140.69 242.77C140.501 243.31 140.406 243.913 140.406 244.581C140.406 245.244 140.501 245.845 140.69 246.385C140.884 246.925 141.175 247.356 141.564 247.678C141.957 247.995 142.449 248.153 143.041 248.153Z" fill="#101828"/>
<path d="M75.0354 248.044C74.6951 247.951 74.345 248.152 74.2521 248.491C73.4096 251.572 70.5877 253.724 67.3893 253.724C63.4669 253.724 60.2758 250.533 60.2758 246.611C60.2758 243.393 62.4445 240.566 65.5495 239.737C65.8898 239.646 66.0922 239.297 66.0013 238.957C65.9105 238.616 65.5607 238.413 65.2206 238.505C61.5579 239.482 59 242.815 59 246.611C59 251.236 62.7635 255 67.3893 255C71.1607 255 74.4889 252.462 75.4822 248.828C75.5753 248.488 75.3753 248.137 75.0354 248.044Z" fill="#101828"/>
<path d="M83.0447 251.177C82.887 250.862 82.504 250.735 82.1889 250.892L79.7377 252.118L76.7657 246.446C76.7604 246.436 76.753 246.427 76.7473 246.418C76.7359 246.398 76.7239 246.38 76.7101 246.362C76.6978 246.345 76.6851 246.33 76.6718 246.315C76.6578 246.299 76.6435 246.285 76.6277 246.271C76.6126 246.257 76.5973 246.244 76.5807 246.232C76.5639 246.219 76.5463 246.208 76.5282 246.197C76.5118 246.187 76.495 246.178 76.4779 246.169C76.458 246.16 76.4376 246.151 76.4164 246.144C76.3988 246.137 76.3807 246.132 76.3626 246.127C76.3414 246.121 76.3202 246.117 76.2983 246.114C76.2776 246.11 76.2569 246.108 76.236 246.107C76.224 246.107 76.2128 246.104 76.2006 246.104H67.8908V241.459H72.1018C72.4542 241.459 72.7397 241.173 72.7397 240.821C72.7397 240.468 72.4542 240.183 72.1018 240.183H67.8908V235.445C68.8321 235.169 69.522 234.298 69.522 233.269C69.522 232.018 68.5042 231 67.2529 231C66.0017 231 64.9839 232.018 64.9839 233.269C64.9839 234.299 65.6738 235.169 66.6151 235.445V246.742C66.6151 247.094 66.9006 247.38 67.2529 247.38H75.8148L78.898 253.264C78.9136 253.294 78.9353 253.317 78.9544 253.343C78.97 253.363 78.9819 253.387 78.9998 253.406C79.024 253.432 79.0529 253.451 79.0804 253.472C79.0991 253.486 79.1151 253.503 79.135 253.515C79.1687 253.535 79.2055 253.548 79.2419 253.561C79.2593 253.568 79.2751 253.578 79.293 253.583C79.3483 253.598 79.4055 253.607 79.4637 253.607C79.5124 253.607 79.5617 253.601 79.6104 253.589C79.6272 253.585 79.6436 253.576 79.6601 253.571C79.6897 253.561 79.7196 253.554 79.7484 253.539L82.7597 252.034C83.0746 251.875 83.2024 251.492 83.0447 251.177ZM66.2596 233.269C66.2596 232.721 66.7054 232.275 67.2529 232.275C67.8005 232.275 68.2462 232.721 68.2462 233.269C68.2462 233.817 67.8007 234.262 67.2529 234.262C66.7051 234.262 66.2596 233.817 66.2596 233.269Z" fill="#101828"/>
<path d="M42.9441 271H41.8361L45.0407 262.273H46.1316L49.3361 271H48.2282L45.6202 263.653H45.552L42.9441 271ZM43.3532 267.591H47.8191V268.528H43.3532V267.591ZM53.2012 273.591C52.7154 273.591 52.2978 273.528 51.9483 273.403C51.5989 273.281 51.3077 273.119 51.0748 272.918C50.8446 272.719 50.6614 272.506 50.525 272.278L51.3262 271.716C51.4171 271.835 51.5321 271.972 51.6713 272.125C51.8105 272.281 52.0009 272.416 52.2424 272.53C52.4867 272.646 52.8063 272.705 53.2012 272.705C53.7296 272.705 54.1657 272.577 54.5094 272.321C54.8532 272.065 55.025 271.665 55.025 271.119V269.79H54.9398C54.8659 269.909 54.7608 270.057 54.6245 270.233C54.4909 270.406 54.2978 270.561 54.0449 270.697C53.7949 270.831 53.4569 270.898 53.0307 270.898C52.5023 270.898 52.0279 270.773 51.6074 270.523C51.1898 270.273 50.8588 269.909 50.6145 269.432C50.373 268.955 50.2523 268.375 50.2523 267.693C50.2523 267.023 50.3702 266.439 50.606 265.942C50.8418 265.442 51.1699 265.055 51.5904 264.783C52.0108 264.507 52.4966 264.369 53.0478 264.369C53.4739 264.369 53.812 264.44 54.062 264.582C54.3148 264.722 54.508 264.881 54.6415 265.06C54.7779 265.236 54.883 265.381 54.9569 265.494H55.0591V264.455H56.0307V271.188C56.0307 271.75 55.9029 272.207 55.6472 272.56C55.3944 272.915 55.0534 273.175 54.6245 273.339C54.1983 273.507 53.7239 273.591 53.2012 273.591ZM53.1671 269.994C53.5705 269.994 53.9114 269.902 54.1898 269.717C54.4682 269.533 54.6799 269.267 54.8248 268.92C54.9696 268.574 55.0421 268.159 55.0421 267.676C55.0421 267.205 54.9711 266.788 54.829 266.428C54.687 266.067 54.4767 265.784 54.1983 265.58C53.9199 265.375 53.5762 265.273 53.1671 265.273C52.7409 265.273 52.3858 265.381 52.1017 265.597C51.8205 265.812 51.6088 266.102 51.4668 266.466C51.3276 266.83 51.258 267.233 51.258 267.676C51.258 268.131 51.329 268.533 51.4711 268.882C51.6159 269.229 51.829 269.501 52.1103 269.7C52.3944 269.896 52.7466 269.994 53.1671 269.994ZM60.6159 271.136C59.9853 271.136 59.4412 270.997 58.9838 270.719C58.5293 270.438 58.1784 270.045 57.9313 269.543C57.687 269.037 57.5648 268.449 57.5648 267.778C57.5648 267.108 57.687 266.517 57.9313 266.006C58.1784 265.491 58.5222 265.091 58.9625 264.804C59.4057 264.514 59.9228 264.369 60.5137 264.369C60.8546 264.369 61.1912 264.426 61.5236 264.54C61.856 264.653 62.1586 264.838 62.4313 265.094C62.704 265.347 62.9213 265.682 63.0833 266.099C63.2452 266.517 63.3262 267.031 63.3262 267.642V268.068H58.2807V267.199H62.3034C62.3034 266.83 62.2296 266.5 62.0819 266.21C61.937 265.92 61.7296 265.692 61.4597 265.524C61.1926 265.357 60.8773 265.273 60.5137 265.273C60.1131 265.273 59.7665 265.372 59.4739 265.571C59.1841 265.767 58.9611 266.023 58.8049 266.338C58.6486 266.653 58.5705 266.991 58.5705 267.352V267.932C58.5705 268.426 58.6557 268.845 58.8262 269.189C58.9995 269.53 59.2395 269.79 59.5463 269.969C59.8532 270.145 60.2097 270.233 60.6159 270.233C60.8801 270.233 61.1188 270.196 61.3319 270.122C61.5478 270.045 61.7338 269.932 61.8901 269.781C62.0463 269.628 62.1671 269.437 62.2523 269.21L63.2239 269.483C63.1216 269.812 62.9498 270.102 62.7083 270.352C62.4668 270.599 62.1685 270.793 61.8134 270.932C61.4583 271.068 61.0591 271.136 60.6159 271.136ZM65.589 271.068C65.3787 271.068 65.1983 270.993 65.0478 270.842C64.8972 270.692 64.8219 270.511 64.8219 270.301C64.8219 270.091 64.8972 269.911 65.0478 269.76C65.1983 269.609 65.3787 269.534 65.589 269.534C65.7992 269.534 65.9796 269.609 66.1301 269.76C66.2807 269.911 66.356 270.091 66.356 270.301C66.356 270.44 66.3205 270.568 66.2495 270.685C66.1813 270.801 66.089 270.895 65.9725 270.966C65.8588 271.034 65.731 271.068 65.589 271.068ZM65.589 266.21C65.3787 266.21 65.1983 266.135 65.0478 265.984C64.8972 265.834 64.8219 265.653 64.8219 265.443C64.8219 265.233 64.8972 265.053 65.0478 264.902C65.1983 264.751 65.3787 264.676 65.589 264.676C65.7992 264.676 65.9796 264.751 66.1301 264.902C66.2807 265.053 66.356 265.233 66.356 265.443C66.356 265.582 66.3205 265.71 66.2495 265.827C66.1813 265.943 66.089 266.037 65.9725 266.108C65.8588 266.176 65.731 266.21 65.589 266.21ZM71.5186 271V270.233L74.3993 267.08C74.7374 266.71 75.0158 266.389 75.2346 266.116C75.4533 265.841 75.6152 265.582 75.7203 265.341C75.8283 265.097 75.8823 264.841 75.8823 264.574C75.8823 264.267 75.8084 264.001 75.6607 263.777C75.5158 263.553 75.3169 263.379 75.0641 263.257C74.8113 263.135 74.5272 263.074 74.2118 263.074C73.8766 263.074 73.584 263.143 73.334 263.283C73.0868 263.419 72.8951 263.611 72.7587 263.858C72.6252 264.105 72.5584 264.395 72.5584 264.727H71.5527C71.5527 264.216 71.6706 263.767 71.9064 263.381C72.1422 262.994 72.4632 262.693 72.8695 262.477C73.2786 262.261 73.7374 262.153 74.2459 262.153C74.7573 262.153 75.2104 262.261 75.6053 262.477C76.0002 262.693 76.3098 262.984 76.5343 263.351C76.7587 263.717 76.8709 264.125 76.8709 264.574C76.8709 264.895 76.8127 265.209 76.6962 265.516C76.5826 265.82 76.3837 266.159 76.0996 266.534C75.8184 266.906 75.4277 267.361 74.9277 267.898L72.9675 269.994V270.062H77.0243V271H71.5186ZM81.682 271.119C81.324 271.114 80.9661 271.045 80.6081 270.915C80.2502 270.784 79.9235 270.564 79.628 270.254C79.3326 269.942 79.0953 269.52 78.9164 268.989C78.7374 268.455 78.6479 267.784 78.6479 266.977C78.6479 266.205 78.7203 265.52 78.8652 264.923C79.0101 264.324 79.2203 263.82 79.4959 263.411C79.7715 262.999 80.1039 262.686 80.4931 262.473C80.8851 262.26 81.3269 262.153 81.8184 262.153C82.307 262.153 82.7417 262.251 83.1223 262.447C83.5059 262.641 83.8184 262.911 84.0598 263.257C84.3013 263.604 84.4576 264.003 84.5286 264.455H83.4888C83.3922 264.062 83.2047 263.737 82.9263 263.479C82.6479 263.22 82.2786 263.091 81.8184 263.091C81.1422 263.091 80.6096 263.385 80.2203 263.973C79.834 264.561 79.6394 265.386 79.6365 266.449H79.7047C79.8638 266.207 80.0527 266.001 80.2715 265.831C80.4931 265.658 80.7374 265.524 81.0044 265.43C81.2715 265.337 81.5542 265.29 81.8525 265.29C82.3525 265.29 82.8098 265.415 83.2246 265.665C83.6394 265.912 83.9718 266.254 84.2218 266.692C84.4718 267.126 84.5968 267.625 84.5968 268.188C84.5968 268.727 84.476 269.222 84.2346 269.67C83.9931 270.116 83.6536 270.472 83.2161 270.736C82.7814 270.997 82.2701 271.125 81.682 271.119ZM81.682 270.182C82.04 270.182 82.361 270.092 82.6451 269.913C82.932 269.734 83.1578 269.494 83.3226 269.193C83.4902 268.892 83.574 268.557 83.574 268.188C83.574 267.827 83.4931 267.499 83.3311 267.203C83.1721 266.905 82.9519 266.668 82.6706 266.491C82.3922 266.315 82.074 266.227 81.7161 266.227C81.4462 266.227 81.1948 266.281 80.9618 266.389C80.7289 266.494 80.5243 266.639 80.3482 266.824C80.1749 267.009 80.0385 267.22 79.9391 267.459C79.8397 267.695 79.79 267.943 79.79 268.205C79.79 268.551 79.8709 268.875 80.0328 269.176C80.1976 269.477 80.4221 269.72 80.7061 269.905C80.9931 270.089 81.3184 270.182 81.682 270.182ZM87.3794 269.807L87.3113 270.267C87.263 270.591 87.1891 270.938 87.0897 271.307C86.9931 271.676 86.8922 272.024 86.7871 272.351C86.682 272.678 86.5953 272.938 86.5272 273.131H85.7601C85.7971 272.949 85.8453 272.709 85.905 272.411C85.9647 272.112 86.0243 271.778 86.084 271.409C86.1465 271.043 86.1976 270.668 86.2374 270.284L86.2885 269.807H87.3794ZM98.72 265C98.6262 264.713 98.5027 264.456 98.3493 264.229C98.1987 263.999 98.0183 263.803 97.8081 263.641C97.6007 263.479 97.3649 263.355 97.1007 263.27C96.8365 263.185 96.5467 263.142 96.2314 263.142C95.7143 263.142 95.2441 263.276 94.8208 263.543C94.3975 263.81 94.0609 264.203 93.8109 264.723C93.5609 265.243 93.4359 265.881 93.4359 266.636C93.4359 267.392 93.5623 268.03 93.8152 268.55C94.068 269.07 94.4103 269.463 94.8422 269.73C95.274 269.997 95.7598 270.131 96.2995 270.131C96.7995 270.131 97.2399 270.024 97.6206 269.811C98.0041 269.595 98.3024 269.291 98.5154 268.899C98.7314 268.504 98.8393 268.04 98.8393 267.506L99.1632 267.574H96.5382V266.636H99.862V267.574C99.862 268.293 99.7086 268.918 99.4018 269.449C99.0978 269.98 98.6774 270.392 98.1404 270.685C97.6064 270.974 96.9927 271.119 96.2995 271.119C95.5268 271.119 94.8478 270.938 94.2626 270.574C93.6802 270.21 93.2257 269.693 92.899 269.023C92.5751 268.352 92.4132 267.557 92.4132 266.636C92.4132 265.946 92.5055 265.325 92.6902 264.774C92.8777 264.22 93.1419 263.749 93.4828 263.359C93.8237 262.97 94.2271 262.672 94.693 262.464C95.1589 262.257 95.6717 262.153 96.2314 262.153C96.6916 262.153 97.1206 262.223 97.5183 262.362C97.9189 262.499 98.2754 262.693 98.5879 262.946C98.9032 263.196 99.166 263.496 99.3762 263.845C99.5865 264.192 99.7314 264.577 99.8109 265H98.72ZM104.28 271.136C103.649 271.136 103.105 270.997 102.648 270.719C102.193 270.438 101.843 270.045 101.595 269.543C101.351 269.037 101.229 268.449 101.229 267.778C101.229 267.108 101.351 266.517 101.595 266.006C101.843 265.491 102.186 265.091 102.627 264.804C103.07 264.514 103.587 264.369 104.178 264.369C104.519 264.369 104.855 264.426 105.188 264.54C105.52 264.653 105.823 264.838 106.095 265.094C106.368 265.347 106.585 265.682 106.747 266.099C106.909 266.517 106.99 267.031 106.99 267.642V268.068H101.945V267.199H105.968C105.968 266.83 105.894 266.5 105.746 266.21C105.601 265.92 105.394 265.692 105.124 265.524C104.857 265.357 104.541 265.273 104.178 265.273C103.777 265.273 103.431 265.372 103.138 265.571C102.848 265.767 102.625 266.023 102.469 266.338C102.313 266.653 102.235 266.991 102.235 267.352V267.932C102.235 268.426 102.32 268.845 102.49 269.189C102.664 269.53 102.904 269.79 103.21 269.969C103.517 270.145 103.874 270.233 104.28 270.233C104.544 270.233 104.783 270.196 104.996 270.122C105.212 270.045 105.398 269.932 105.554 269.781C105.71 269.628 105.831 269.437 105.916 269.21L106.888 269.483C106.786 269.812 106.614 270.102 106.372 270.352C106.131 270.599 105.833 270.793 105.477 270.932C105.122 271.068 104.723 271.136 104.28 271.136ZM109.526 267.062V271H108.52V264.455H109.492V265.477H109.577C109.73 265.145 109.963 264.878 110.276 264.676C110.588 264.472 110.992 264.369 111.486 264.369C111.929 264.369 112.317 264.46 112.649 264.642C112.982 264.821 113.24 265.094 113.425 265.46C113.61 265.824 113.702 266.284 113.702 266.841V271H112.696V266.909C112.696 266.395 112.563 265.994 112.296 265.707C112.029 265.418 111.662 265.273 111.196 265.273C110.875 265.273 110.588 265.342 110.335 265.482C110.085 265.621 109.888 265.824 109.743 266.091C109.598 266.358 109.526 266.682 109.526 267.062ZM118.011 271.136C117.466 271.136 116.984 270.999 116.567 270.723C116.149 270.445 115.822 270.053 115.586 269.547C115.351 269.038 115.233 268.438 115.233 267.744C115.233 267.057 115.351 266.46 115.586 265.955C115.822 265.449 116.15 265.058 116.571 264.783C116.991 264.507 117.477 264.369 118.028 264.369C118.454 264.369 118.791 264.44 119.038 264.582C119.288 264.722 119.479 264.881 119.609 265.06C119.743 265.236 119.846 265.381 119.92 265.494H120.006V262.273H121.011V271H120.04V269.994H119.92C119.846 270.114 119.741 270.264 119.605 270.446C119.469 270.625 119.274 270.786 119.021 270.928C118.768 271.067 118.432 271.136 118.011 271.136ZM118.148 270.233C118.551 270.233 118.892 270.128 119.17 269.918C119.449 269.705 119.66 269.411 119.805 269.036C119.95 268.658 120.023 268.222 120.023 267.727C120.023 267.239 119.952 266.811 119.809 266.445C119.667 266.075 119.457 265.788 119.179 265.584C118.9 265.376 118.557 265.273 118.148 265.273C117.721 265.273 117.366 265.382 117.082 265.601C116.801 265.817 116.589 266.111 116.447 266.483C116.308 266.852 116.238 267.267 116.238 267.727C116.238 268.193 116.309 268.616 116.452 268.997C116.596 269.375 116.809 269.676 117.091 269.901C117.375 270.122 117.727 270.233 118.148 270.233ZM125.737 271.136C125.106 271.136 124.562 270.997 124.105 270.719C123.65 270.438 123.3 270.045 123.052 269.543C122.808 269.037 122.686 268.449 122.686 267.778C122.686 267.108 122.808 266.517 123.052 266.006C123.3 265.491 123.643 265.091 124.084 264.804C124.527 264.514 125.044 264.369 125.635 264.369C125.976 264.369 126.312 264.426 126.645 264.54C126.977 264.653 127.28 264.838 127.552 265.094C127.825 265.347 128.042 265.682 128.204 266.099C128.366 266.517 128.447 267.031 128.447 267.642V268.068H123.402V267.199H127.425C127.425 266.83 127.351 266.5 127.203 266.21C127.058 265.92 126.851 265.692 126.581 265.524C126.314 265.357 125.998 265.273 125.635 265.273C125.234 265.273 124.888 265.372 124.595 265.571C124.305 265.767 124.082 266.023 123.926 266.338C123.77 266.653 123.692 266.991 123.692 267.352V267.932C123.692 268.426 123.777 268.845 123.947 269.189C124.121 269.53 124.361 269.79 124.667 269.969C124.974 270.145 125.331 270.233 125.737 270.233C126.001 270.233 126.24 270.196 126.453 270.122C126.669 270.045 126.855 269.932 127.011 269.781C127.167 269.628 127.288 269.437 127.373 269.21L128.345 269.483C128.243 269.812 128.071 270.102 127.829 270.352C127.588 270.599 127.29 270.793 126.934 270.932C126.579 271.068 126.18 271.136 125.737 271.136ZM129.977 271V264.455H130.949V265.443H131.017C131.136 265.119 131.352 264.857 131.665 264.655C131.977 264.453 132.329 264.352 132.721 264.352C132.795 264.352 132.888 264.354 132.998 264.357C133.109 264.359 133.193 264.364 133.25 264.369V265.392C133.216 265.384 133.138 265.371 133.015 265.354C132.896 265.334 132.77 265.324 132.636 265.324C132.318 265.324 132.034 265.391 131.784 265.524C131.537 265.655 131.341 265.837 131.196 266.07C131.054 266.3 130.983 266.562 130.983 266.858V271H129.977ZM135.175 271.068C134.965 271.068 134.784 270.993 134.634 270.842C134.483 270.692 134.408 270.511 134.408 270.301C134.408 270.091 134.483 269.911 134.634 269.76C134.784 269.609 134.965 269.534 135.175 269.534C135.385 269.534 135.566 269.609 135.716 269.76C135.867 269.911 135.942 270.091 135.942 270.301C135.942 270.44 135.906 270.568 135.835 270.685C135.767 270.801 135.675 270.895 135.558 270.966C135.445 271.034 135.317 271.068 135.175 271.068ZM135.175 266.21C134.965 266.21 134.784 266.135 134.634 265.984C134.483 265.834 134.408 265.653 134.408 265.443C134.408 265.233 134.483 265.053 134.634 264.902C134.784 264.751 134.965 264.676 135.175 264.676C135.385 264.676 135.566 264.751 135.716 264.902C135.867 265.053 135.942 265.233 135.942 265.443C135.942 265.582 135.906 265.71 135.835 265.827C135.767 265.943 135.675 266.037 135.558 266.108C135.445 266.176 135.317 266.21 135.175 266.21ZM141.258 262.273H142.519L145.485 269.517H145.588L148.553 262.273H149.815V271H148.826V264.369H148.741L146.014 271H145.059L142.332 264.369H142.247V271H141.258V262.273ZM153.724 271.153C153.309 271.153 152.932 271.075 152.594 270.919C152.256 270.76 151.988 270.531 151.789 270.233C151.59 269.932 151.491 269.568 151.491 269.142C151.491 268.767 151.564 268.463 151.712 268.23C151.86 267.994 152.057 267.81 152.305 267.676C152.552 267.543 152.824 267.443 153.123 267.378C153.424 267.31 153.726 267.256 154.03 267.216C154.428 267.165 154.751 267.126 154.998 267.101C155.248 267.072 155.43 267.026 155.543 266.96C155.66 266.895 155.718 266.781 155.718 266.619V266.585C155.718 266.165 155.603 265.838 155.373 265.605C155.145 265.372 154.8 265.256 154.337 265.256C153.857 265.256 153.481 265.361 153.208 265.571C152.935 265.781 152.743 266.006 152.633 266.244L151.678 265.903C151.849 265.506 152.076 265.196 152.36 264.974C152.647 264.75 152.959 264.594 153.297 264.506C153.638 264.415 153.974 264.369 154.303 264.369C154.513 264.369 154.755 264.395 155.028 264.446C155.303 264.494 155.569 264.595 155.824 264.749C156.083 264.902 156.297 265.134 156.468 265.443C156.638 265.753 156.724 266.168 156.724 266.688V271H155.718V270.114H155.667C155.599 270.256 155.485 270.408 155.326 270.57C155.167 270.732 154.955 270.869 154.691 270.983C154.427 271.097 154.104 271.153 153.724 271.153ZM153.877 270.25C154.275 270.25 154.61 270.172 154.883 270.016C155.158 269.859 155.366 269.658 155.505 269.411C155.647 269.163 155.718 268.903 155.718 268.631V267.71C155.675 267.761 155.581 267.808 155.437 267.851C155.295 267.891 155.13 267.926 154.942 267.957C154.758 267.986 154.577 268.011 154.401 268.034C154.228 268.054 154.087 268.071 153.979 268.085C153.718 268.119 153.474 268.175 153.246 268.251C153.022 268.325 152.84 268.437 152.701 268.588C152.564 268.736 152.496 268.937 152.496 269.193C152.496 269.543 152.626 269.807 152.884 269.986C153.145 270.162 153.476 270.25 153.877 270.25ZM159.565 262.273V271H158.559V262.273H159.565ZM164.151 271.136C163.52 271.136 162.976 270.997 162.519 270.719C162.064 270.438 161.714 270.045 161.466 269.543C161.222 269.037 161.1 268.449 161.1 267.778C161.1 267.108 161.222 266.517 161.466 266.006C161.714 265.491 162.057 265.091 162.498 264.804C162.941 264.514 163.458 264.369 164.049 264.369C164.39 264.369 164.726 264.426 165.059 264.54C165.391 264.653 165.694 264.838 165.966 265.094C166.239 265.347 166.456 265.682 166.618 266.099C166.78 266.517 166.861 267.031 166.861 267.642V268.068H161.816V267.199H165.839C165.839 266.83 165.765 266.5 165.617 266.21C165.472 265.92 165.265 265.692 164.995 265.524C164.728 265.357 164.412 265.273 164.049 265.273C163.648 265.273 163.302 265.372 163.009 265.571C162.719 265.767 162.496 266.023 162.34 266.338C162.184 266.653 162.106 266.991 162.106 267.352V267.932C162.106 268.426 162.191 268.845 162.361 269.189C162.535 269.53 162.775 269.79 163.081 269.969C163.388 270.145 163.745 270.233 164.151 270.233C164.415 270.233 164.654 270.196 164.867 270.122C165.083 270.045 165.269 269.932 165.425 269.781C165.581 269.628 165.702 269.437 165.787 269.21L166.759 269.483C166.657 269.812 166.485 270.102 166.243 270.352C166.002 270.599 165.704 270.793 165.349 270.932C164.993 271.068 164.594 271.136 164.151 271.136Z" fill="#644A41"/>
<path d="M104 170C148.183 170 184 134.183 184 90C184 45.8172 148.183 10 104 10C59.8172 10 24 45.8172 24 90C24 134.183 59.8172 170 104 170Z" fill="#FFCE33"/>
<path d="M126.544 105.85C120.068 110.376 111.727 109.581 104.337 107.493C96.9472 105.405 89.6293 102.172 82.0104 102.307C74.3796 102.442 66.0627 107.197 64.3776 115.522C62.9453 122.621 66.7608 129.868 71.6955 134.597C76.6303 139.339 82.6845 142.37 87.9201 146.68C94.7446 152.298 101.593 160.569 109.958 158.979C114.797 158.063 118.564 153.941 122.006 150.021C126.688 144.687 131.382 139.352 136.064 134.004C140.433 129.02 145.115 123.227 144.935 116.236C144.814 111.225 141.842 106.429 137.689 104.543C133.537 102.657 128.433 103.762 125.208 107.264" fill="#2E2E2E"/>
<path d="M123.306 66.3664C120.526 71.3777 120.79 77.3049 123.908 79.6219C127.025 81.9255 131.815 79.7432 134.596 74.732C137.376 69.7208 137.111 63.7935 133.994 61.4765C130.877 59.1595 126.086 61.3552 123.306 66.3664Z" fill="#F5F5FF" stroke="#2E2E2E" stroke-width="0.5" stroke-linecap="round" stroke-linejoin="round"/>
<path d="M131.647 63.8879C132.995 64.4807 134.018 65.9086 134.247 67.5116C134.475 69.1147 133.873 70.8255 132.742 71.8358" stroke="#2E2E2E" stroke-width="0.5" stroke-linecap="round" stroke-linejoin="round"/>
<path d="M85.6937 66.3664C88.474 71.3777 88.2092 77.3049 85.0919 79.6219C81.9745 81.9255 77.1842 79.7432 74.4039 74.732C71.6235 69.7208 71.8883 63.7935 75.0057 61.4765C78.123 59.1595 82.9133 61.3552 85.6937 66.3664Z" fill="#F5F5FF" stroke="#2E2E2E" stroke-width="0.5" stroke-linecap="round" stroke-linejoin="round"/>
<path d="M77.3523 63.8879C76.0043 64.4807 74.9813 65.9086 74.7526 67.5116C74.5359 69.1147 75.1257 70.8255 76.2571 71.8358" stroke="#2E2E2E" stroke-width="0.5" stroke-linecap="round" stroke-linejoin="round"/>
<path d="M118.793 126.824C119.057 135.877 112.594 143.353 104.506 143.353C96.4176 143.353 90.207 136.159 90.207 127.363C90.207 127.188 90.207 126.999 90.2191 126.824L91.8078 102.967L92.217 96.9319L93.0114 85.0774H116L117.264 103.816L118.167 117.448L118.805 126.824H118.793Z" fill="#F5F5FF" stroke="#2E2E2E" stroke-width="0.56" stroke-linecap="round" stroke-linejoin="round"/>
<path d="M118.155 117.435C110.608 118.041 102.291 113.838 96.5862 105.675C94.6604 102.94 93.192 99.9628 92.2051 96.9319L92.9994 85.0774H115.988L117.252 103.816L118.155 117.448V117.435Z" fill="#2E2E2E"/>
<path d="M129.721 74.4624C129.721 81.3999 127.194 88.0277 122.704 92.8234L115.868 99.6936C113.798 102.226 110.861 103.668 107.792 103.668H101.425C98.3796 103.668 95.4789 102.253 93.3967 99.7744L86.4158 92.8369C81.8541 88.0412 79.2664 81.3461 79.2664 74.3411L79.3747 72.2262L80.0006 60.0888L80.47 51.0902C80.47 36.1374 91.2181 24 104.47 24C111.114 24 117.108 27.031 121.453 31.9344C125.798 36.8244 128.494 43.6003 128.494 51.0902L129.023 61.3281L129.541 71.4314L129.697 74.4624H129.721Z" fill="#F5F5FF" stroke="#2E2E2E" stroke-width="0.5" stroke-linecap="round" stroke-linejoin="round"/>
<path d="M129.047 61.3281H128.301C124.786 55.5491 122.511 48.8271 121.765 41.8895C121.296 37.5653 115.795 36.097 111.92 36.5819C110.175 39.5321 107.093 41.4584 103.928 41.5662C100.762 41.6739 97.645 39.3031 95.7433 36.4607C91.8798 35.9892 86.3552 37.4441 85.8858 41.7683C85.1877 48.2613 83.1656 54.5657 80.0122 60.0888L80.4816 51.0902C80.4816 36.1374 91.2298 24 104.481 24C111.125 24 117.119 27.031 121.464 31.9344C125.809 36.8244 128.505 43.6003 128.505 51.0902L129.035 61.3281H129.047Z" fill="#2E2E2E"/>
<path d="M109.778 56.1687C110.897 55.4143 112.125 54.889 113.412 54.5118C114.7 54.1211 116.072 53.9191 117.493 53.9729C118.901 54.0268 120.369 54.3905 121.657 55.1449C122.945 55.8858 124.004 57.0578 124.57 58.4453C123.27 57.9603 122.102 57.7179 120.983 57.6775C119.864 57.6371 118.793 57.7987 117.709 58.0142C116.626 58.2433 115.531 58.5531 114.387 58.8494C113.256 59.1593 112.088 59.4826 110.837 59.6307H110.825C109.898 59.752 109.067 59.0111 108.971 57.9738C108.899 57.2195 109.236 56.519 109.778 56.1552V56.1687Z" fill="#2E2E2E"/>
<path d="M98.1508 59.6442C96.8991 59.4826 95.7436 59.1727 94.6002 58.8629C93.4688 58.5665 92.3615 58.2567 91.2783 58.0277C90.195 57.8121 89.1238 57.6505 88.0045 57.6909C86.8851 57.7313 85.7176 57.9873 84.4177 58.4588C84.9834 57.0578 86.0426 55.8993 87.3304 55.1584C88.6183 54.404 90.0867 54.0403 91.4949 53.9864C92.9152 53.9325 94.2873 54.1346 95.5751 54.5252C96.875 54.9024 98.0907 55.4278 99.21 56.1822C100.004 56.721 100.269 57.866 99.7877 58.7686C99.4387 59.4152 98.7888 59.752 98.1629 59.6711H98.1388L98.1508 59.6442Z" fill="#2E2E2E"/>
<path d="M110.343 67.6868C110.692 67.0806 111.053 66.5013 111.426 65.9221C111.848 65.3293 112.293 64.7501 112.835 64.2921C113.906 63.3356 115.23 62.7429 116.602 62.5139C117.974 62.3253 119.406 62.4869 120.682 63.1201C121.332 63.403 121.91 63.8475 122.452 64.2921C122.957 64.7231 123.463 65.1542 123.787 65.8547C123.86 66.0163 123.812 66.2184 123.667 66.2992C123.607 66.3262 123.547 66.3397 123.487 66.3397C122.776 66.2184 122.259 65.8277 121.717 65.4371C121.212 65.1003 120.694 64.804 120.153 64.5884C119.069 64.1439 117.914 63.9957 116.758 64.09C115.615 64.2247 114.472 64.6019 113.497 65.3293C112.979 65.6526 112.546 66.0972 112.113 66.5552C111.667 67.0536 111.222 67.5655 110.752 68.0505C110.644 68.1582 110.476 68.1583 110.379 68.037C110.295 67.9427 110.283 67.781 110.355 67.6733L110.343 67.6868Z" fill="#2E2E2E"/>
<path d="M114.725 65.5316C114.809 64.1711 115.868 63.1338 117.096 63.2416C118.311 63.3359 119.238 64.5213 119.142 65.8954C119.058 67.2559 117.998 68.2932 116.771 68.1854C115.555 68.0911 114.628 66.9057 114.725 65.5316Z" fill="#2E2E2E"/>
<path d="M110.801 67.9023C111.872 68.5355 113.123 68.8453 114.411 68.7914" stroke="#2E2E2E" stroke-width="0.5" stroke-linecap="round" stroke-linejoin="round"/>
<path d="M110.488 64.9115C111.715 63.0121 113.653 61.7054 115.735 61.3821" stroke="#2E2E2E" stroke-width="0.5" stroke-linecap="round" stroke-linejoin="round"/>
<path d="M98.2589 68.0639C97.7895 67.5789 97.3441 67.0671 96.8988 66.5686C96.4655 66.1106 96.0202 65.6661 95.5147 65.3428C94.5397 64.6153 93.3843 64.2381 92.2529 64.1034C91.1095 63.9956 89.942 64.1573 88.8587 64.6018C88.3171 64.8174 87.7996 65.1137 87.2941 65.4505C86.7645 65.8412 86.2349 66.2318 85.5248 66.3531C85.3683 66.38 85.2118 66.2588 85.1877 66.0702C85.1877 66.0028 85.1877 65.9355 85.2239 65.8681C85.5488 65.1676 86.0664 64.7365 86.5599 64.3055C87.1015 63.8609 87.6912 63.4164 88.3292 63.1335C89.5929 62.5004 91.0373 62.3387 92.4094 62.5273C93.7815 62.7563 95.1054 63.349 96.1766 64.3055C96.7183 64.7635 97.1756 65.3562 97.5849 65.9355C97.9459 66.5282 98.3191 67.094 98.6681 67.7002C98.7524 67.8349 98.7162 68.0235 98.5838 68.1043C98.4755 68.1851 98.3431 68.1582 98.2589 68.0774V68.0639Z" fill="#2E2E2E"/>
<path d="M94.2753 65.5316C94.191 64.1711 93.1318 63.1338 91.9042 63.2416C90.6765 63.3493 89.7617 64.5213 89.858 65.8954C89.9423 67.2559 91.0015 68.2932 92.2291 68.1854C93.4448 68.0911 94.3716 66.9057 94.2753 65.5316Z" fill="#2E2E2E"/>
<path d="M98.1987 67.9023C97.1275 68.5355 95.8757 68.8453 94.5879 68.7914" stroke="#2E2E2E" stroke-width="0.5" stroke-linecap="round" stroke-linejoin="round"/>
<path d="M98.5116 64.9115C97.284 63.0121 95.3462 61.7054 93.2639 61.3821" stroke="#2E2E2E" stroke-width="0.5" stroke-linecap="round" stroke-linejoin="round"/>
<path d="M102.773 86.6807C103.23 87.1791 103.868 87.462 104.506 87.462C105.144 87.462 105.782 87.1791 106.239 86.6807C106.961 85.8993 108.261 86.3843 109.248 86.5459C110.235 86.7076 111.246 86.9231 112.221 86.6941" stroke="#2E2E2E" stroke-width="0.53" stroke-linecap="round" stroke-linejoin="round"/>
<path d="M102.773 86.6807C102.051 85.8993 100.763 86.3843 99.7637 86.5459C98.7767 86.7076 97.7657 86.9231 96.7908 86.6941" stroke="#2E2E2E" stroke-width="0.53" stroke-linecap="round" stroke-linejoin="round"/>
<path d="M99.9204 89.8328C102.46 90.8161 105.264 90.9509 107.864 90.21" stroke="#2E2E2E" stroke-width="0.53" stroke-linecap="round" stroke-linejoin="round"/>
<path d="M100.799 79.0154L102.652 79.891C103.832 80.4433 105.168 80.4433 106.347 79.891L108.201 79.0154" stroke="#2E2E2E" stroke-width="0.46" stroke-linecap="round" stroke-linejoin="round"/>
<path d="M155.78 220.327L150.243 205.279L145.814 193.223L142.083 183.052L133.874 160.731C129.553 148.984 133.802 135.971 143.118 132.401C144.742 131.782 146.415 131.499 148.064 131.512C148.221 131.512 148.365 131.512 148.522 131.526C155.755 131.822 162.736 137.83 165.529 146.99L172.173 168.733L175.146 178.486L188 220.609" fill="#2E2E2E"/>
<path d="M53.2205 220.327L58.757 205.279L63.1863 193.223L66.9175 183.052L75.1261 160.731C79.447 148.984 75.1983 135.971 65.8824 132.401C64.2575 131.782 62.5845 131.499 60.9356 131.512C60.7791 131.512 60.6347 131.512 60.4782 131.526C53.2445 131.822 46.2636 137.83 43.4713 146.99L36.8274 168.733L33.8545 178.486L21 220.609" fill="#2E2E2E"/>
<path d="M150.423 221H58.5762L59.0576 205.926L59.3946 195.068L59.8159 181.719L61.188 138.611L61.3926 132.199L64.3535 131.014L81.565 124.049L84.8869 122.702L86.5359 122.029L90.8448 119.442H92.1447H116.999H117.517L122.343 121.921L123.98 122.594L127.302 123.928L145.019 131.095L147.751 132.199L147.944 138.638L148.678 162.9L149.232 181.463L149.629 194.88V194.947L149.99 207.071L150.423 221Z" fill="#2E2E2E"/>
</svg>
