<svg width="209" height="284" viewBox="0 0 209 284" fill="none" xmlns="http://www.w3.org/2000/svg">
<rect width="209" height="284" rx="20" fill="#F6F5F3"/>
<path d="M82.9464 250V235.455H85.5813V247.791H91.9876V250H82.9464ZM94.1609 250V239.091H96.7319V250H94.1609ZM95.4535 237.543C95.0463 237.543 94.6959 237.408 94.4023 237.138C94.1088 236.863 93.962 236.534 93.962 236.151C93.962 235.762 94.1088 235.433 94.4023 235.163C94.6959 234.889 95.0463 234.751 95.4535 234.751C95.8654 234.751 96.2158 234.889 96.5046 235.163C96.7982 235.433 96.945 235.762 96.945 236.151C96.945 236.534 96.7982 236.863 96.5046 237.138C96.2158 237.408 95.8654 237.543 95.4535 237.543ZM102.515 250.22C101.824 250.22 101.201 250.097 100.647 249.851C100.098 249.6 99.6622 249.231 99.3402 248.743C99.023 248.255 98.8643 247.654 98.8643 246.939C98.8643 246.323 98.978 245.814 99.2053 245.412C99.4325 245.009 99.7427 244.688 100.136 244.446C100.529 244.205 100.971 244.022 101.464 243.899C101.961 243.771 102.475 243.679 103.005 243.622C103.644 243.556 104.163 243.497 104.56 243.445C104.958 243.388 105.247 243.303 105.427 243.189C105.612 243.071 105.704 242.888 105.704 242.642V242.599C105.704 242.064 105.545 241.65 105.228 241.357C104.911 241.063 104.454 240.916 103.857 240.916C103.228 240.916 102.728 241.054 102.359 241.328C101.994 241.603 101.748 241.927 101.62 242.301L99.2195 241.96C99.4089 241.297 99.7214 240.743 100.157 240.298C100.593 239.848 101.125 239.512 101.755 239.29C102.385 239.062 103.081 238.949 103.843 238.949C104.369 238.949 104.892 239.01 105.413 239.134C105.933 239.257 106.409 239.46 106.84 239.744C107.271 240.024 107.617 240.405 107.877 240.888C108.142 241.371 108.275 241.974 108.275 242.699V250H105.803V248.501H105.718C105.562 248.804 105.342 249.089 105.058 249.354C104.778 249.614 104.425 249.825 103.999 249.986C103.578 250.142 103.083 250.22 102.515 250.22ZM103.183 248.331C103.699 248.331 104.146 248.229 104.525 248.026C104.904 247.817 105.195 247.543 105.398 247.202C105.607 246.861 105.711 246.489 105.711 246.087V244.801C105.63 244.867 105.493 244.929 105.299 244.986C105.11 245.043 104.897 245.092 104.66 245.135C104.423 245.178 104.189 245.215 103.957 245.249C103.725 245.282 103.523 245.31 103.353 245.334C102.969 245.386 102.626 245.471 102.323 245.589C102.02 245.708 101.781 245.874 101.606 246.087C101.431 246.295 101.343 246.565 101.343 246.896C101.343 247.37 101.516 247.727 101.862 247.969C102.207 248.21 102.647 248.331 103.183 248.331ZM110.86 250V239.091H113.317V240.945H113.445C113.673 240.32 114.049 239.832 114.575 239.482C115.1 239.126 115.728 238.949 116.457 238.949C117.195 238.949 117.818 239.129 118.325 239.489C118.836 239.844 119.196 240.329 119.404 240.945H119.518C119.759 240.339 120.166 239.856 120.739 239.496C121.317 239.131 122.001 238.949 122.792 238.949C123.796 238.949 124.615 239.266 125.249 239.901C125.884 240.535 126.201 241.461 126.201 242.678V250H123.623V243.075C123.623 242.398 123.443 241.903 123.083 241.591C122.723 241.274 122.283 241.115 121.762 241.115C121.142 241.115 120.656 241.309 120.306 241.697C119.96 242.081 119.788 242.58 119.788 243.196V250H117.266V242.969C117.266 242.405 117.096 241.955 116.755 241.619C116.419 241.283 115.978 241.115 115.434 241.115C115.065 241.115 114.728 241.21 114.425 241.399C114.122 241.584 113.881 241.847 113.701 242.188C113.521 242.524 113.431 242.917 113.431 243.366V250H110.86Z" fill="#101828"/>
<path d="M43.8406 271H42.7326L45.9371 262.273H47.0281L50.2326 271H49.1246L46.5167 263.653H46.4485L43.8406 271ZM44.2496 267.591H48.7156V268.528H44.2496V267.591ZM54.0977 273.591C53.6119 273.591 53.1942 273.528 52.8448 273.403C52.4954 273.281 52.2042 273.119 51.9712 272.918C51.7411 272.719 51.5579 272.506 51.4215 272.278L52.2227 271.716C52.3136 271.835 52.4286 271.972 52.5678 272.125C52.707 272.281 52.8974 272.416 53.1388 272.53C53.3832 272.646 53.7028 272.705 54.0977 272.705C54.6261 272.705 55.0621 272.577 55.4059 272.321C55.7496 272.065 55.9215 271.665 55.9215 271.119V269.79H55.8363C55.7624 269.909 55.6573 270.057 55.521 270.233C55.3874 270.406 55.1942 270.561 54.9414 270.697C54.6914 270.831 54.3533 270.898 53.9272 270.898C53.3988 270.898 52.9244 270.773 52.5039 270.523C52.0863 270.273 51.7553 269.909 51.511 269.432C51.2695 268.955 51.1488 268.375 51.1488 267.693C51.1488 267.023 51.2667 266.439 51.5025 265.942C51.7383 265.442 52.0664 265.055 52.4869 264.783C52.9073 264.507 53.3931 264.369 53.9442 264.369C54.3704 264.369 54.7085 264.44 54.9585 264.582C55.2113 264.722 55.4045 264.881 55.538 265.06C55.6744 265.236 55.7795 265.381 55.8533 265.494H55.9556V264.455H56.9272V271.188C56.9272 271.75 56.7994 272.207 56.5437 272.56C56.2908 272.915 55.9499 273.175 55.521 273.339C55.0948 273.507 54.6204 273.591 54.0977 273.591ZM54.0636 269.994C54.467 269.994 54.8079 269.902 55.0863 269.717C55.3647 269.533 55.5763 269.267 55.7212 268.92C55.8661 268.574 55.9386 268.159 55.9386 267.676C55.9386 267.205 55.8675 266.788 55.7255 266.428C55.5835 266.067 55.3732 265.784 55.0948 265.58C54.8164 265.375 54.4727 265.273 54.0636 265.273C53.6374 265.273 53.2823 265.381 52.9982 265.597C52.717 265.812 52.5053 266.102 52.3633 266.466C52.2241 266.83 52.1545 267.233 52.1545 267.676C52.1545 268.131 52.2255 268.533 52.3675 268.882C52.5124 269.229 52.7255 269.501 53.0067 269.7C53.2908 269.896 53.6431 269.994 54.0636 269.994ZM61.5124 271.136C60.8817 271.136 60.3377 270.997 59.8803 270.719C59.4258 270.438 59.0749 270.045 58.8278 269.543C58.5835 269.037 58.4613 268.449 58.4613 267.778C58.4613 267.108 58.5835 266.517 58.8278 266.006C59.0749 265.491 59.4187 265.091 59.859 264.804C60.3022 264.514 60.8192 264.369 61.4102 264.369C61.7511 264.369 62.0877 264.426 62.4201 264.54C62.7525 264.653 63.055 264.838 63.3278 265.094C63.6005 265.347 63.8178 265.682 63.9798 266.099C64.1417 266.517 64.2227 267.031 64.2227 267.642V268.068H59.1772V267.199H63.1999C63.1999 266.83 63.1261 266.5 62.9783 266.21C62.8335 265.92 62.6261 265.692 62.3562 265.524C62.0891 265.357 61.7738 265.273 61.4102 265.273C61.0096 265.273 60.663 265.372 60.3704 265.571C60.0806 265.767 59.8576 266.023 59.7013 266.338C59.5451 266.653 59.467 266.991 59.467 267.352V267.932C59.467 268.426 59.5522 268.845 59.7227 269.189C59.896 269.53 60.136 269.79 60.4428 269.969C60.7496 270.145 61.1062 270.233 61.5124 270.233C61.7766 270.233 62.0153 270.196 62.2283 270.122C62.4442 270.045 62.6303 269.932 62.7866 269.781C62.9428 269.628 63.0636 269.437 63.1488 269.21L64.1204 269.483C64.0181 269.812 63.8462 270.102 63.6048 270.352C63.3633 270.599 63.065 270.793 62.7099 270.932C62.3548 271.068 61.9556 271.136 61.5124 271.136ZM66.4854 271.068C66.2752 271.068 66.0948 270.993 65.9442 270.842C65.7937 270.692 65.7184 270.511 65.7184 270.301C65.7184 270.091 65.7937 269.911 65.9442 269.76C66.0948 269.609 66.2752 269.534 66.4854 269.534C66.6957 269.534 66.8761 269.609 67.0266 269.76C67.1772 269.911 67.2525 270.091 67.2525 270.301C67.2525 270.44 67.217 270.568 67.146 270.685C67.0778 270.801 66.9854 270.895 66.869 270.966C66.7553 271.034 66.6275 271.068 66.4854 271.068ZM66.4854 266.21C66.2752 266.21 66.0948 266.135 65.9442 265.984C65.7937 265.834 65.7184 265.653 65.7184 265.443C65.7184 265.233 65.7937 265.053 65.9442 264.902C66.0948 264.751 66.2752 264.676 66.4854 264.676C66.6957 264.676 66.8761 264.751 67.0266 264.902C67.1772 265.053 67.2525 265.233 67.2525 265.443C67.2525 265.582 67.217 265.71 67.146 265.827C67.0778 265.943 66.9854 266.037 66.869 266.108C66.7553 266.176 66.6275 266.21 66.4854 266.21ZM75.4833 262.273V271H74.4265V263.381H74.3754L72.2447 264.795V263.722L74.4265 262.273H75.4833ZM80.7205 271.119C80.2205 271.119 79.7702 271.02 79.3697 270.821C78.9691 270.622 78.6481 270.349 78.4066 270.003C78.1651 269.656 78.033 269.261 78.0103 268.818H79.033C79.0728 269.213 79.2518 269.54 79.57 269.798C79.891 270.054 80.2745 270.182 80.7205 270.182C81.0785 270.182 81.3967 270.098 81.6751 269.93C81.9563 269.763 82.1765 269.533 82.3356 269.24C82.4975 268.945 82.5785 268.611 82.5785 268.239C82.5785 267.858 82.4947 267.518 82.3271 267.22C82.1623 266.919 81.935 266.682 81.6452 266.509C81.3555 266.335 81.0245 266.247 80.6523 266.244C80.3853 266.241 80.1112 266.283 79.8299 266.368C79.5487 266.45 79.3171 266.557 79.1353 266.688L78.1467 266.568L78.6751 262.273H83.2092V263.21H79.5614L79.2546 265.784H79.3058C79.4847 265.642 79.7092 265.524 79.979 265.43C80.2489 265.337 80.5302 265.29 80.8228 265.29C81.3569 265.29 81.8327 265.418 82.2504 265.673C82.6708 265.926 83.0004 266.273 83.239 266.713C83.4805 267.153 83.6012 267.656 83.6012 268.222C83.6012 268.778 83.4762 269.276 83.2262 269.713C82.979 270.148 82.6381 270.491 82.2035 270.744C81.7688 270.994 81.2745 271.119 80.7205 271.119ZM86.483 269.807L86.4148 270.267C86.3665 270.591 86.2926 270.938 86.1932 271.307C86.0966 271.676 85.9957 272.024 85.8906 272.351C85.7855 272.678 85.6989 272.938 85.6307 273.131H84.8636C84.9006 272.949 84.9489 272.709 85.0085 272.411C85.0682 272.112 85.1278 271.778 85.1875 271.409C85.25 271.043 85.3011 270.668 85.3409 270.284L85.392 269.807H86.483ZM97.8235 265C97.7298 264.713 97.6062 264.456 97.4528 264.229C97.3022 263.999 97.1218 263.803 96.9116 263.641C96.7042 263.479 96.4684 263.355 96.2042 263.27C95.94 263.185 95.6502 263.142 95.3349 263.142C94.8178 263.142 94.3477 263.276 93.9244 263.543C93.5011 263.81 93.1644 264.203 92.9144 264.723C92.6644 265.243 92.5394 265.881 92.5394 266.636C92.5394 267.392 92.6658 268.03 92.9187 268.55C93.1715 269.07 93.5138 269.463 93.9457 269.73C94.3775 269.997 94.8633 270.131 95.4031 270.131C95.9031 270.131 96.3434 270.024 96.7241 269.811C97.1076 269.595 97.4059 269.291 97.619 268.899C97.8349 268.504 97.9428 268.04 97.9428 267.506L98.2667 267.574H95.6417V266.636H98.9656V267.574C98.9656 268.293 98.8121 268.918 98.5053 269.449C98.2013 269.98 97.7809 270.392 97.244 270.685C96.7099 270.974 96.0962 271.119 95.4031 271.119C94.6303 271.119 93.9513 270.938 93.3661 270.574C92.7837 270.21 92.3292 269.693 92.0025 269.023C91.6786 268.352 91.5167 267.557 91.5167 266.636C91.5167 265.946 91.609 265.325 91.7937 264.774C91.9812 264.22 92.2454 263.749 92.5863 263.359C92.9272 262.97 93.3306 262.672 93.7965 262.464C94.2624 262.257 94.7752 262.153 95.3349 262.153C95.7951 262.153 96.2241 262.223 96.6218 262.362C97.0224 262.499 97.3789 262.693 97.6914 262.946C98.0067 263.196 98.2695 263.496 98.4798 263.845C98.69 264.192 98.8349 264.577 98.9144 265H97.8235ZM103.384 271.136C102.753 271.136 102.209 270.997 101.751 270.719C101.297 270.438 100.946 270.045 100.699 269.543C100.455 269.037 100.332 268.449 100.332 267.778C100.332 267.108 100.455 266.517 100.699 266.006C100.946 265.491 101.29 265.091 101.73 264.804C102.173 264.514 102.69 264.369 103.281 264.369C103.622 264.369 103.959 264.426 104.291 264.54C104.624 264.653 104.926 264.838 105.199 265.094C105.472 265.347 105.689 265.682 105.851 266.099C106.013 266.517 106.094 267.031 106.094 267.642V268.068H101.048V267.199H105.071C105.071 266.83 104.997 266.5 104.849 266.21C104.705 265.92 104.497 265.692 104.227 265.524C103.96 265.357 103.645 265.273 103.281 265.273C102.881 265.273 102.534 265.372 102.241 265.571C101.952 265.767 101.729 266.023 101.572 266.338C101.416 266.653 101.338 266.991 101.338 267.352V267.932C101.338 268.426 101.423 268.845 101.594 269.189C101.767 269.53 102.007 269.79 102.314 269.969C102.621 270.145 102.977 270.233 103.384 270.233C103.648 270.233 103.886 270.196 104.099 270.122C104.315 270.045 104.501 269.932 104.658 269.781C104.814 269.628 104.935 269.437 105.02 269.21L105.991 269.483C105.889 269.812 105.717 270.102 105.476 270.352C105.234 270.599 104.936 270.793 104.581 270.932C104.226 271.068 103.827 271.136 103.384 271.136ZM108.629 267.062V271H107.624V264.455H108.595V265.477H108.68C108.834 265.145 109.067 264.878 109.379 264.676C109.692 264.472 110.095 264.369 110.589 264.369C111.033 264.369 111.42 264.46 111.753 264.642C112.085 264.821 112.344 265.094 112.528 265.46C112.713 265.824 112.805 266.284 112.805 266.841V271H111.8V266.909C111.8 266.395 111.666 265.994 111.399 265.707C111.132 265.418 110.766 265.273 110.3 265.273C109.979 265.273 109.692 265.342 109.439 265.482C109.189 265.621 108.991 265.824 108.847 266.091C108.702 266.358 108.629 266.682 108.629 267.062ZM117.115 271.136C116.569 271.136 116.088 270.999 115.67 270.723C115.252 270.445 114.926 270.053 114.69 269.547C114.454 269.038 114.336 268.438 114.336 267.744C114.336 267.057 114.454 266.46 114.69 265.955C114.926 265.449 115.254 265.058 115.674 264.783C116.095 264.507 116.581 264.369 117.132 264.369C117.558 264.369 117.895 264.44 118.142 264.582C118.392 264.722 118.582 264.881 118.713 265.06C118.846 265.236 118.95 265.381 119.024 265.494H119.109V262.273H120.115V271H119.143V269.994H119.024C118.95 270.114 118.845 270.264 118.708 270.446C118.572 270.625 118.377 270.786 118.125 270.928C117.872 271.067 117.535 271.136 117.115 271.136ZM117.251 270.233C117.654 270.233 117.995 270.128 118.274 269.918C118.552 269.705 118.764 269.411 118.909 269.036C119.054 268.658 119.126 268.222 119.126 267.727C119.126 267.239 119.055 266.811 118.913 266.445C118.771 266.075 118.561 265.788 118.282 265.584C118.004 265.376 117.66 265.273 117.251 265.273C116.825 265.273 116.47 265.382 116.186 265.601C115.904 265.817 115.693 266.111 115.551 266.483C115.412 266.852 115.342 267.267 115.342 267.727C115.342 268.193 115.413 268.616 115.555 268.997C115.7 269.375 115.913 269.676 116.194 269.901C116.478 270.122 116.831 270.233 117.251 270.233ZM124.841 271.136C124.21 271.136 123.666 270.997 123.208 270.719C122.754 270.438 122.403 270.045 122.156 269.543C121.912 269.037 121.789 268.449 121.789 267.778C121.789 267.108 121.912 266.517 122.156 266.006C122.403 265.491 122.747 265.091 123.187 264.804C123.63 264.514 124.147 264.369 124.738 264.369C125.079 264.369 125.416 264.426 125.748 264.54C126.081 264.653 126.383 264.838 126.656 265.094C126.929 265.347 127.146 265.682 127.308 266.099C127.47 266.517 127.551 267.031 127.551 267.642V268.068H122.505V267.199H126.528C126.528 266.83 126.454 266.5 126.306 266.21C126.162 265.92 125.954 265.692 125.684 265.524C125.417 265.357 125.102 265.273 124.738 265.273C124.338 265.273 123.991 265.372 123.699 265.571C123.409 265.767 123.186 266.023 123.029 266.338C122.873 266.653 122.795 266.991 122.795 267.352V267.932C122.795 268.426 122.88 268.845 123.051 269.189C123.224 269.53 123.464 269.79 123.771 269.969C124.078 270.145 124.434 270.233 124.841 270.233C125.105 270.233 125.343 270.196 125.556 270.122C125.772 270.045 125.958 269.932 126.115 269.781C126.271 269.628 126.392 269.437 126.477 269.21L127.449 269.483C127.346 269.812 127.174 270.102 126.933 270.352C126.691 270.599 126.393 270.793 126.038 270.932C125.683 271.068 125.284 271.136 124.841 271.136ZM129.081 271V264.455H130.052V265.443H130.12C130.24 265.119 130.456 264.857 130.768 264.655C131.081 264.453 131.433 264.352 131.825 264.352C131.899 264.352 131.991 264.354 132.102 264.357C132.213 264.359 132.297 264.364 132.353 264.369V265.392C132.319 265.384 132.241 265.371 132.119 265.354C132 265.334 131.873 265.324 131.74 265.324C131.422 265.324 131.137 265.391 130.887 265.524C130.64 265.655 130.444 265.837 130.299 266.07C130.157 266.3 130.086 266.562 130.086 266.858V271H129.081ZM134.278 271.068C134.068 271.068 133.888 270.993 133.737 270.842C133.587 270.692 133.511 270.511 133.511 270.301C133.511 270.091 133.587 269.911 133.737 269.76C133.888 269.609 134.068 269.534 134.278 269.534C134.489 269.534 134.669 269.609 134.82 269.76C134.97 269.911 135.045 270.091 135.045 270.301C135.045 270.44 135.01 270.568 134.939 270.685C134.871 270.801 134.778 270.895 134.662 270.966C134.548 271.034 134.42 271.068 134.278 271.068ZM134.278 266.21C134.068 266.21 133.888 266.135 133.737 265.984C133.587 265.834 133.511 265.653 133.511 265.443C133.511 265.233 133.587 265.053 133.737 264.902C133.888 264.751 134.068 264.676 134.278 264.676C134.489 264.676 134.669 264.751 134.82 264.902C134.97 265.053 135.045 265.233 135.045 265.443C135.045 265.582 135.01 265.71 134.939 265.827C134.871 265.943 134.778 266.037 134.662 266.108C134.548 266.176 134.42 266.21 134.278 266.21ZM140.362 262.273H141.623L144.589 269.517H144.691L147.657 262.273H148.918V271H147.93V264.369H147.844L145.117 271H144.163L141.435 264.369H141.35V271H140.362V262.273ZM152.827 271.153C152.412 271.153 152.036 271.075 151.698 270.919C151.36 270.76 151.091 270.531 150.892 270.233C150.694 269.932 150.594 269.568 150.594 269.142C150.594 268.767 150.668 268.463 150.816 268.23C150.963 267.994 151.161 267.81 151.408 267.676C151.655 267.543 151.928 267.443 152.226 267.378C152.527 267.31 152.83 267.256 153.134 267.216C153.532 267.165 153.854 267.126 154.101 267.101C154.351 267.072 154.533 267.026 154.647 266.96C154.763 266.895 154.821 266.781 154.821 266.619V266.585C154.821 266.165 154.706 265.838 154.476 265.605C154.249 265.372 153.904 265.256 153.441 265.256C152.961 265.256 152.584 265.361 152.311 265.571C152.039 265.781 151.847 266.006 151.736 266.244L150.782 265.903C150.952 265.506 151.179 265.196 151.463 264.974C151.75 264.75 152.063 264.594 152.401 264.506C152.742 264.415 153.077 264.369 153.407 264.369C153.617 264.369 153.858 264.395 154.131 264.446C154.407 264.494 154.672 264.595 154.928 264.749C155.186 264.902 155.401 265.134 155.571 265.443C155.742 265.753 155.827 266.168 155.827 266.688V271H154.821V270.114H154.77C154.702 270.256 154.588 270.408 154.429 270.57C154.27 270.732 154.059 270.869 153.794 270.983C153.53 271.097 153.208 271.153 152.827 271.153ZM152.98 270.25C153.378 270.25 153.713 270.172 153.986 270.016C154.262 269.859 154.469 269.658 154.608 269.411C154.75 269.163 154.821 268.903 154.821 268.631V267.71C154.779 267.761 154.685 267.808 154.54 267.851C154.398 267.891 154.233 267.926 154.046 267.957C153.861 267.986 153.681 268.011 153.505 268.034C153.331 268.054 153.191 268.071 153.083 268.085C152.821 268.119 152.577 268.175 152.35 268.251C152.125 268.325 151.944 268.437 151.804 268.588C151.668 268.736 151.6 268.937 151.6 269.193C151.6 269.543 151.729 269.807 151.988 269.986C152.249 270.162 152.58 270.25 152.98 270.25ZM158.668 262.273V271H157.663V262.273H158.668ZM163.255 271.136C162.624 271.136 162.08 270.997 161.623 270.719C161.168 270.438 160.817 270.045 160.57 269.543C160.326 269.037 160.203 268.449 160.203 267.778C160.203 267.108 160.326 266.517 160.57 266.006C160.817 265.491 161.161 265.091 161.601 264.804C162.044 264.514 162.561 264.369 163.152 264.369C163.493 264.369 163.83 264.426 164.162 264.54C164.495 264.653 164.797 264.838 165.07 265.094C165.343 265.347 165.56 265.682 165.722 266.099C165.884 266.517 165.965 267.031 165.965 267.642V268.068H160.919V267.199H164.942C164.942 266.83 164.868 266.5 164.721 266.21C164.576 265.92 164.368 265.692 164.098 265.524C163.831 265.357 163.516 265.273 163.152 265.273C162.752 265.273 162.405 265.372 162.113 265.571C161.823 265.767 161.6 266.023 161.444 266.338C161.287 266.653 161.209 266.991 161.209 267.352V267.932C161.209 268.426 161.294 268.845 161.465 269.189C161.638 269.53 161.878 269.79 162.185 269.969C162.492 270.145 162.848 270.233 163.255 270.233C163.519 270.233 163.757 270.196 163.971 270.122C164.186 270.045 164.373 269.932 164.529 269.781C164.685 269.628 164.806 269.437 164.891 269.21L165.863 269.483C165.76 269.812 165.588 270.102 165.347 270.352C165.105 270.599 164.807 270.793 164.452 270.932C164.097 271.068 163.698 271.136 163.255 271.136Z" fill="#644A41"/>
<path d="M105 170C149.183 170 185 134.183 185 90C185 45.8172 149.183 10 105 10C60.8172 10 25 45.8172 25 90C25 134.183 60.8172 170 105 170Z" fill="#FFCE33"/>
<path d="M116.84 101.169H92.372C85.1712 101.169 79.0543 92.6843 77.958 81.2055L75.7156 57.6174C74.3576 43.3674 81.1971 30.5227 90.1295 30.5227H119.269C128.276 30.5227 135.128 43.5776 133.658 57.9195L131.216 81.5076C130.045 92.8551 123.966 101.169 116.827 101.169H116.84Z" fill="#2E2E2E"/>
<path d="M125.51 70.7247C122.433 75.9387 122.732 82.1247 126.17 84.5281C129.621 86.9316 134.916 84.6595 137.993 79.4323C141.07 74.2182 140.771 68.0323 137.333 65.6288C133.882 63.2253 128.587 65.4975 125.51 70.7115V70.7247Z" fill="#F5F5FF" stroke="#2E2E2E" stroke-width="0.54" stroke-linecap="round" stroke-linejoin="round"/>
<path d="M134.742 68.1372C136.237 68.7545 137.37 70.2517 137.607 71.9197C137.844 73.5877 137.183 75.3739 135.938 76.4377" stroke="#2E2E2E" stroke-width="0.54" stroke-linecap="round" stroke-linejoin="round"/>
<path d="M83.9131 70.7247C86.9902 75.9387 86.6912 82.1247 83.2528 84.5281C79.8019 86.9316 74.5073 84.6595 71.4301 79.4323C68.353 74.2182 68.652 68.0323 72.0904 65.6288C75.5413 63.2253 80.836 65.4975 83.9131 70.7115V70.7247Z" fill="#F5F5FF" stroke="#2E2E2E" stroke-width="0.54" stroke-linecap="round" stroke-linejoin="round"/>
<path d="M74.6815 68.1372C73.1865 68.7545 72.0528 70.2517 71.8161 71.9197C71.5794 73.5877 72.2397 75.3739 73.4855 76.4377" stroke="#2E2E2E" stroke-width="0.54" stroke-linecap="round" stroke-linejoin="round"/>
<path d="M119.493 131.113C119.767 139.939 113.077 147.228 104.705 147.228C96.3336 147.228 89.9053 140.215 89.9053 131.639C89.9053 131.468 89.9053 131.284 89.9177 131.113L91.5622 107.854L91.9858 101.97L92.808 90.4121H116.603L117.911 108.668L118.845 121.959L119.506 131.1L119.493 131.113Z" fill="#F5F5FF" stroke="#2E2E2E" stroke-width="0.56" stroke-linecap="round" stroke-linejoin="round"/>
<path d="M118.845 121.972C111.034 122.563 102.425 118.465 96.5203 110.506C94.527 107.84 93.0072 104.938 91.9856 101.983L92.8078 90.425H116.603L117.911 108.681L118.845 121.972Z" fill="#2E2E2E"/>
<path d="M130.182 86.1829C129.26 88.6914 127.915 91.305 126.308 93.8398C123.206 98.7256 119.095 103.309 114.983 106.225C110.486 109.403 104.581 110.441 99.4482 108.602C95.4118 107.157 92.073 104.097 89.0956 100.879C85.3831 96.8606 81.9945 92.3689 80.0884 87.1154C78.6059 83.0308 77.983 78.4997 77.8086 73.8504C77.5719 67.4149 78.2322 60.7693 78.7554 54.8591C79.5153 46.1384 84.5359 37.8642 91.6744 33.425C98.6758 29.0778 107.633 28.4342 115.133 31.7308C122.633 35.0404 128.488 42.1983 130.481 50.5119C131.901 56.422 131.416 62.5555 131.503 68.5838C131.528 70.278 131.602 71.9854 131.64 73.6928C131.752 77.935 131.665 82.1772 130.195 86.1829H130.182Z" fill="#F5F5FF" stroke="#2E2E2E" stroke-width="0.54" stroke-linecap="round" stroke-linejoin="round"/>
<path d="M131.74 73.9686V74.1787L131.59 74.0342C129.734 72.34 128.6 69.8709 128.488 67.2967L127.516 47.8326C126.545 47.4254 125.61 47.0052 124.663 46.5455C123.256 45.8231 121.873 45.0614 120.602 44.2208C117.812 42.4609 115.395 40.4515 113.551 38.3895C110.91 39.0593 107.895 39.4139 104.83 39.4139C101.255 39.4139 97.804 38.9411 94.8514 38.0217C93.1322 40.0443 90.8648 42.0012 88.2486 43.7349C86.7537 44.7462 85.1466 45.6918 83.4398 46.5324C83.0661 46.7162 82.655 46.9132 82.1567 47.1365L81.1849 67.2835C81.0479 69.9628 79.8519 72.4713 77.896 74.1656L77.7465 74.2969V74.0999C77.5223 68.111 78.0829 61.8725 78.5563 56.3826L78.6809 55.1086C79.1792 49.4743 81.3843 44.0764 84.8351 39.7291C86.7537 37.2994 89.0584 35.198 91.6497 33.5826C98.6636 29.2353 107.683 28.5786 115.195 31.9015C118.883 33.5169 122.209 36.1042 124.85 39.3088C127.566 42.5791 129.584 46.5324 130.594 50.7483C131.69 55.3056 131.665 60.0469 131.615 64.6437C131.603 66.0227 131.603 67.4543 131.615 68.8464C131.628 69.8183 131.652 70.8165 131.69 71.7884C131.702 72.5107 131.727 73.22 131.74 73.9554V73.9686Z" fill="#2E2E2E"/>
<path d="M108.754 63.3172C109.39 61.7018 110.636 60.5198 112.018 59.6923C113.414 58.878 115.008 58.4315 116.615 58.379C118.223 58.3264 119.83 58.6548 121.275 59.364C122.707 60.0863 124.028 61.1633 124.775 62.7262L120.49 62.608C119.194 62.5817 117.961 62.5949 116.74 62.6211C115.519 62.6605 114.286 62.7393 113.003 62.8444C111.707 62.9495 110.386 63.1071 108.754 63.3041V63.3172Z" fill="#2E2E2E"/>
<path d="M100.669 63.3174C99.037 63.1204 97.7164 62.9628 96.4208 62.8577C95.1376 62.7395 93.9043 62.6738 92.6834 62.6344C91.4625 62.595 90.2292 62.595 88.9335 62.6213L84.6479 62.7395C85.3954 61.1766 86.716 60.0996 88.1487 59.3773C89.5938 58.668 91.2009 58.3266 92.808 58.3922C94.4151 58.4448 95.9972 58.8913 97.405 59.7056C98.7878 60.5199 100.034 61.7151 100.669 63.3305V63.3174Z" fill="#2E2E2E"/>
<path d="M109.502 74.7042C109.788 74.0213 110.112 73.3646 110.424 72.7079L110.449 72.6685C111.209 71.4602 112.168 70.3044 113.439 69.5427C114.684 68.7547 116.192 68.3606 117.662 68.4526C119.119 68.5314 120.54 68.9911 121.773 69.7791C122.383 70.1731 122.944 70.6328 123.467 71.145C123.978 71.6441 124.451 72.2482 124.638 72.9837C124.688 73.1807 124.588 73.3646 124.414 73.404C124.339 73.4302 124.265 73.4171 124.202 73.3908C123.517 73.0756 123.069 72.6553 122.57 72.2482C122.084 71.8411 121.561 71.4996 121.013 71.1975C119.942 70.6065 118.758 70.2519 117.562 70.16C116.366 70.0549 115.183 70.2782 114.099 70.8429C113.027 71.4077 112.056 72.2745 111.221 73.2858L111.246 73.2464C110.835 73.8374 110.424 74.4547 110 75.0325C109.9 75.1639 109.714 75.1901 109.589 75.0851C109.477 74.9931 109.452 74.8355 109.502 74.7173V74.7042Z" fill="#2E2E2E"/>
<path d="M114.41 72.1037C114.51 70.6853 115.681 69.6083 117.026 69.7134C118.372 69.8184 119.393 71.053 119.294 72.4715C119.194 73.8899 118.023 74.9669 116.678 74.8618C115.332 74.7567 114.311 73.5221 114.41 72.1037Z" fill="#2E2E2E"/>
<path d="M121.798 74.4545C122.695 74.2443 123.554 73.8109 124.277 73.2068" stroke="#2E2E2E" stroke-width="0.54" stroke-linecap="round" stroke-linejoin="round"/>
<path d="M109.439 70.37C110.448 68.5575 112.08 67.1391 113.961 66.443C115.843 65.7469 117.961 65.7732 119.829 66.5218" stroke="#2E2E2E" stroke-width="0.54" stroke-linecap="round" stroke-linejoin="round"/>
<path d="M99.4233 75.0194C98.9872 74.4283 98.5886 73.8242 98.1775 73.2332L98.2024 73.2726C97.3677 72.2482 96.396 71.3945 95.3246 70.8297C94.2407 70.2781 93.0572 70.0548 91.8612 70.1468C90.6653 70.2518 89.4817 70.5933 88.4104 71.1843C87.8622 71.4733 87.339 71.8279 86.8531 72.235C86.3548 72.6422 85.9063 73.0624 85.2211 73.3776C85.0591 73.4564 84.8723 73.3776 84.7975 73.2069C84.7726 73.1281 84.7601 73.0493 84.7851 72.9836C84.9719 72.235 85.4329 71.6309 85.9561 71.1318C86.4794 70.6327 87.04 70.1599 87.6504 69.7659C88.8838 68.9779 90.3164 68.5182 91.7616 68.4394C93.2192 68.3475 94.7266 68.7415 95.9848 69.5295C97.2556 70.2912 98.2148 71.4601 98.9748 72.6553L98.9997 72.6947C99.2987 73.3645 99.6226 74.0212 99.9216 74.691C99.9839 74.8486 99.9216 75.0325 99.7721 75.0982C99.6475 75.1638 99.498 75.1113 99.4233 75.0062V75.0194Z" fill="#2E2E2E"/>
<path d="M95.0004 72.1037C94.9007 70.6853 93.7297 69.6083 92.3842 69.7134C91.0387 69.8184 90.0172 71.053 90.1168 72.4715C90.2165 73.8899 91.3875 74.9669 92.733 74.8618C94.0785 74.7567 95.1 73.5221 95.0004 72.1037Z" fill="#2E2E2E"/>
<path d="M87.6132 74.4545C86.7162 74.2443 85.8566 73.8109 85.134 73.2068" stroke="#2E2E2E" stroke-width="0.54" stroke-linecap="round" stroke-linejoin="round"/>
<path d="M99.9713 70.37C98.9622 68.5575 97.3302 67.1391 95.449 66.443C93.5679 65.7469 91.45 65.7732 89.5813 66.5218" stroke="#2E2E2E" stroke-width="0.54" stroke-linecap="round" stroke-linejoin="round"/>
<path d="M102.911 92.868C103.385 93.3539 104.045 93.6297 104.705 93.6297C105.366 93.6297 106.026 93.3539 106.499 92.868C107.247 92.1062 108.58 92.579 109.614 92.7366C110.635 92.8943 112.355 93.4327 114.223 92.0537" stroke="#2E2E2E" stroke-width="0.53" stroke-linecap="round" stroke-linejoin="round"/>
<path d="M102.911 92.868C102.164 92.1063 100.831 92.5791 99.7968 92.7367C98.7752 92.8943 97.1059 93.5378 95.5237 92.2507" stroke="#2E2E2E" stroke-width="0.53" stroke-linecap="round" stroke-linejoin="round"/>
<path d="M99.959 95.9543C102.588 96.9131 105.49 97.0445 108.181 96.3221" stroke="#2E2E2E" stroke-width="0.53" stroke-linecap="round" stroke-linejoin="round"/>
<path d="M104.631 84.5414V75.269" stroke="#2E2E2E" stroke-width="0.54" stroke-linecap="round" stroke-linejoin="round"/>
<path d="M101.691 86.3408L103.173 87.4178C104.132 88.1139 105.179 88.1139 106.138 87.4178L107.621 86.3408" stroke="#2E2E2E" stroke-width="0.57" stroke-linecap="round" stroke-linejoin="round"/>
<path d="M112.978 34.1606C112.978 34.1606 110.137 31.0085 106.437 33.4251C102.737 35.8286 100.819 39.7818 98.4518 43.6299C95.1753 48.9753 91.3881 53.9924 87.1648 58.5498C84.6607 61.2685 81.8826 63.8952 78.4691 65.0772C75.0556 66.2592 70.8572 65.6814 68.5649 62.7657C71.1811 53.165 73.8596 42.7106 80.1634 35.2507C87.7379 26.2935 100.458 21.6967 111.545 25.1509C112.305 25.3873 113.065 25.6762 113.675 26.2147C115.021 27.3968 114.647 29.2092 114.199 30.759C114.112 31.061 112.891 34.0686 112.978 34.1606Z" fill="#2E2E2E"/>
<path d="M112.504 29.9316C112.766 38.6524 117.052 47.0185 122.097 53.1519C124.713 56.3434 127.815 58.852 130.307 62.201C131.017 63.1598 131.652 63.8033 132.188 64.3156C133.322 65.4451 134.991 64.8146 135.303 63.081C136.386 57.2234 135.651 52.2983 132.911 45.5476C129.248 36.5379 120.179 32.3351 112.504 29.9316Z" fill="#2E2E2E"/>
<path d="M162.062 190.937C150.701 196.335 140.336 198.003 138.903 194.654C137.47 191.305 145.518 184.213 156.867 178.801C168.229 173.404 178.594 171.736 180.027 175.085C181.46 178.434 173.412 185.526 162.062 190.937Z" fill="#2E2E2E"/>
<path d="M157.067 220.343L151.747 206.724L147.486 195.81L143.899 186.603L136.013 166.403C131.864 155.778 135.938 143.997 144.895 140.766C146.465 140.202 148.059 139.952 149.642 139.965C149.791 139.965 149.941 139.965 150.078 139.978C157.017 140.241 163.732 145.678 166.423 153.979L172.801 173.653L175.654 182.479L188 220.593" fill="#F5F5FF"/>
<path d="M157.067 220.343L151.747 206.724L147.486 195.81L143.899 186.603L136.013 166.403C131.864 155.778 135.938 143.997 144.895 140.766C146.465 140.202 148.059 139.952 149.642 139.965C149.791 139.965 149.941 139.965 150.078 139.978C157.017 140.241 163.732 145.678 166.423 153.979L172.801 173.653L175.654 182.479L188 220.593" stroke="#2E2E2E" stroke-width="0.54" stroke-linecap="round" stroke-linejoin="round"/>
<path d="M179.778 174.691C177.672 171.893 167.731 173.653 156.867 178.815C145.506 184.226 137.445 191.318 138.903 194.68C138.94 194.759 138.978 194.812 139.028 194.877L138.903 194.93L126.358 163.921C121.437 151.746 126.756 137.864 137.944 133.74C140.062 132.965 142.217 132.584 144.36 132.584C152.021 132.584 159.371 137.378 163.134 145.14L179.778 174.704V174.691Z" fill="#2E2E2E"/>
<path d="M47.249 191.147C58.6107 196.545 68.9758 198.213 70.4085 194.864C71.8412 191.515 63.7933 184.423 52.444 179.012C41.0823 173.614 30.7172 171.946 29.2845 175.295C27.8519 178.644 35.8997 185.736 47.249 191.147Z" fill="#2E2E2E"/>
<path d="M21 220.593L33.6075 182.597L36.5227 173.785L43.0383 154.163C45.8413 145.718 52.8054 140.281 59.9065 140.281H59.9937C61.5509 140.294 63.1082 140.556 64.6405 141.121C73.5729 144.418 77.5844 156.225 73.3611 166.824L65.3382 186.958L61.688 196.138L57.8011 205.909L51.9458 220.593" fill="#F5F5FF"/>
<path d="M21 220.593L33.6075 182.597L36.5227 173.784L43.0383 154.163C45.8413 145.718 52.8054 140.281 59.9065 140.281H59.9937C61.5509 140.294 63.1082 140.556 64.6405 141.121C73.5729 144.418 77.5844 156.225 73.3611 166.824L65.3382 186.958L61.688 196.138L57.8011 205.909L51.9458 220.593" stroke="#2E2E2E" stroke-width="0.54" stroke-linecap="round" stroke-linejoin="round"/>
<path d="M29.5215 174.888C31.6269 172.09 41.5684 173.85 52.4318 179.012C63.7935 184.423 71.8539 191.515 70.3963 194.877C70.3589 194.956 70.3216 195.009 70.2717 195.074L70.3963 195.127L82.9416 164.118C87.8625 151.943 82.5429 138.061 71.3556 133.937C69.2377 133.162 67.0825 132.781 64.9397 132.781C57.278 132.781 49.9278 137.575 46.1654 145.337L29.5215 174.901V174.888Z" fill="#2E2E2E"/>
<path d="M152.046 221H56.9788L57.4771 206.317L57.8259 195.718L58.2619 182.715L59.6822 140.688L59.8939 134.436L62.9586 133.267L80.7736 126.49L82.2561 125.926L84.212 125.177L85.9188 124.52L90.3788 121.999H117.986L122.981 124.415L124.676 125.072L126.831 125.886L128.114 126.372L146.452 133.359L149.28 134.436L149.48 140.701L150.24 164.368L150.813 182.453L151.224 195.547V195.613L151.598 207.433L152.046 221Z" fill="#2E2E2E"/>
<path d="M126.831 125.886C117.749 132.873 110.087 141.883 104.519 152.18C98.9623 141.909 91.3131 132.913 82.2561 125.926L84.212 125.177L85.9188 124.52L90.3663 121.999H117.973L122.969 124.415L124.663 125.059L126.818 125.873L126.831 125.886Z" fill="#F5F5FF"/>
<path d="M118.845 121.972L122.981 124.415L124.676 125.059L126.831 125.873C117.749 132.86 110.087 141.87 104.519 152.166C98.9623 141.896 91.3131 132.899 82.2561 125.912L84.212 125.164L85.9188 124.507L90.6279 121.893" fill="#F5F5FF"/>
<path d="M118.845 121.972L122.981 124.415L124.676 125.059L126.831 125.873C117.749 132.86 110.087 141.87 104.519 152.166C98.9623 141.896 91.3131 132.899 82.2561 125.912L84.212 125.164L85.9188 124.507L90.6279 121.893" stroke="#2E2E2E" stroke-width="0.56" stroke-linecap="round" stroke-linejoin="round"/>
</svg>
