<svg width="209" height="284" viewBox="0 0 209 284" fill="none" xmlns="http://www.w3.org/2000/svg">
<rect width="209" height="284" rx="20" fill="#F6F5F3"/>
<path d="M85.2795 240.362H82.6232C82.5475 239.927 82.4078 239.541 82.2042 239.205C82.0006 238.864 81.7473 238.575 81.4442 238.338C81.1412 238.101 80.7956 237.924 80.4073 237.805C80.0238 237.682 79.6095 237.621 79.1644 237.621C78.3737 237.621 77.6729 237.82 77.0621 238.217C76.4513 238.61 75.9731 239.188 75.6275 239.95C75.2818 240.708 75.109 241.634 75.109 242.727C75.109 243.84 75.2818 244.777 75.6275 245.54C75.9779 246.297 76.4561 246.87 77.0621 247.259C77.6729 247.642 78.3713 247.834 79.1573 247.834C79.5929 247.834 80.0001 247.777 80.3789 247.663C80.7624 247.545 81.1057 247.372 81.4087 247.145C81.7165 246.918 81.9746 246.638 82.1829 246.307C82.396 245.975 82.5427 245.597 82.6232 245.17L85.2795 245.185C85.18 245.876 84.9646 246.525 84.6332 247.131C84.3065 247.737 83.878 248.272 83.3477 248.736C82.8174 249.195 82.1971 249.555 81.4869 249.815C80.7766 250.071 79.9883 250.199 79.1218 250.199C77.8434 250.199 76.7023 249.903 75.6985 249.311C74.6947 248.719 73.904 247.865 73.3263 246.747C72.7487 245.63 72.4599 244.29 72.4599 242.727C72.4599 241.16 72.7511 239.82 73.3335 238.707C73.9158 237.59 74.7089 236.735 75.7127 236.143C76.7165 235.552 77.8529 235.256 79.1218 235.256C79.9315 235.256 80.6843 235.369 81.3803 235.597C82.0763 235.824 82.6966 236.158 83.2411 236.598C83.7856 237.034 84.2331 237.569 84.5835 238.203C84.9386 238.833 85.1706 239.553 85.2795 240.362ZM90.718 250.22C90.0268 250.22 89.4041 250.097 88.8501 249.851C88.3009 249.6 87.8653 249.231 87.5433 248.743C87.2261 248.255 87.0675 247.654 87.0675 246.939C87.0675 246.323 87.1811 245.814 87.4084 245.412C87.6357 245.009 87.9458 244.688 88.3388 244.446C88.7318 244.205 89.1745 244.022 89.6669 243.899C90.1641 243.771 90.6778 243.679 91.2081 243.622C91.8473 243.556 92.3658 243.497 92.7635 243.445C93.1612 243.388 93.45 243.303 93.63 243.189C93.8146 243.071 93.907 242.888 93.907 242.642V242.599C93.907 242.064 93.7483 241.65 93.4311 241.357C93.1139 241.063 92.657 240.916 92.0604 240.916C91.4306 240.916 90.9311 241.054 90.5618 241.328C90.1972 241.603 89.951 241.927 89.8232 242.301L87.4226 241.96C87.612 241.297 87.9245 240.743 88.3601 240.298C88.7957 239.848 89.3284 239.512 89.9581 239.29C90.5878 239.062 91.2839 238.949 92.0462 238.949C92.5717 238.949 93.0949 239.01 93.6158 239.134C94.1366 239.257 94.6125 239.46 95.0433 239.744C95.4742 240.024 95.8198 240.405 96.0803 240.888C96.3454 241.371 96.478 241.974 96.478 242.699V250H94.0064V248.501H93.9212C93.7649 248.804 93.5447 249.089 93.2607 249.354C92.9813 249.614 92.6286 249.825 92.2024 249.986C91.781 250.142 91.2862 250.22 90.718 250.22ZM91.3857 248.331C91.9018 248.331 92.3492 248.229 92.728 248.026C93.1068 247.817 93.398 247.543 93.6016 247.202C93.8099 246.861 93.9141 246.489 93.9141 246.087V244.801C93.8336 244.867 93.6963 244.929 93.5021 244.986C93.3127 245.043 93.0997 245.092 92.8629 245.135C92.6262 245.178 92.3918 245.215 92.1598 245.249C91.9278 245.282 91.7266 245.31 91.5561 245.334C91.1726 245.386 90.8293 245.471 90.5263 245.589C90.2232 245.708 89.9841 245.874 89.8089 246.087C89.6338 246.295 89.5462 246.565 89.5462 246.896C89.5462 247.37 89.719 247.727 90.0646 247.969C90.4103 248.21 90.8506 248.331 91.3857 248.331ZM99.0632 250V239.091H101.521V240.945H101.648C101.876 240.32 102.252 239.832 102.778 239.482C103.303 239.126 103.931 238.949 104.66 238.949C105.398 238.949 106.021 239.129 106.528 239.489C107.039 239.844 107.399 240.329 107.607 240.945H107.721C107.962 240.339 108.37 239.856 108.942 239.496C109.52 239.131 110.204 238.949 110.995 238.949C111.999 238.949 112.818 239.266 113.452 239.901C114.087 240.535 114.404 241.461 114.404 242.678V250H111.826V243.075C111.826 242.398 111.646 241.903 111.286 241.591C110.926 241.274 110.486 241.115 109.965 241.115C109.345 241.115 108.86 241.309 108.509 241.697C108.164 242.081 107.991 242.58 107.991 243.196V250H105.469V242.969C105.469 242.405 105.299 241.955 104.958 241.619C104.622 241.283 104.182 241.115 103.637 241.115C103.268 241.115 102.932 241.21 102.629 241.399C102.326 241.584 102.084 241.847 101.904 242.188C101.724 242.524 101.634 242.917 101.634 243.366V250H99.0632ZM117.012 250V239.091H119.583V250H117.012ZM118.305 237.543C117.898 237.543 117.547 237.408 117.254 237.138C116.96 236.863 116.814 236.534 116.814 236.151C116.814 235.762 116.96 235.433 117.254 235.163C117.547 234.889 117.898 234.751 118.305 234.751C118.717 234.751 119.067 234.889 119.356 235.163C119.65 235.433 119.797 235.762 119.797 236.151C119.797 236.534 119.65 236.863 119.356 237.138C119.067 237.408 118.717 237.543 118.305 237.543ZM124.798 235.455V250H122.227V235.455H124.798ZM130.581 250.22C129.89 250.22 129.267 250.097 128.713 249.851C128.164 249.6 127.729 249.231 127.407 248.743C127.089 248.255 126.931 247.654 126.931 246.939C126.931 246.323 127.044 245.814 127.272 245.412C127.499 245.009 127.809 244.688 128.202 244.446C128.595 244.205 129.038 244.022 129.53 243.899C130.027 243.771 130.541 243.679 131.071 243.622C131.711 243.556 132.229 243.497 132.627 243.445C133.025 243.388 133.313 243.303 133.493 243.189C133.678 243.071 133.77 242.888 133.77 242.642V242.599C133.77 242.064 133.612 241.65 133.294 241.357C132.977 241.063 132.52 240.916 131.924 240.916C131.294 240.916 130.794 241.054 130.425 241.328C130.06 241.603 129.814 241.927 129.686 242.301L127.286 241.96C127.475 241.297 127.788 240.743 128.223 240.298C128.659 239.848 129.192 239.512 129.821 239.29C130.451 239.062 131.147 238.949 131.909 238.949C132.435 238.949 132.958 239.01 133.479 239.134C134 239.257 134.476 239.46 134.907 239.744C135.337 240.024 135.683 240.405 135.944 240.888C136.209 241.371 136.341 241.974 136.341 242.699V250H133.87V248.501H133.784C133.628 248.804 133.408 249.089 133.124 249.354C132.845 249.614 132.492 249.825 132.066 249.986C131.644 250.142 131.15 250.22 130.581 250.22ZM131.249 248.331C131.765 248.331 132.212 248.229 132.591 248.026C132.97 247.817 133.261 247.543 133.465 247.202C133.673 246.861 133.777 246.489 133.777 246.087V244.801C133.697 244.867 133.56 244.929 133.365 244.986C133.176 245.043 132.963 245.092 132.726 245.135C132.489 245.178 132.255 245.215 132.023 245.249C131.791 245.282 131.59 245.31 131.419 245.334C131.036 245.386 130.693 245.471 130.39 245.589C130.087 245.708 129.847 245.874 129.672 246.087C129.497 246.295 129.409 246.565 129.409 246.896C129.409 247.37 129.582 247.727 129.928 247.969C130.274 248.21 130.714 248.331 131.249 248.331Z" fill="#101828"/>
<path d="M36.0183 271H34.9103L38.1149 262.273H39.2058L42.4103 271H41.3024L38.6944 263.653H38.6262L36.0183 271ZM36.4274 267.591H40.8933V268.528H36.4274V267.591ZM46.2754 273.591C45.7896 273.591 45.372 273.528 45.0225 273.403C44.6731 273.281 44.3819 273.119 44.149 272.918C43.9189 272.719 43.7356 272.506 43.5993 272.278L44.4004 271.716C44.4913 271.835 44.6064 271.972 44.7456 272.125C44.8848 272.281 45.0751 272.416 45.3166 272.53C45.5609 272.646 45.8805 272.705 46.2754 272.705C46.8038 272.705 47.2399 272.577 47.5836 272.321C47.9274 272.065 48.0993 271.665 48.0993 271.119V269.79H48.014C47.9402 269.909 47.835 270.057 47.6987 270.233C47.5652 270.406 47.372 270.561 47.1191 270.697C46.8691 270.831 46.5311 270.898 46.1049 270.898C45.5765 270.898 45.1021 270.773 44.6816 270.523C44.264 270.273 43.9331 269.909 43.6887 269.432C43.4473 268.955 43.3265 268.375 43.3265 267.693C43.3265 267.023 43.4444 266.439 43.6802 265.942C43.916 265.442 44.2441 265.055 44.6646 264.783C45.085 264.507 45.5708 264.369 46.122 264.369C46.5481 264.369 46.8862 264.44 47.1362 264.582C47.389 264.722 47.5822 264.881 47.7157 265.06C47.8521 265.236 47.9572 265.381 48.0311 265.494H48.1333V264.455H49.1049V271.188C49.1049 271.75 48.9771 272.207 48.7214 272.56C48.4686 272.915 48.1277 273.175 47.6987 273.339C47.2725 273.507 46.7981 273.591 46.2754 273.591ZM46.2413 269.994C46.6447 269.994 46.9856 269.902 47.264 269.717C47.5424 269.533 47.7541 269.267 47.899 268.92C48.0439 268.574 48.1163 268.159 48.1163 267.676C48.1163 267.205 48.0453 266.788 47.9032 266.428C47.7612 266.067 47.551 265.784 47.2725 265.58C46.9941 265.375 46.6504 265.273 46.2413 265.273C45.8152 265.273 45.46 265.381 45.176 265.597C44.8947 265.812 44.6831 266.102 44.541 266.466C44.4018 266.83 44.3322 267.233 44.3322 267.676C44.3322 268.131 44.4032 268.533 44.5453 268.882C44.6902 269.229 44.9032 269.501 45.1845 269.7C45.4686 269.896 45.8208 269.994 46.2413 269.994ZM53.6902 271.136C53.0595 271.136 52.5154 270.997 52.0581 270.719C51.6035 270.438 51.2527 270.045 51.0055 269.543C50.7612 269.037 50.639 268.449 50.639 267.778C50.639 267.108 50.7612 266.517 51.0055 266.006C51.2527 265.491 51.5964 265.091 52.0368 264.804C52.4799 264.514 52.997 264.369 53.5879 264.369C53.9288 264.369 54.2654 264.426 54.5978 264.54C54.9302 264.653 55.2328 264.838 55.5055 265.094C55.7782 265.347 55.9956 265.682 56.1575 266.099C56.3194 266.517 56.4004 267.031 56.4004 267.642V268.068H51.3549V267.199H55.3777C55.3777 266.83 55.3038 266.5 55.1561 266.21C55.0112 265.92 54.8038 265.692 54.5339 265.524C54.2669 265.357 53.9515 265.273 53.5879 265.273C53.1873 265.273 52.8407 265.372 52.5481 265.571C52.2583 265.767 52.0353 266.023 51.8791 266.338C51.7228 266.653 51.6447 266.991 51.6447 267.352V267.932C51.6447 268.426 51.7299 268.845 51.9004 269.189C52.0737 269.53 52.3137 269.79 52.6206 269.969C52.9274 270.145 53.2839 270.233 53.6902 270.233C53.9544 270.233 54.193 270.196 54.4061 270.122C54.622 270.045 54.8081 269.932 54.9643 269.781C55.1206 269.628 55.2413 269.437 55.3265 269.21L56.2981 269.483C56.1958 269.812 56.024 270.102 55.7825 270.352C55.541 270.599 55.2427 270.793 54.8876 270.932C54.5325 271.068 54.1333 271.136 53.6902 271.136ZM58.6632 271.068C58.4529 271.068 58.2725 270.993 58.122 270.842C57.9714 270.692 57.8961 270.511 57.8961 270.301C57.8961 270.091 57.9714 269.911 58.122 269.76C58.2725 269.609 58.4529 269.534 58.6632 269.534C58.8734 269.534 59.0538 269.609 59.2044 269.76C59.3549 269.911 59.4302 270.091 59.4302 270.301C59.4302 270.44 59.3947 270.568 59.3237 270.685C59.2555 270.801 59.1632 270.895 59.0467 270.966C58.9331 271.034 58.8052 271.068 58.6632 271.068ZM58.6632 266.21C58.4529 266.21 58.2725 266.135 58.122 265.984C57.9714 265.834 57.8961 265.653 57.8961 265.443C57.8961 265.233 57.9714 265.053 58.122 264.902C58.2725 264.751 58.4529 264.676 58.6632 264.676C58.8734 264.676 59.0538 264.751 59.2044 264.902C59.3549 265.053 59.4302 265.233 59.4302 265.443C59.4302 265.582 59.3947 265.71 59.3237 265.827C59.2555 265.943 59.1632 266.037 59.0467 266.108C58.9331 266.176 58.8052 266.21 58.6632 266.21ZM64.3883 269.21V268.341L68.2235 262.273H68.8542V263.619H68.4281L65.5304 268.205V268.273H70.6951V269.21H64.3883ZM68.4963 271V268.946V268.541V262.273H69.502V271H68.4963ZM75.1387 271.119C74.4966 271.119 73.9498 270.945 73.498 270.595C73.0463 270.243 72.7012 269.733 72.4625 269.065C72.2239 268.395 72.1046 267.585 72.1046 266.636C72.1046 265.693 72.2239 264.888 72.4625 264.22C72.704 263.55 73.0506 263.038 73.5023 262.686C73.9569 262.331 74.5023 262.153 75.1387 262.153C75.775 262.153 76.3191 262.331 76.7708 262.686C77.2253 263.038 77.5719 263.55 77.8105 264.22C78.052 264.888 78.1728 265.693 78.1728 266.636C78.1728 267.585 78.0534 268.395 77.8148 269.065C77.5762 269.733 77.231 270.243 76.7793 270.595C76.3276 270.945 75.7807 271.119 75.1387 271.119ZM75.1387 270.182C75.775 270.182 76.2694 269.875 76.6216 269.261C76.9739 268.648 77.15 267.773 77.15 266.636C77.15 265.881 77.0691 265.237 76.9071 264.706C76.748 264.175 76.5179 263.77 76.2168 263.491C75.9185 263.213 75.5591 263.074 75.1387 263.074C74.508 263.074 74.0151 263.385 73.66 264.007C73.3049 264.626 73.1273 265.503 73.1273 266.636C73.1273 267.392 73.2069 268.034 73.3659 268.562C73.525 269.091 73.7537 269.493 74.052 269.768C74.3532 270.044 74.7154 270.182 75.1387 270.182ZM81.0044 269.807L80.9363 270.267C80.888 270.591 80.8141 270.938 80.7147 271.307C80.6181 271.676 80.5172 272.024 80.4121 272.351C80.307 272.678 80.2203 272.938 80.1522 273.131H79.3851C79.4221 272.949 79.4703 272.709 79.53 272.411C79.5897 272.112 79.6493 271.778 79.709 271.409C79.7715 271.043 79.8226 270.668 79.8624 270.284L79.9135 269.807H81.0044ZM92.345 265C92.2512 264.713 92.1277 264.456 91.9743 264.229C91.8237 263.999 91.6433 263.803 91.4331 263.641C91.2257 263.479 90.9899 263.355 90.7257 263.27C90.4615 263.185 90.1717 263.142 89.8564 263.142C89.3393 263.142 88.8691 263.276 88.4458 263.543C88.0225 263.81 87.6859 264.203 87.4359 264.723C87.1859 265.243 87.0609 265.881 87.0609 266.636C87.0609 267.392 87.1873 268.03 87.4402 268.55C87.693 269.07 88.0353 269.463 88.4672 269.73C88.899 269.997 89.3848 270.131 89.9245 270.131C90.4245 270.131 90.8649 270.024 91.2456 269.811C91.6291 269.595 91.9274 269.291 92.1404 268.899C92.3564 268.504 92.4643 268.04 92.4643 267.506L92.7882 267.574H90.1632V266.636H93.487V267.574C93.487 268.293 93.3336 268.918 93.0268 269.449C92.7228 269.98 92.3024 270.392 91.7654 270.685C91.2314 270.974 90.6177 271.119 89.9245 271.119C89.1518 271.119 88.4728 270.938 87.8876 270.574C87.3052 270.21 86.8507 269.693 86.524 269.023C86.2001 268.352 86.0382 267.557 86.0382 266.636C86.0382 265.946 86.1305 265.325 86.3152 264.774C86.5027 264.22 86.7669 263.749 87.1078 263.359C87.4487 262.97 87.8521 262.672 88.318 262.464C88.7839 262.257 89.2967 262.153 89.8564 262.153C90.3166 262.153 90.7456 262.223 91.1433 262.362C91.5439 262.499 91.9004 262.693 92.2129 262.946C92.5282 263.196 92.791 263.496 93.0012 263.845C93.2115 264.192 93.3564 264.577 93.4359 265H92.345ZM97.905 271.136C97.2743 271.136 96.7303 270.997 96.2729 270.719C95.8184 270.438 95.4675 270.045 95.2203 269.543C94.976 269.037 94.8539 268.449 94.8539 267.778C94.8539 267.108 94.976 266.517 95.2203 266.006C95.4675 265.491 95.8113 265.091 96.2516 264.804C96.6948 264.514 97.2118 264.369 97.8027 264.369C98.1436 264.369 98.4803 264.426 98.8127 264.54C99.1451 264.653 99.4476 264.838 99.7203 265.094C99.9931 265.347 100.21 265.682 100.372 266.099C100.534 266.517 100.615 267.031 100.615 267.642V268.068H95.5698V267.199H99.5925C99.5925 266.83 99.5186 266.5 99.3709 266.21C99.226 265.92 99.0186 265.692 98.7488 265.524C98.4817 265.357 98.1664 265.273 97.8027 265.273C97.4022 265.273 97.0556 265.372 96.763 265.571C96.4732 265.767 96.2502 266.023 96.0939 266.338C95.9377 266.653 95.8596 266.991 95.8596 267.352V267.932C95.8596 268.426 95.9448 268.845 96.1152 269.189C96.2885 269.53 96.5286 269.79 96.8354 269.969C97.1422 270.145 97.4988 270.233 97.905 270.233C98.1692 270.233 98.4078 270.196 98.6209 270.122C98.8368 270.045 99.0229 269.932 99.1792 269.781C99.3354 269.628 99.4561 269.437 99.5414 269.21L100.513 269.483C100.411 269.812 100.239 270.102 99.9973 270.352C99.7559 270.599 99.4576 270.793 99.1025 270.932C98.7473 271.068 98.3482 271.136 97.905 271.136ZM103.151 267.062V271H102.145V264.455H103.117V265.477H103.202C103.355 265.145 103.588 264.878 103.901 264.676C104.213 264.472 104.617 264.369 105.111 264.369C105.554 264.369 105.942 264.46 106.274 264.642C106.607 264.821 106.865 265.094 107.05 265.46C107.235 265.824 107.327 266.284 107.327 266.841V271H106.321V266.909C106.321 266.395 106.188 265.994 105.921 265.707C105.654 265.418 105.287 265.273 104.821 265.273C104.5 265.273 104.213 265.342 103.96 265.482C103.71 265.621 103.513 265.824 103.368 266.091C103.223 266.358 103.151 266.682 103.151 267.062ZM111.636 271.136C111.091 271.136 110.609 270.999 110.192 270.723C109.774 270.445 109.447 270.053 109.211 269.547C108.976 269.038 108.858 268.438 108.858 267.744C108.858 267.057 108.976 266.46 109.211 265.955C109.447 265.449 109.775 265.058 110.196 264.783C110.616 264.507 111.102 264.369 111.653 264.369C112.079 264.369 112.416 264.44 112.663 264.582C112.913 264.722 113.104 264.881 113.234 265.06C113.368 265.236 113.471 265.381 113.545 265.494H113.631V262.273H114.636V271H113.665V269.994H113.545C113.471 270.114 113.366 270.264 113.23 270.446C113.094 270.625 112.899 270.786 112.646 270.928C112.393 271.067 112.057 271.136 111.636 271.136ZM111.773 270.233C112.176 270.233 112.517 270.128 112.795 269.918C113.074 269.705 113.285 269.411 113.43 269.036C113.575 268.658 113.648 268.222 113.648 267.727C113.648 267.239 113.577 266.811 113.434 266.445C113.292 266.075 113.082 265.788 112.804 265.584C112.525 265.376 112.182 265.273 111.773 265.273C111.346 265.273 110.991 265.382 110.707 265.601C110.426 265.817 110.214 266.111 110.072 266.483C109.933 266.852 109.863 267.267 109.863 267.727C109.863 268.193 109.934 268.616 110.077 268.997C110.221 269.375 110.434 269.676 110.716 269.901C111 270.122 111.352 270.233 111.773 270.233ZM119.362 271.136C118.731 271.136 118.187 270.997 117.73 270.719C117.275 270.438 116.925 270.045 116.677 269.543C116.433 269.037 116.311 268.449 116.311 267.778C116.311 267.108 116.433 266.517 116.677 266.006C116.925 265.491 117.268 265.091 117.709 264.804C118.152 264.514 118.669 264.369 119.26 264.369C119.601 264.369 119.937 264.426 120.27 264.54C120.602 264.653 120.905 264.838 121.177 265.094C121.45 265.347 121.667 265.682 121.829 266.099C121.991 266.517 122.072 267.031 122.072 267.642V268.068H117.027V267.199H121.05C121.05 266.83 120.976 266.5 120.828 266.21C120.683 265.92 120.476 265.692 120.206 265.524C119.939 265.357 119.623 265.273 119.26 265.273C118.859 265.273 118.513 265.372 118.22 265.571C117.93 265.767 117.707 266.023 117.551 266.338C117.395 266.653 117.317 266.991 117.317 267.352V267.932C117.317 268.426 117.402 268.845 117.572 269.189C117.746 269.53 117.986 269.79 118.292 269.969C118.599 270.145 118.956 270.233 119.362 270.233C119.626 270.233 119.865 270.196 120.078 270.122C120.294 270.045 120.48 269.932 120.636 269.781C120.792 269.628 120.913 269.437 120.998 269.21L121.97 269.483C121.868 269.812 121.696 270.102 121.454 270.352C121.213 270.599 120.915 270.793 120.559 270.932C120.204 271.068 119.805 271.136 119.362 271.136ZM123.602 271V264.455H124.574V265.443H124.642C124.761 265.119 124.977 264.857 125.29 264.655C125.602 264.453 125.954 264.352 126.346 264.352C126.42 264.352 126.513 264.354 126.623 264.357C126.734 264.359 126.818 264.364 126.875 264.369V265.392C126.841 265.384 126.763 265.371 126.64 265.354C126.521 265.334 126.395 265.324 126.261 265.324C125.943 265.324 125.659 265.391 125.409 265.524C125.162 265.655 124.966 265.837 124.821 266.07C124.679 266.3 124.608 266.562 124.608 266.858V271H123.602ZM128.8 271.068C128.59 271.068 128.409 270.993 128.259 270.842C128.108 270.692 128.033 270.511 128.033 270.301C128.033 270.091 128.108 269.911 128.259 269.76C128.409 269.609 128.59 269.534 128.8 269.534C129.01 269.534 129.191 269.609 129.341 269.76C129.492 269.911 129.567 270.091 129.567 270.301C129.567 270.44 129.531 270.568 129.46 270.685C129.392 270.801 129.3 270.895 129.183 270.966C129.07 271.034 128.942 271.068 128.8 271.068ZM128.8 266.21C128.59 266.21 128.409 266.135 128.259 265.984C128.108 265.834 128.033 265.653 128.033 265.443C128.033 265.233 128.108 265.053 128.259 264.902C128.409 264.751 128.59 264.676 128.8 264.676C129.01 264.676 129.191 264.751 129.341 264.902C129.492 265.053 129.567 265.233 129.567 265.443C129.567 265.582 129.531 265.71 129.46 265.827C129.392 265.943 129.3 266.037 129.183 266.108C129.07 266.176 128.942 266.21 128.8 266.21ZM134.883 271V262.273H140.116V263.21H135.94V266.159H139.724V267.097H135.94V271H134.883ZM144.053 271.136C143.423 271.136 142.879 270.997 142.421 270.719C141.967 270.438 141.616 270.045 141.369 269.543C141.124 269.037 141.002 268.449 141.002 267.778C141.002 267.108 141.124 266.517 141.369 266.006C141.616 265.491 141.96 265.091 142.4 264.804C142.843 264.514 143.36 264.369 143.951 264.369C144.292 264.369 144.629 264.426 144.961 264.54C145.294 264.653 145.596 264.838 145.869 265.094C146.142 265.347 146.359 265.682 146.521 266.099C146.683 266.517 146.764 267.031 146.764 267.642V268.068H141.718V267.199H145.741C145.741 266.83 145.667 266.5 145.519 266.21C145.374 265.92 145.167 265.692 144.897 265.524C144.63 265.357 144.315 265.273 143.951 265.273C143.551 265.273 143.204 265.372 142.911 265.571C142.622 265.767 142.399 266.023 142.242 266.338C142.086 266.653 142.008 266.991 142.008 267.352V267.932C142.008 268.426 142.093 268.845 142.264 269.189C142.437 269.53 142.677 269.79 142.984 269.969C143.291 270.145 143.647 270.233 144.053 270.233C144.318 270.233 144.556 270.196 144.769 270.122C144.985 270.045 145.171 269.932 145.328 269.781C145.484 269.628 145.605 269.437 145.69 269.21L146.661 269.483C146.559 269.812 146.387 270.102 146.146 270.352C145.904 270.599 145.606 270.793 145.251 270.932C144.896 271.068 144.497 271.136 144.053 271.136ZM148.294 271V264.455H149.265V265.477H149.35C149.487 265.128 149.707 264.857 150.011 264.663C150.315 264.467 150.68 264.369 151.106 264.369C151.538 264.369 151.897 264.467 152.184 264.663C152.474 264.857 152.7 265.128 152.862 265.477H152.93C153.097 265.139 153.349 264.871 153.684 264.672C154.019 264.47 154.421 264.369 154.89 264.369C155.475 264.369 155.954 264.553 156.326 264.919C156.698 265.283 156.884 265.849 156.884 266.619V271H155.879V266.619C155.879 266.136 155.747 265.791 155.482 265.584C155.218 265.376 154.907 265.273 154.549 265.273C154.089 265.273 153.732 265.412 153.48 265.69C153.227 265.966 153.1 266.315 153.1 266.739V271H152.078V266.517C152.078 266.145 151.957 265.845 151.715 265.618C151.474 265.388 151.163 265.273 150.782 265.273C150.521 265.273 150.276 265.342 150.049 265.482C149.825 265.621 149.643 265.814 149.504 266.061C149.367 266.305 149.299 266.588 149.299 266.909V271H148.294ZM160.649 271.153C160.235 271.153 159.858 271.075 159.52 270.919C159.182 270.76 158.914 270.531 158.715 270.233C158.516 269.932 158.416 269.568 158.416 269.142C158.416 268.767 158.49 268.463 158.638 268.23C158.786 267.994 158.983 267.81 159.23 267.676C159.477 267.543 159.75 267.443 160.048 267.378C160.35 267.31 160.652 267.256 160.956 267.216C161.354 267.165 161.676 267.126 161.923 267.101C162.173 267.072 162.355 267.026 162.469 266.96C162.585 266.895 162.644 266.781 162.644 266.619V266.585C162.644 266.165 162.529 265.838 162.298 265.605C162.071 265.372 161.726 265.256 161.263 265.256C160.783 265.256 160.406 265.361 160.134 265.571C159.861 265.781 159.669 266.006 159.558 266.244L158.604 265.903C158.774 265.506 159.002 265.196 159.286 264.974C159.573 264.75 159.885 264.594 160.223 264.506C160.564 264.415 160.899 264.369 161.229 264.369C161.439 264.369 161.681 264.395 161.953 264.446C162.229 264.494 162.494 264.595 162.75 264.749C163.009 264.902 163.223 265.134 163.394 265.443C163.564 265.753 163.649 266.168 163.649 266.688V271H162.644V270.114H162.593C162.524 270.256 162.411 270.408 162.252 270.57C162.093 270.732 161.881 270.869 161.617 270.983C161.352 271.097 161.03 271.153 160.649 271.153ZM160.803 270.25C161.2 270.25 161.536 270.172 161.808 270.016C162.084 269.859 162.291 269.658 162.431 269.411C162.573 269.163 162.644 268.903 162.644 268.631V267.71C162.601 267.761 162.507 267.808 162.362 267.851C162.22 267.891 162.056 267.926 161.868 267.957C161.683 267.986 161.503 268.011 161.327 268.034C161.154 268.054 161.013 268.071 160.905 268.085C160.644 268.119 160.399 268.175 160.172 268.251C159.948 268.325 159.766 268.437 159.627 268.588C159.49 268.736 159.422 268.937 159.422 269.193C159.422 269.543 159.551 269.807 159.81 269.986C160.071 270.162 160.402 270.25 160.803 270.25ZM166.491 262.273V271H165.485V262.273H166.491ZM171.077 271.136C170.446 271.136 169.902 270.997 169.445 270.719C168.99 270.438 168.639 270.045 168.392 269.543C168.148 269.037 168.026 268.449 168.026 267.778C168.026 267.108 168.148 266.517 168.392 266.006C168.639 265.491 168.983 265.091 169.423 264.804C169.867 264.514 170.384 264.369 170.975 264.369C171.316 264.369 171.652 264.426 171.985 264.54C172.317 264.653 172.619 264.838 172.892 265.094C173.165 265.347 173.382 265.682 173.544 266.099C173.706 266.517 173.787 267.031 173.787 267.642V268.068H168.742V267.199H172.764C172.764 266.83 172.691 266.5 172.543 266.21C172.398 265.92 172.191 265.692 171.921 265.524C171.654 265.357 171.338 265.273 170.975 265.273C170.574 265.273 170.227 265.372 169.935 265.571C169.645 265.767 169.422 266.023 169.266 266.338C169.11 266.653 169.031 266.991 169.031 267.352V267.932C169.031 268.426 169.117 268.845 169.287 269.189C169.46 269.53 169.7 269.79 170.007 269.969C170.314 270.145 170.671 270.233 171.077 270.233C171.341 270.233 171.58 270.196 171.793 270.122C172.009 270.045 172.195 269.932 172.351 269.781C172.507 269.628 172.628 269.437 172.713 269.21L173.685 269.483C173.583 269.812 173.411 270.102 173.169 270.352C172.928 270.599 172.629 270.793 172.274 270.932C171.919 271.068 171.52 271.136 171.077 271.136Z" fill="#644A41"/>
<path d="M105 172C149.183 172 185 136.183 185 92C185 47.8172 149.183 12 105 12C60.8172 12 25 47.8172 25 92C25 136.183 60.8172 172 105 172Z" fill="#3B4EFF"/>
<path d="M138.939 75.3504C133.862 68.1778 125.084 63.9412 122.969 55.0559C122.07 51.2572 122.599 47.2266 122.202 43.3248C121.25 33.8859 114.627 26.4815 106.351 26.0179C106.192 26.0179 106.02 26.0051 105.862 26.0051C105.425 26.0051 105.002 26.0051 104.566 26.0308C104.13 26.0051 103.707 25.9922 103.27 26.0051C103.112 26.0051 102.94 26.005 102.781 26.0179C94.492 26.4815 87.8685 33.8859 86.9299 43.3248C86.5333 47.2266 87.0621 51.2572 86.1631 55.0559C84.0479 63.9541 75.2695 68.1778 70.1929 75.3504C65.3674 82.1624 64.1644 92.0649 67.1654 100.113C69.5186 106.41 74.278 112.05 73.8153 118.875C73.4848 123.781 70.4176 128.057 70.2061 132.976C69.9153 139.53 75.3092 145.286 81.0468 145.75C86.7977 146.213 122.361 146.213 128.098 145.75C133.849 145.286 139.23 139.53 138.939 132.976C138.727 128.057 135.66 123.781 135.33 118.875C134.867 112.05 139.626 106.41 141.98 100.113C144.981 92.052 143.778 82.1624 138.952 75.3504H138.939Z" fill="#2E2E2E"/>
<path d="M107.117 28.7736C115.393 27.8593 123.749 34.9933 125.309 44.2906C126.023 48.5014 125.494 52.9441 126.631 57.039C129.195 66.259 139.071 70.4441 142.614 79.2392C144.796 84.6476 144.187 91.1377 141.914 96.4818C139.64 101.826 135.872 106.191 131.8 109.9" stroke="#2E2E2E" stroke-width="0.46" stroke-linecap="round" stroke-linejoin="round"/>
<path d="M114.587 57.4895C127.45 70.8689 134.933 90.7126 134.576 110.556C134.523 113.814 134.285 117.227 135.488 120.176C136.466 122.571 138.278 124.399 139.481 126.653C142.72 132.718 140.406 141.693 134.814 144.797" stroke="#2E2E2E" stroke-width="0.46" stroke-linecap="round" stroke-linejoin="round"/>
<path d="M98.8418 43.4665L96.039 40.9297C93.3024 38.4444 95.497 35.1221 100.217 34.6972C101.962 34.5426 103.707 34.4396 105.188 34.4525C107.012 34.4783 108.85 34.5684 110.648 34.7487C115.711 35.2251 118.183 38.9338 115.129 41.3547L111.93 43.8915C110.687 44.883 108.731 45.4367 106.655 45.3981L104.328 45.3466C102.134 45.2951 100.084 44.5997 98.8285 43.4665H98.8418Z" fill="#F5F5FF"/>
<path d="M85 49.5574C86.3617 47.8319 87.9878 46.2738 89.7593 44.9217C90.2088 44.574 90.6715 44.252 91.1343 43.9301L92.6017 43.0931L94.0824 42.2561C94.5848 41.9985 95.1004 41.7667 95.6292 41.5478C97.7312 40.7108 99.9523 40.0927 102.226 39.8352C104.5 39.5648 106.827 39.5776 109.101 40.0283H109.048C110.886 40.2988 112.565 40.7752 114.244 41.4319C115.896 42.0887 117.456 42.9386 118.95 43.9044C119.73 44.3422 120.391 44.9088 121.078 45.4496C121.766 45.9905 122.467 46.5184 123.062 47.1494C124.291 48.3727 125.441 49.6862 126.406 51.1156C125.23 49.8536 124.013 48.6303 122.678 47.5615C122.017 47.0206 121.316 46.5313 120.603 46.042C119.902 45.5526 119.214 45.0376 118.448 44.6641C116.98 43.8271 115.42 43.106 113.834 42.5136C112.247 41.947 110.542 41.5221 108.929 41.2774H108.876C104.619 40.5305 100.151 41.0843 96.0522 42.5651C95.5367 42.7454 95.0211 42.9386 94.5319 43.1575L93.0644 43.8786L91.5838 44.5997C91.121 44.883 90.6583 45.1663 90.2088 45.4754C88.3448 46.6601 86.6393 48.0379 85.0397 49.5703L85 49.5574Z" fill="#F5F5FF"/>
<path d="M120.073 141.797C120.364 150.308 113.503 157.378 104.949 157.378C96.3957 157.378 89.8252 150.605 89.8252 142.299C89.8252 142.131 89.8252 141.951 89.8252 141.797L91.5042 119.3L91.7157 116.403L92.0859 111.497L92.7733 102.418H117.099L118.183 116.918L118.434 120.086L119.241 130.941L120.06 141.797H120.073Z" fill="#F5F5FF" stroke="#2E2E2E" stroke-width="0.5" stroke-miterlimit="10"/>
<path d="M119.254 130.941C111.586 131.855 102.94 128.263 97.0832 120.974C94.7035 118.025 93.051 114.78 92.0991 111.497L92.7866 102.418H117.112L118.196 116.918L118.447 120.086L119.254 130.941Z" fill="#2E2E2E"/>
<path d="M126.142 79.8701C123.088 84.6475 123.379 90.3135 126.803 92.5155C130.227 94.7175 135.475 92.6314 138.529 87.8539C141.583 83.0765 141.292 77.4105 137.868 75.2085C134.444 73.0065 129.196 75.0926 126.142 79.8701Z" fill="#F5F5FF" stroke="#2E2E2E" stroke-width="0.5" stroke-miterlimit="10"/>
<path d="M135.29 77.5007C136.771 78.0673 137.894 79.4323 138.132 80.9647C138.37 82.4971 137.723 84.1325 136.48 85.0983" stroke="#2E2E2E" stroke-width="0.5" stroke-linecap="round" stroke-linejoin="round"/>
<path d="M84.8807 79.8701C87.9346 84.6475 87.6438 90.3135 84.2197 92.5155C80.7956 94.7175 75.5471 92.6314 72.4932 87.8539C69.4393 83.0765 69.7301 77.4105 73.1542 75.2085C76.5783 73.0065 81.8268 75.0926 84.8807 79.8701Z" fill="#F5F5FF" stroke="#2E2E2E" stroke-width="0.5" stroke-miterlimit="10"/>
<path d="M75.7189 77.5007C74.2383 78.0673 73.1145 79.4323 72.8766 80.9647C72.6386 82.4971 73.2864 84.1325 74.5291 85.0983" stroke="#2E2E2E" stroke-width="0.5" stroke-linecap="round" stroke-linejoin="round"/>
<path d="M133.743 73.2514C133.743 73.7021 133.743 74.14 133.717 74.5649C133.664 75.8526 133.558 77.1532 133.386 78.4152L133.201 80.218L133.122 81.1966L133.069 81.7761L132.99 82.6131C132.91 83.4759 132.858 84.3258 132.805 85.1757C132.805 85.3946 132.778 85.6007 132.765 85.8196C132.739 86.1415 132.725 86.4634 132.712 86.7854C132.58 88.923 132.461 91.0477 132.17 93.1595C132.17 93.1982 132.17 93.2368 132.17 93.2626C132.104 93.6618 132.038 94.0738 131.959 94.473C131.879 94.9109 131.813 95.3358 131.694 95.7607C131.549 96.4046 131.377 97.0356 131.179 97.6923C131.112 97.9241 131.033 98.143 130.954 98.3877C130.795 98.8512 130.61 99.3277 130.412 99.8042C129.896 101.053 129.275 102.264 128.574 103.474C125.613 108.496 121.078 113.106 116.544 116.158C116.544 116.197 116.491 116.21 116.477 116.21C115.922 116.596 115.367 116.944 114.825 117.266C109.286 120.562 102.741 120.742 97.0038 117.897C95.814 117.317 94.677 116.647 93.5665 115.849C93.5665 115.849 93.5269 115.849 93.5137 115.823C89.1245 112.771 85.3567 108.342 82.5143 103.474C82.3028 103.126 82.1177 102.792 81.9194 102.444C81.8268 102.264 81.7343 102.071 81.6417 101.89C81.4831 101.594 81.3377 101.272 81.1658 100.95C80.7163 100.113 80.3197 99.2376 79.9628 98.3877C79.8702 98.143 79.7512 97.9112 79.6719 97.6665C78.3366 94.2412 77.8607 90.4167 77.5434 86.6437C77.5038 86.2703 77.4773 85.884 77.4377 85.4976C77.4377 85.2916 77.4112 85.0856 77.398 84.8795C77.3451 84.2228 77.2922 83.5532 77.2394 82.9093L77.0807 81.1452C77.041 80.952 77.0146 80.7588 76.9882 80.5786C76.9353 80.3596 76.9088 80.1536 76.8824 79.9347C76.737 79.1363 76.6312 78.3251 76.5519 77.488C76.5122 77.1146 76.4726 76.7283 76.4461 76.342C76.3668 75.3375 76.3271 74.3074 76.3271 73.2514C76.3271 73.1356 76.3271 73.0068 76.3271 72.878C76.3271 71.9766 76.3668 71.0752 76.4461 70.1996C76.499 69.4398 76.5916 68.6929 76.7105 67.9718C77.3716 63.5034 78.839 59.3441 80.9543 55.6999C81.4963 54.7856 82.0648 53.9099 82.6729 53.06C84.7089 50.2142 87.2075 47.7675 89.997 45.8488C90.1953 45.6943 90.4069 45.5527 90.6052 45.4239C90.8564 45.2565 91.1075 45.0891 91.3587 44.9345C92.3503 44.3422 93.3682 43.8013 94.4126 43.3378C98.8547 41.3676 104.143 40.4662 108.968 41.3676C109.206 41.3933 109.444 41.4448 109.682 41.4835C111.678 41.8569 113.582 42.4364 115.393 43.2476C115.975 43.4923 116.544 43.7627 117.099 44.0589C117.905 44.471 118.685 44.9217 119.452 45.4239C119.505 45.4625 119.584 45.514 119.637 45.5526C120.457 46.0935 121.237 46.6601 122.004 47.2911C124.264 49.1454 126.274 51.3731 127.953 53.8842C128.389 54.528 128.799 55.1848 129.182 55.8544C129.314 56.0475 129.407 56.2407 129.539 56.4596C131.39 59.8978 132.725 63.7481 133.333 67.8816C133.333 67.9074 133.36 67.9332 133.36 67.9718C133.466 68.6929 133.545 69.4398 133.611 70.1996C133.69 71.0752 133.73 71.9766 133.73 72.878C133.73 73.0068 133.73 73.1356 133.73 73.2514H133.743Z" fill="#F5F5FF" stroke="#2E2E2E" stroke-width="0.5" stroke-miterlimit="10"/>
<path d="M133.743 73.2514C133.743 73.7021 133.743 74.14 133.717 74.5649C133.664 75.8526 133.558 77.1532 133.386 78.4152L133.201 80.218L133.122 81.1966L133.069 81.7761L132.99 82.6131C132.91 83.4759 132.858 84.3258 132.805 85.1757C132.805 85.3946 132.778 85.6007 132.765 85.8196C129.671 78.6341 128.257 70.7661 128.693 62.9883C126.446 58.9449 123.074 56.0733 118.778 54.1417C115.883 52.8411 112.736 52.1715 109.563 52.1715C108.043 52.1715 106.523 52.326 105.029 52.6351C100.402 51.6693 95.5629 52.2102 91.2662 54.1417C86.9828 56.0733 83.6116 58.9449 81.3642 62.9883C81.8004 70.6503 80.4255 78.4023 77.4245 85.4976C77.4245 85.2916 77.398 85.0856 77.3848 84.8795C77.3319 84.2228 77.2791 83.5532 77.2262 82.9093L77.0675 81.1452C77.0279 80.952 77.0014 80.7588 76.975 80.5786C76.9221 80.3596 76.8957 80.1536 76.8692 79.9347C76.7238 79.1363 76.618 78.3251 76.5387 77.488C76.4991 77.1146 76.4594 76.7283 76.4329 76.342C76.3536 75.3375 76.314 74.3074 76.314 73.2514C76.314 73.1355 76.314 73.0068 76.314 72.878C76.314 71.9766 76.3536 71.0752 76.4329 70.1996C76.4858 69.4398 76.5784 68.6929 76.6974 67.9718C77.3584 63.5034 78.8258 59.3441 80.9411 55.6999C81.4831 54.7856 82.0516 53.9099 82.6598 53.06C84.6957 50.2142 87.1943 47.7675 89.9838 45.8488C90.1822 45.6943 90.3937 45.5527 90.592 45.4239C90.8432 45.2565 91.0944 45.0891 91.3455 44.9345C92.3371 44.3422 93.355 43.8013 94.3995 43.3378C98.8415 41.3676 104.13 40.4662 108.955 41.3676C109.193 41.3933 109.431 41.4448 109.669 41.4835C111.665 41.8569 113.569 42.4364 115.38 43.2476C115.962 43.4923 116.53 43.7627 117.086 44.0589C117.892 44.471 118.672 44.9217 119.439 45.4239C119.492 45.4625 119.571 45.514 119.624 45.5526C120.444 46.0935 121.224 46.6601 121.99 47.2911C124.251 49.1454 126.261 51.3731 127.94 53.8842C128.376 54.528 128.786 55.1848 129.169 55.8544C129.301 56.0475 129.394 56.2407 129.526 56.4596C131.377 59.8978 132.712 63.7481 133.32 67.8816C133.32 67.9074 133.347 67.9332 133.347 67.9718C133.452 68.6929 133.532 69.4398 133.598 70.1996C133.677 71.0752 133.717 71.9766 133.717 72.878C133.717 73.0068 133.717 73.1355 133.717 73.2514H133.743Z" fill="#2E2E2E"/>
<path d="M121.409 53.8584C121.925 57.5413 125.071 60.6575 128.667 61.0567" stroke="#2E2E2E" stroke-width="0.48" stroke-linecap="round" stroke-linejoin="round"/>
<path d="M120.325 51.7078C120.47 54.9142 121.766 58.0691 123.907 60.3999C126.049 62.7306 129.024 64.2373 132.131 64.5592" stroke="#2E2E2E" stroke-width="0.48" stroke-linecap="round" stroke-linejoin="round"/>
<path d="M120.496 53.6008C120.642 56.8072 121.937 59.9622 124.079 62.2929C126.221 64.6237 129.195 66.1303 132.302 66.4523" stroke="#2E2E2E" stroke-width="0.48" stroke-linecap="round" stroke-linejoin="round"/>
<path d="M88.6354 53.8584C88.1198 57.5413 84.9734 60.6575 81.3774 61.0567" stroke="#2E2E2E" stroke-width="0.48" stroke-linecap="round" stroke-linejoin="round"/>
<path d="M89.7194 51.7078C89.574 54.9142 88.2784 58.0691 86.1367 60.3999C83.995 62.7306 81.0204 64.2373 77.9136 64.5592" stroke="#2E2E2E" stroke-width="0.48" stroke-linecap="round" stroke-linejoin="round"/>
<path d="M89.5478 53.6008C89.4023 56.8072 88.1067 59.9622 85.965 62.2929C83.8233 64.6237 80.8487 66.1303 77.7419 66.4523" stroke="#2E2E2E" stroke-width="0.48" stroke-linecap="round" stroke-linejoin="round"/>
<path d="M112.723 75.9168C113.186 74.3845 114.336 73.174 115.684 72.3241C117.046 71.4742 118.646 70.9977 120.259 70.8947C121.871 70.7917 123.524 71.0879 124.978 71.7704C126.419 72.4529 127.702 73.5345 128.349 75.0025C126.723 74.848 125.414 74.7321 124.145 74.6935C122.876 74.6549 121.686 74.6806 120.496 74.745C119.307 74.8094 118.117 74.9382 116.861 75.1184C115.605 75.2987 114.309 75.5692 112.723 75.9168Z" fill="#2E2E2E"/>
<path d="M98.6697 75.9168C97.0833 75.5692 95.8009 75.2987 94.5317 75.1184C93.289 74.9253 92.086 74.8094 90.8961 74.745C89.7063 74.6806 88.5032 74.6549 87.2473 74.6935C85.9781 74.7321 84.6693 74.8351 83.0432 75.0025C83.691 73.5345 84.9734 72.4529 86.4144 71.7704C87.8687 71.0879 89.508 70.7917 91.1341 70.8947C92.747 70.9849 94.3467 71.4742 95.7084 72.3241C97.0568 73.174 98.1938 74.3973 98.6697 75.9168Z" fill="#2E2E2E"/>
<path d="M111.784 84.261C112.168 83.6944 112.577 83.1407 112.974 82.587C113.437 82.0333 113.926 81.4796 114.521 81.0417C115.684 80.1146 117.152 79.5867 118.632 79.342C120.14 79.1746 121.7 79.3162 123.114 79.8828C123.828 80.1532 124.476 80.5395 125.097 80.9645C125.639 81.3766 126.208 81.7886 126.736 82.2136L126.353 82.0977C126.353 82.0977 126.538 82.1106 126.697 82.0591C126.869 82.0075 127.054 81.9303 127.239 81.8401C127.609 81.6598 127.979 81.4538 128.31 81.222H128.323C128.455 81.119 128.64 81.1577 128.733 81.2736C128.812 81.3766 128.799 81.5182 128.733 81.6083C128.442 81.9689 128.138 82.278 127.794 82.587C127.622 82.7416 127.437 82.8832 127.239 83.0248C127.014 83.1536 126.829 83.321 126.366 83.3725C126.261 83.3725 126.155 83.3597 126.062 83.3081L125.983 83.2566C125.388 82.9089 124.806 82.5226 124.225 82.1621C123.683 81.8272 123.141 81.5182 122.546 81.3122C121.369 80.8615 120.087 80.6941 118.831 80.81C117.575 80.913 116.319 81.3122 115.235 81.9947C114.666 82.3037 114.19 82.7415 113.714 83.1794C113.225 83.6558 112.736 84.1451 112.234 84.6216C112.115 84.7246 111.93 84.7246 111.824 84.6216C111.731 84.5186 111.718 84.3769 111.797 84.2739L111.784 84.261Z" fill="#2E2E2E"/>
<path d="M116.597 82.1878C116.689 80.8872 117.853 79.9085 119.201 79.9987C120.536 80.0888 121.541 81.222 121.449 82.5355C121.356 83.8361 120.193 84.8148 118.844 84.7246C117.509 84.6345 116.504 83.5013 116.597 82.1878Z" fill="#2E2E2E"/>
<path d="M123.96 84.0679C124.859 83.8748 125.706 83.4756 126.419 82.9219" stroke="#2E2E2E" stroke-width="0.5" stroke-linecap="round" stroke-linejoin="round"/>
<path d="M111.943 81.5956C113.292 79.7799 115.42 78.5308 117.694 78.2346" stroke="#2E2E2E" stroke-width="0.5" stroke-linecap="round" stroke-linejoin="round"/>
<path d="M99.172 84.6088C98.6696 84.1452 98.1805 83.643 97.6913 83.1665C97.2154 82.7287 96.7394 82.2909 96.171 81.9818C95.0869 81.2993 93.831 80.913 92.575 80.7971C91.3191 80.6812 90.0367 80.8486 88.8601 81.2993C88.2652 81.5054 87.7231 81.8144 87.1811 82.1492C86.5994 82.5098 86.0177 82.8961 85.4228 83.2438L85.3435 83.2953C85.2509 83.3468 85.1452 83.3726 85.0394 83.3597C84.5767 83.2953 84.3916 83.1407 84.1668 83.012C83.9553 82.8703 83.7835 82.7287 83.6116 82.5742C83.2679 82.2651 82.9638 81.9561 82.6729 81.5955C82.5804 81.4667 82.5936 81.2993 82.7258 81.1963C82.8316 81.119 82.9638 81.119 83.0696 81.1963H83.0828C83.4133 81.4281 83.7835 81.647 84.1536 81.8144C84.3387 81.9045 84.5238 81.9818 84.6957 82.0333C84.8543 82.0848 85.0658 82.1106 85.0394 82.072L84.656 82.1879C85.198 81.75 85.7533 81.3508 86.2953 80.9388C86.9167 80.5267 87.5645 80.1275 88.2784 79.8571C89.693 79.2905 91.253 79.136 92.7601 79.3162C94.254 79.5609 95.7083 80.0889 96.8716 81.016C97.4666 81.4539 97.9689 82.0076 98.4184 82.5613C98.815 83.115 99.2249 83.6687 99.6083 84.2353C99.7008 84.3641 99.6611 84.5444 99.5289 84.6216C99.41 84.6989 99.2645 84.6731 99.172 84.5959V84.6088Z" fill="#2E2E2E"/>
<path d="M94.7963 82.1878C94.7037 80.8872 93.5403 79.9085 92.1919 79.9987C90.8566 80.0888 89.8518 81.222 89.9444 82.5355C90.0369 83.8361 91.2003 84.8148 92.5488 84.7246C93.8841 84.6345 94.8888 83.5013 94.7963 82.1878Z" fill="#2E2E2E"/>
<path d="M87.4324 84.0679C86.5334 83.8748 85.6873 83.4756 84.9734 82.9219" stroke="#2E2E2E" stroke-width="0.5" stroke-linecap="round" stroke-linejoin="round"/>
<path d="M99.4496 81.5956C98.1011 79.7799 95.9726 78.5308 93.6987 78.2346" stroke="#2E2E2E" stroke-width="0.5" stroke-linecap="round" stroke-linejoin="round"/>
<path d="M106.84 98.1043C107.501 97.821 108.083 97.3703 108.519 96.8037" stroke="#2E2E2E" stroke-width="0.5" stroke-linecap="round" stroke-linejoin="round"/>
<path d="M104.553 98.1043C103.892 97.821 103.31 97.3703 102.874 96.8037" stroke="#2E2E2E" stroke-width="0.5" stroke-linecap="round" stroke-linejoin="round"/>
<path d="M105.465 86.7466V95.2069" stroke="#2E2E2E" stroke-width="0.5" stroke-miterlimit="10"/>
<path d="M114.283 104.543L114.045 104.762H114.032C113.252 105.148 112.313 105.148 111.427 105.058C110.542 104.968 109.643 104.787 108.757 104.865C107.686 104.955 106.721 105.405 105.69 105.65H105.676C104.632 105.418 103.667 104.968 102.609 104.865C101.71 104.787 100.825 104.955 99.9388 105.058C99.053 105.148 98.1011 105.148 97.3211 104.762L97.1096 104.556C98.0086 104.594 99.6479 103.989 100.296 103.538L100.587 103.332C101.287 102.83 102.014 102.289 102.927 102.044C103.812 101.8 105.002 101.929 105.663 102.572C106.337 101.929 107.527 101.787 108.413 102.044C109.325 102.289 110.052 102.83 110.753 103.332L111.044 103.551C111.705 104.002 113.384 104.581 114.283 104.53V104.543Z" fill="#2E2E2E"/>
<path d="M102.808 109.475C102.953 109.526 103.112 109.552 103.257 109.578C103.733 109.706 104.235 109.797 104.725 109.822C104.87 109.848 105.015 109.848 105.161 109.861C105.267 109.861 105.386 109.861 105.491 109.861H105.729" stroke="#2E2E2E" stroke-width="0.38" stroke-linecap="round" stroke-linejoin="round"/>
<path d="M114.032 104.775C113.186 106.68 111.599 108.264 109.51 109.127C108.334 109.629 107.025 109.874 105.729 109.887H105.491C105.386 109.887 105.267 109.887 105.161 109.887C105.015 109.887 104.87 109.861 104.725 109.848C104.235 109.797 103.733 109.719 103.257 109.603C102.768 109.488 102.292 109.333 101.843 109.14C99.7669 108.277 98.154 106.68 97.3211 104.775C98.1011 105.161 99.053 105.161 99.9388 105.071C100.825 104.981 101.71 104.8 102.609 104.878C103.667 104.968 104.632 105.418 105.676 105.663H105.69C106.721 105.431 107.686 104.981 108.757 104.878C109.643 104.8 110.542 104.968 111.427 105.071C112.313 105.161 113.252 105.161 114.032 104.787H114.045L114.283 104.556C113.384 104.607 111.705 104.028 111.044 103.577L110.753 103.358C110.052 102.856 109.325 102.315 108.413 102.07C107.527 101.826 106.337 101.954 105.663 102.598C105.002 101.954 103.812 101.813 102.927 102.07C102.014 102.315 101.287 102.856 100.587 103.358L100.296 103.564C99.6479 104.015 98.0086 104.62 97.1096 104.581L97.3211 104.787" stroke="#2E2E2E" stroke-width="0.38" stroke-linecap="round" stroke-linejoin="round"/>
<path d="M113.899 105.045C112.921 105.702 111.506 106.23 109.801 106.565C108.519 106.822 107.091 106.938 105.676 106.951H105.412C105.293 106.951 105.161 106.951 105.055 106.951C104.896 106.951 104.738 106.951 104.579 106.938C104.05 106.912 103.495 106.874 102.979 106.809C102.45 106.745 101.922 106.668 101.432 106.578C99.8989 106.281 98.5901 105.818 97.625 105.238" stroke="#2E2E2E" stroke-width="0.28" stroke-linecap="round" stroke-linejoin="round"/>
<path d="M46.5021 188.94C57.237 193.653 67.0465 195.108 68.395 192.185C69.7435 189.262 62.1418 183.068 51.4068 178.342C40.6719 173.629 30.8623 172.174 29.5138 175.097C28.1654 178.02 35.7671 184.214 46.5021 188.94Z" fill="#2E2E2E"/>
<path d="M21 223C21.0397 222.871 21.0925 222.755 21.1322 222.627L35.4367 182.823L38.5567 174.144L44.8496 156.631C46.8459 151.055 51.0896 146.986 55.9415 145.325C57.5147 144.784 59.1541 144.501 60.7934 144.501C62.3005 144.501 63.8076 144.745 65.2883 145.248C73.7229 148.132 77.504 158.434 73.5246 167.693L65.328 186.699L62.3534 193.588L59.9341 199.203L49.6618 223" fill="#F5F5FF"/>
<path d="M21 223C21.0397 222.871 21.0925 222.755 21.1322 222.627L35.4367 182.823L38.5567 174.144L44.8496 156.631C46.8459 151.055 51.0896 146.986 55.9415 145.325C57.5147 144.784 59.1541 144.501 60.7934 144.501C62.3005 144.501 63.8076 144.745 65.2883 145.248C73.7229 148.132 77.504 158.434 73.5246 167.693L65.328 186.699L62.3534 193.588L59.9341 199.203L49.6618 223" stroke="#2E2E2E" stroke-width="0.5" stroke-miterlimit="10"/>
<path d="M29.7388 174.749C31.7218 172.303 41.1347 173.848 51.3938 178.342C62.1287 183.068 69.7437 189.262 68.382 192.198C68.3555 192.262 68.3159 192.314 68.263 192.378L68.382 192.43L80.2407 165.349C84.8942 154.712 79.8705 142.595 69.2942 138.989C67.2979 138.307 65.262 137.972 63.226 137.972C55.9812 137.972 49.0405 142.157 45.471 148.944L29.7388 174.762V174.749Z" fill="#2E2E2E"/>
<path d="M162.498 188.94C151.763 193.653 141.953 195.108 140.605 192.185C139.256 189.262 146.858 183.068 157.593 178.342C168.328 173.629 178.137 172.174 179.486 175.097C180.834 178.02 173.233 184.214 162.498 188.94Z" fill="#2E2E2E"/>
<path d="M159.338 223L148.444 197.774L146.647 193.588L143.672 186.699L141.702 182.141L138.357 174.363L135.475 167.693C131.483 158.434 135.277 148.132 143.712 145.248C145.179 144.745 146.699 144.501 148.193 144.501C149.529 144.501 150.851 144.694 152.146 145.054C157.368 146.484 162.022 150.72 164.15 156.631L170.443 174.144L173.563 182.823L187.868 222.627C187.907 222.755 187.96 222.871 188 223" fill="#F5F5FF"/>
<path d="M159.338 223L148.444 197.774L146.647 193.588L143.672 186.699L141.702 182.141L138.357 174.363L135.475 167.693C131.483 158.434 135.277 148.132 143.712 145.248C145.179 144.745 146.699 144.501 148.193 144.501C149.529 144.501 150.851 144.694 152.146 145.054C157.368 146.484 162.022 150.72 164.15 156.631L170.443 174.144L173.563 182.823L187.868 222.627C187.907 222.755 187.96 222.871 188 223" stroke="#2E2E2E" stroke-width="0.5" stroke-miterlimit="10"/>
<path d="M179.248 174.749C177.265 172.303 167.852 173.848 157.593 178.342C146.858 183.068 139.243 189.262 140.605 192.198C140.631 192.262 140.671 192.314 140.724 192.378L140.605 192.43L128.746 165.349C124.092 154.712 129.116 142.595 139.692 138.989C141.689 138.307 143.725 137.972 145.761 137.972C153.005 137.972 159.946 142.157 163.516 148.944L179.248 174.762V174.749Z" fill="#2E2E2E"/>
<path d="M152.464 161.357L149.079 177.119C149.754 178.561 150.282 180.08 150.639 181.664C151.01 183.312 151.208 185.012 151.208 186.764C151.208 188.85 150.93 190.884 150.388 192.816C149.939 194.49 149.304 196.087 148.498 197.58C147.176 200.053 145.431 202.281 143.328 204.148L139.349 222.807H67.7343L63.755 203.62C62.3139 202.255 61.0448 200.697 59.9872 199.01C58.7312 197.001 57.7661 194.799 57.1712 192.455C56.7085 190.64 56.4573 188.734 56.4573 186.764C56.4573 184.793 56.7217 182.823 57.1977 180.969C57.5017 179.797 57.8851 178.664 58.3478 177.569L54.9898 161.357C53.5488 155.382 53.8265 149.536 55.9946 145.132C57.7794 141.475 60.8729 138.822 65.3679 137.882C66.5048 137.65 67.7475 137.521 69.0828 137.521H140.129C141.451 137.521 142.667 137.65 143.778 137.882C148.035 138.783 150.745 141.346 152.199 144.861C154.063 149.304 153.931 155.266 152.464 161.357Z" fill="#F5F5FF" stroke="#2E2E2E" stroke-width="0.5" stroke-linecap="round" stroke-linejoin="round"/>
<path d="M119.584 136.697L125.216 137.521C122.017 145.608 113.807 151.853 104.844 152.227C95.2191 152.639 85.8591 146.226 82.4614 137.521L90.4598 136.697" fill="#F5F5FF"/>
<path d="M119.584 136.697L125.216 137.521C122.017 145.608 113.807 151.853 104.844 152.227C95.2191 152.639 85.8591 146.226 82.4614 137.521L90.4598 136.697" stroke="#2E2E2E" stroke-width="0.5" stroke-linecap="round" stroke-linejoin="round"/>
</svg>
