<svg width="209" height="284" viewBox="0 0 209 284" fill="none" xmlns="http://www.w3.org/2000/svg">
<rect width="209" height="284" rx="20" fill="#F6F5F3"/>
<path d="M80.5565 250H77.744L82.8647 235.455H86.1175L91.2454 250H88.4329L84.5479 238.438H84.4343L80.5565 250ZM80.6488 244.297H88.3192V246.413H80.6488V244.297ZM93.1257 250V239.091H95.6967V250H93.1257ZM94.4183 237.543C94.0111 237.543 93.6607 237.408 93.3672 237.138C93.0736 236.863 92.9268 236.534 92.9268 236.151C92.9268 235.762 93.0736 235.433 93.3672 235.163C93.6607 234.889 94.0111 234.751 94.4183 234.751C94.8303 234.751 95.1806 234.889 95.4695 235.163C95.763 235.433 95.9098 235.762 95.9098 236.151C95.9098 236.534 95.763 236.863 95.4695 237.138C95.1806 237.408 94.8303 237.543 94.4183 237.543ZM106.963 241.974L104.619 242.23C104.553 241.993 104.437 241.771 104.271 241.562C104.11 241.354 103.892 241.186 103.618 241.058C103.343 240.93 103.007 240.866 102.609 240.866C102.074 240.866 101.624 240.982 101.26 241.214C100.9 241.446 100.722 241.747 100.727 242.116C100.722 242.434 100.838 242.692 101.075 242.891C101.316 243.089 101.714 243.253 102.268 243.381L104.129 243.778C105.161 244.001 105.928 244.354 106.43 244.837C106.937 245.32 107.192 245.952 107.197 246.733C107.192 247.42 106.991 248.026 106.593 248.551C106.2 249.072 105.654 249.479 104.953 249.773C104.252 250.066 103.447 250.213 102.538 250.213C101.203 250.213 100.128 249.934 99.3136 249.375C98.4992 248.812 98.0138 248.028 97.8576 247.024L100.365 246.783C100.478 247.275 100.72 247.647 101.089 247.898C101.458 248.149 101.939 248.274 102.531 248.274C103.142 248.274 103.632 248.149 104.001 247.898C104.375 247.647 104.562 247.337 104.562 246.967C104.562 246.655 104.441 246.397 104.2 246.193C103.963 245.99 103.594 245.833 103.092 245.724L101.231 245.334C100.185 245.116 99.4106 244.749 98.9087 244.233C98.4068 243.712 98.1583 243.054 98.163 242.259C98.1583 241.586 98.3406 241.004 98.7099 240.511C99.0839 240.014 99.6024 239.631 100.265 239.361C100.933 239.086 101.702 238.949 102.574 238.949C103.852 238.949 104.858 239.221 105.592 239.766C106.331 240.31 106.788 241.046 106.963 241.974ZM111.888 243.608V250H109.317V235.455H111.831V240.945H111.959C112.215 240.329 112.61 239.844 113.145 239.489C113.685 239.129 114.372 238.949 115.205 238.949C115.962 238.949 116.623 239.107 117.186 239.425C117.75 239.742 118.185 240.206 118.493 240.817C118.806 241.428 118.962 242.173 118.962 243.054V250H116.391V243.452C116.391 242.718 116.202 242.147 115.823 241.74C115.449 241.328 114.923 241.122 114.246 241.122C113.792 241.122 113.384 241.222 113.025 241.42C112.669 241.615 112.39 241.896 112.186 242.266C111.988 242.635 111.888 243.082 111.888 243.608ZM124.722 250.22C124.031 250.22 123.408 250.097 122.854 249.851C122.305 249.6 121.869 249.231 121.547 248.743C121.23 248.255 121.071 247.654 121.071 246.939C121.071 246.323 121.185 245.814 121.412 245.412C121.64 245.009 121.95 244.688 122.343 244.446C122.736 244.205 123.178 244.022 123.671 243.899C124.168 243.771 124.682 243.679 125.212 243.622C125.851 243.556 126.37 243.497 126.767 243.445C127.165 243.388 127.454 243.303 127.634 243.189C127.819 243.071 127.911 242.888 127.911 242.642V242.599C127.911 242.064 127.752 241.65 127.435 241.357C127.118 241.063 126.661 240.916 126.064 240.916C125.435 240.916 124.935 241.054 124.566 241.328C124.201 241.603 123.955 241.927 123.827 242.301L121.426 241.96C121.616 241.297 121.928 240.743 122.364 240.298C122.8 239.848 123.332 239.512 123.962 239.29C124.592 239.062 125.288 238.949 126.05 238.949C126.576 238.949 127.099 239.01 127.62 239.134C128.141 239.257 128.616 239.46 129.047 239.744C129.478 240.024 129.824 240.405 130.084 240.888C130.349 241.371 130.482 241.974 130.482 242.699V250H128.01V248.501H127.925C127.769 248.804 127.549 249.089 127.265 249.354C126.985 249.614 126.632 249.825 126.206 249.986C125.785 250.142 125.29 250.22 124.722 250.22ZM125.39 248.331C125.906 248.331 126.353 248.229 126.732 248.026C127.111 247.817 127.402 247.543 127.605 247.202C127.814 246.861 127.918 246.489 127.918 246.087V244.801C127.837 244.867 127.7 244.929 127.506 244.986C127.317 245.043 127.104 245.092 126.867 245.135C126.63 245.178 126.396 245.215 126.164 245.249C125.932 245.282 125.73 245.31 125.56 245.334C125.176 245.386 124.833 245.471 124.53 245.589C124.227 245.708 123.988 245.874 123.813 246.087C123.638 246.295 123.55 246.565 123.55 246.896C123.55 247.37 123.723 247.727 124.069 247.969C124.414 248.21 124.855 248.331 125.39 248.331Z" fill="#101828"/>
<path d="M27.1355 271H26.0275L29.2321 262.273H30.323L33.5275 271H32.4196L29.8116 263.653H29.7434L27.1355 271ZM27.5446 267.591H32.0105V268.528H27.5446V267.591ZM37.3926 273.591C36.9068 273.591 36.4892 273.528 36.1397 273.403C35.7903 273.281 35.4991 273.119 35.2662 272.918C35.036 272.719 34.8528 272.506 34.7164 272.278L35.5176 271.716C35.6085 271.835 35.7235 271.972 35.8627 272.125C36.002 272.281 36.1923 272.416 36.4338 272.53C36.6781 272.646 36.9977 272.705 37.3926 272.705C37.921 272.705 38.3571 272.577 38.7008 272.321C39.0446 272.065 39.2164 271.665 39.2164 271.119V269.79H39.1312C39.0574 269.909 38.9522 270.057 38.8159 270.233C38.6824 270.406 38.4892 270.561 38.2363 270.697C37.9863 270.831 37.6483 270.898 37.2221 270.898C36.6937 270.898 36.2193 270.773 35.7988 270.523C35.3812 270.273 35.0502 269.909 34.8059 269.432C34.5645 268.955 34.4437 268.375 34.4437 267.693C34.4437 267.023 34.5616 266.439 34.7974 265.942C35.0332 265.442 35.3613 265.055 35.7818 264.783C36.2022 264.507 36.688 264.369 37.2392 264.369C37.6653 264.369 38.0034 264.44 38.2534 264.582C38.5062 264.722 38.6994 264.881 38.8329 265.06C38.9693 265.236 39.0744 265.381 39.1483 265.494H39.2505V264.455H40.2221V271.188C40.2221 271.75 40.0943 272.207 39.8386 272.56C39.5858 272.915 39.2449 273.175 38.8159 273.339C38.3897 273.507 37.9153 273.591 37.3926 273.591ZM37.3585 269.994C37.7619 269.994 38.1028 269.902 38.3812 269.717C38.6596 269.533 38.8713 269.267 39.0162 268.92C39.161 268.574 39.2335 268.159 39.2335 267.676C39.2335 267.205 39.1625 266.788 39.0204 266.428C38.8784 266.067 38.6681 265.784 38.3897 265.58C38.1113 265.375 37.7676 265.273 37.3585 265.273C36.9324 265.273 36.5772 265.381 36.2931 265.597C36.0119 265.812 35.8002 266.102 35.6582 266.466C35.519 266.83 35.4494 267.233 35.4494 267.676C35.4494 268.131 35.5204 268.533 35.6625 268.882C35.8074 269.229 36.0204 269.501 36.3017 269.7C36.5858 269.896 36.938 269.994 37.3585 269.994ZM44.8074 271.136C44.1767 271.136 43.6326 270.997 43.1752 270.719C42.7207 270.438 42.3699 270.045 42.1227 269.543C41.8784 269.037 41.7562 268.449 41.7562 267.778C41.7562 267.108 41.8784 266.517 42.1227 266.006C42.3699 265.491 42.7136 265.091 43.1539 264.804C43.5971 264.514 44.1142 264.369 44.7051 264.369C45.046 264.369 45.3826 264.426 45.715 264.54C46.0474 264.653 46.35 264.838 46.6227 265.094C46.8954 265.347 47.1127 265.682 47.2747 266.099C47.4366 266.517 47.5176 267.031 47.5176 267.642V268.068H42.4721V267.199H46.4949C46.4949 266.83 46.421 266.5 46.2733 266.21C46.1284 265.92 45.921 265.692 45.6511 265.524C45.3841 265.357 45.0687 265.273 44.7051 265.273C44.3045 265.273 43.9579 265.372 43.6653 265.571C43.3755 265.767 43.1525 266.023 42.9963 266.338C42.84 266.653 42.7619 266.991 42.7619 267.352V267.932C42.7619 268.426 42.8471 268.845 43.0176 269.189C43.1909 269.53 43.4309 269.79 43.7377 269.969C44.0446 270.145 44.4011 270.233 44.8074 270.233C45.0716 270.233 45.3102 270.196 45.5233 270.122C45.7392 270.045 45.9252 269.932 46.0815 269.781C46.2377 269.628 46.3585 269.437 46.4437 269.21L47.4153 269.483C47.313 269.812 47.1412 270.102 46.8997 270.352C46.6582 270.599 46.3599 270.793 46.0048 270.932C45.6497 271.068 45.2505 271.136 44.8074 271.136ZM49.7804 271.068C49.5701 271.068 49.3897 270.993 49.2392 270.842C49.0886 270.692 49.0133 270.511 49.0133 270.301C49.0133 270.091 49.0886 269.911 49.2392 269.76C49.3897 269.609 49.5701 269.534 49.7804 269.534C49.9906 269.534 50.171 269.609 50.3216 269.76C50.4721 269.911 50.5474 270.091 50.5474 270.301C50.5474 270.44 50.5119 270.568 50.4409 270.685C50.3727 270.801 50.2804 270.895 50.1639 270.966C50.0502 271.034 49.9224 271.068 49.7804 271.068ZM49.7804 266.21C49.5701 266.21 49.3897 266.135 49.2392 265.984C49.0886 265.834 49.0133 265.653 49.0133 265.443C49.0133 265.233 49.0886 265.053 49.2392 264.902C49.3897 264.751 49.5701 264.676 49.7804 264.676C49.9906 264.676 50.171 264.751 50.3216 264.902C50.4721 265.053 50.5474 265.233 50.5474 265.443C50.5474 265.582 50.5119 265.71 50.4409 265.827C50.3727 265.943 50.2804 266.037 50.1639 266.108C50.0502 266.176 49.9224 266.21 49.7804 266.21ZM58.6589 271.119C58.0964 271.119 57.595 271.023 57.1547 270.83C56.7172 270.636 56.3691 270.368 56.1106 270.024C55.8549 269.678 55.7157 269.276 55.693 268.818H56.7669C56.7896 269.099 56.8862 269.342 57.0566 269.547C57.2271 269.749 57.4501 269.905 57.7257 270.016C58.0012 270.126 58.3066 270.182 58.6419 270.182C59.0169 270.182 59.3493 270.116 59.639 269.986C59.9288 269.855 60.1561 269.673 60.3208 269.44C60.4856 269.207 60.568 268.938 60.568 268.631C60.568 268.31 60.4885 268.027 60.3294 267.783C60.1703 267.536 59.9373 267.342 59.6305 267.203C59.3237 267.064 58.9487 266.994 58.5055 266.994H57.8066V266.057H58.5055C58.8521 266.057 59.1561 265.994 59.4174 265.869C59.6816 265.744 59.8876 265.568 60.0353 265.341C60.1859 265.114 60.2612 264.847 60.2612 264.54C60.2612 264.244 60.1958 263.987 60.0652 263.768C59.9345 263.55 59.7498 263.379 59.5112 263.257C59.2754 263.135 58.997 263.074 58.676 263.074C58.3748 263.074 58.0907 263.129 57.8237 263.24C57.5595 263.348 57.3436 263.506 57.176 263.713C57.0083 263.918 56.9174 264.165 56.9032 264.455H55.8805C55.8975 263.997 56.0353 263.597 56.2939 263.253C56.5524 262.906 56.8904 262.636 57.3081 262.443C57.7285 262.25 58.1902 262.153 58.693 262.153C59.2328 262.153 59.6958 262.263 60.0822 262.482C60.4686 262.697 60.7654 262.983 60.9728 263.338C61.1802 263.693 61.2839 264.077 61.2839 264.489C61.2839 264.98 61.1547 265.399 60.8961 265.746C60.6404 266.092 60.2924 266.332 59.8521 266.466V266.534C60.4032 266.625 60.8336 266.859 61.1433 267.237C61.4529 267.612 61.6078 268.077 61.6078 268.631C61.6078 269.105 61.4785 269.531 61.22 269.909C60.9643 270.284 60.6149 270.58 60.1717 270.795C59.7285 271.011 59.2243 271.119 58.6589 271.119ZM66.2484 271.119C65.8904 271.114 65.5325 271.045 65.1745 270.915C64.8166 270.784 64.4899 270.564 64.1944 270.254C63.899 269.942 63.6618 269.52 63.4828 268.989C63.3038 268.455 63.2143 267.784 63.2143 266.977C63.2143 266.205 63.2868 265.52 63.4316 264.923C63.5765 264.324 63.7868 263.82 64.0623 263.411C64.3379 262.999 64.6703 262.686 65.0595 262.473C65.4515 262.26 65.8933 262.153 66.3848 262.153C66.8734 262.153 67.3081 262.251 67.6887 262.447C68.0723 262.641 68.3848 262.911 68.6262 263.257C68.8677 263.604 69.024 264.003 69.095 264.455H68.0552C67.9586 264.062 67.7711 263.737 67.4927 263.479C67.2143 263.22 66.845 263.091 66.3848 263.091C65.7086 263.091 65.176 263.385 64.7868 263.973C64.4004 264.561 64.2058 265.386 64.2029 266.449H64.2711C64.4302 266.207 64.6191 266.001 64.8379 265.831C65.0595 265.658 65.3038 265.524 65.5708 265.43C65.8379 265.337 66.1206 265.29 66.4189 265.29C66.9189 265.29 67.3762 265.415 67.791 265.665C68.2058 265.912 68.5382 266.254 68.7882 266.692C69.0382 267.126 69.1632 267.625 69.1632 268.188C69.1632 268.727 69.0424 269.222 68.801 269.67C68.5595 270.116 68.22 270.472 67.7825 270.736C67.3478 270.997 66.8365 271.125 66.2484 271.119ZM66.2484 270.182C66.6064 270.182 66.9274 270.092 67.2115 269.913C67.4984 269.734 67.7243 269.494 67.889 269.193C68.0566 268.892 68.1404 268.557 68.1404 268.188C68.1404 267.827 68.0595 267.499 67.8975 267.203C67.7385 266.905 67.5183 266.668 67.237 266.491C66.9586 266.315 66.6404 266.227 66.2825 266.227C66.0126 266.227 65.7612 266.281 65.5282 266.389C65.2953 266.494 65.0907 266.639 64.9146 266.824C64.7413 267.009 64.6049 267.22 64.5055 267.459C64.4061 267.695 64.3564 267.943 64.3564 268.205C64.3564 268.551 64.4373 268.875 64.5993 269.176C64.764 269.477 64.9885 269.72 65.2725 269.905C65.5595 270.089 65.8848 270.182 66.2484 270.182ZM71.9458 269.807L71.8777 270.267C71.8294 270.591 71.7555 270.938 71.6561 271.307C71.5595 271.676 71.4586 272.024 71.3535 272.351C71.2484 272.678 71.1618 272.938 71.0936 273.131H70.3265C70.3635 272.949 70.4118 272.709 70.4714 272.411C70.5311 272.112 70.5907 271.778 70.6504 271.409C70.7129 271.043 70.764 270.668 70.8038 270.284L70.8549 269.807H71.9458ZM83.2864 265C83.1926 264.713 83.0691 264.456 82.9157 264.229C82.7651 263.999 82.5847 263.803 82.3745 263.641C82.1671 263.479 81.9313 263.355 81.6671 263.27C81.4029 263.185 81.1131 263.142 80.7978 263.142C80.2807 263.142 79.8105 263.276 79.3873 263.543C78.964 263.81 78.6273 264.203 78.3773 264.723C78.1273 265.243 78.0023 265.881 78.0023 266.636C78.0023 267.392 78.1287 268.03 78.3816 268.55C78.6344 269.07 78.9767 269.463 79.4086 269.73C79.8404 269.997 80.3262 270.131 80.8659 270.131C81.3659 270.131 81.8063 270.024 82.187 269.811C82.5705 269.595 82.8688 269.291 83.0819 268.899C83.2978 268.504 83.4057 268.04 83.4057 267.506L83.7296 267.574H81.1046V266.636H84.4284V267.574C84.4284 268.293 84.275 268.918 83.9682 269.449C83.6642 269.98 83.2438 270.392 82.7069 270.685C82.1728 270.974 81.5591 271.119 80.8659 271.119C80.0932 271.119 79.4142 270.938 78.829 270.574C78.2466 270.21 77.7921 269.693 77.4654 269.023C77.1415 268.352 76.9796 267.557 76.9796 266.636C76.9796 265.946 77.0719 265.325 77.2566 264.774C77.4441 264.22 77.7083 263.749 78.0492 263.359C78.3901 262.97 78.7935 262.672 79.2594 262.464C79.7253 262.257 80.2381 262.153 80.7978 262.153C81.258 262.153 81.687 262.223 82.0847 262.362C82.4853 262.499 82.8418 262.693 83.1543 262.946C83.4696 263.196 83.7324 263.496 83.9426 263.845C84.1529 264.192 84.2978 264.577 84.3773 265H83.2864ZM88.8464 271.136C88.2157 271.136 87.6717 270.997 87.2143 270.719C86.7598 270.438 86.4089 270.045 86.1618 269.543C85.9174 269.037 85.7953 268.449 85.7953 267.778C85.7953 267.108 85.9174 266.517 86.1618 266.006C86.4089 265.491 86.7527 265.091 87.193 264.804C87.6362 264.514 88.1532 264.369 88.7441 264.369C89.085 264.369 89.4217 264.426 89.7541 264.54C90.0865 264.653 90.389 264.838 90.6618 265.094C90.9345 265.347 91.1518 265.682 91.3137 266.099C91.4757 266.517 91.5566 267.031 91.5566 267.642V268.068H86.5112V267.199H90.5339C90.5339 266.83 90.46 266.5 90.3123 266.21C90.1674 265.92 89.96 265.692 89.6902 265.524C89.4231 265.357 89.1078 265.273 88.7441 265.273C88.3436 265.273 87.997 265.372 87.7044 265.571C87.4146 265.767 87.1916 266.023 87.0353 266.338C86.8791 266.653 86.801 266.991 86.801 267.352V267.932C86.801 268.426 86.8862 268.845 87.0566 269.189C87.2299 269.53 87.47 269.79 87.7768 269.969C88.0836 270.145 88.4402 270.233 88.8464 270.233C89.1106 270.233 89.3493 270.196 89.5623 270.122C89.7782 270.045 89.9643 269.932 90.1206 269.781C90.2768 269.628 90.3975 269.437 90.4828 269.21L91.4544 269.483C91.3521 269.812 91.1802 270.102 90.9387 270.352C90.6973 270.599 90.399 270.793 90.0439 270.932C89.6887 271.068 89.2896 271.136 88.8464 271.136ZM94.0922 267.062V271H93.0865V264.455H94.0581V265.477H94.1433C94.2967 265.145 94.5297 264.878 94.8422 264.676C95.1547 264.472 95.5581 264.369 96.0524 264.369C96.4956 264.369 96.8833 264.46 97.2157 264.642C97.5481 264.821 97.8066 265.094 97.9913 265.46C98.176 265.824 98.2683 266.284 98.2683 266.841V271H97.2626V266.909C97.2626 266.395 97.1291 265.994 96.862 265.707C96.595 265.418 96.2285 265.273 95.7626 265.273C95.4416 265.273 95.1547 265.342 94.9018 265.482C94.6518 265.621 94.4544 265.824 94.3095 266.091C94.1646 266.358 94.0922 266.682 94.0922 267.062ZM102.578 271.136C102.032 271.136 101.551 270.999 101.133 270.723C100.715 270.445 100.389 270.053 100.153 269.547C99.9171 269.038 99.7992 268.438 99.7992 267.744C99.7992 267.057 99.9171 266.46 100.153 265.955C100.389 265.449 100.717 265.058 101.137 264.783C101.558 264.507 102.044 264.369 102.595 264.369C103.021 264.369 103.357 264.44 103.605 264.582C103.855 264.722 104.045 264.881 104.176 265.06C104.309 265.236 104.413 265.381 104.487 265.494H104.572V262.273H105.578V271H104.606V269.994H104.487C104.413 270.114 104.308 270.264 104.171 270.446C104.035 270.625 103.84 270.786 103.588 270.928C103.335 271.067 102.998 271.136 102.578 271.136ZM102.714 270.233C103.117 270.233 103.458 270.128 103.737 269.918C104.015 269.705 104.227 269.411 104.372 269.036C104.517 268.658 104.589 268.222 104.589 267.727C104.589 267.239 104.518 266.811 104.376 266.445C104.234 266.075 104.024 265.788 103.745 265.584C103.467 265.376 103.123 265.273 102.714 265.273C102.288 265.273 101.933 265.382 101.649 265.601C101.367 265.817 101.156 266.111 101.014 266.483C100.874 266.852 100.805 267.267 100.805 267.727C100.805 268.193 100.876 268.616 101.018 268.997C101.163 269.375 101.376 269.676 101.657 269.901C101.941 270.122 102.294 270.233 102.714 270.233ZM110.303 271.136C109.673 271.136 109.129 270.997 108.671 270.719C108.217 270.438 107.866 270.045 107.619 269.543C107.374 269.037 107.252 268.449 107.252 267.778C107.252 267.108 107.374 266.517 107.619 266.006C107.866 265.491 108.21 265.091 108.65 264.804C109.093 264.514 109.61 264.369 110.201 264.369C110.542 264.369 110.879 264.426 111.211 264.54C111.544 264.653 111.846 264.838 112.119 265.094C112.392 265.347 112.609 265.682 112.771 266.099C112.933 266.517 113.014 267.031 113.014 267.642V268.068H107.968V267.199H111.991C111.991 266.83 111.917 266.5 111.769 266.21C111.624 265.92 111.417 265.692 111.147 265.524C110.88 265.357 110.565 265.273 110.201 265.273C109.801 265.273 109.454 265.372 109.161 265.571C108.872 265.767 108.649 266.023 108.492 266.338C108.336 266.653 108.258 266.991 108.258 267.352V267.932C108.258 268.426 108.343 268.845 108.514 269.189C108.687 269.53 108.927 269.79 109.234 269.969C109.541 270.145 109.897 270.233 110.303 270.233C110.568 270.233 110.806 270.196 111.019 270.122C111.235 270.045 111.421 269.932 111.578 269.781C111.734 269.628 111.855 269.437 111.94 269.21L112.911 269.483C112.809 269.812 112.637 270.102 112.396 270.352C112.154 270.599 111.856 270.793 111.501 270.932C111.146 271.068 110.747 271.136 110.303 271.136ZM114.544 271V264.455H115.515V265.443H115.583C115.703 265.119 115.919 264.857 116.231 264.655C116.544 264.453 116.896 264.352 117.288 264.352C117.362 264.352 117.454 264.354 117.565 264.357C117.676 264.359 117.759 264.364 117.816 264.369V265.392C117.782 265.384 117.704 265.371 117.582 265.354C117.463 265.334 117.336 265.324 117.203 265.324C116.884 265.324 116.6 265.391 116.35 265.524C116.103 265.655 115.907 265.837 115.762 266.07C115.62 266.3 115.549 266.562 115.549 266.858V271H114.544ZM119.741 271.068C119.531 271.068 119.351 270.993 119.2 270.842C119.05 270.692 118.974 270.511 118.974 270.301C118.974 270.091 119.05 269.911 119.2 269.76C119.351 269.609 119.531 269.534 119.741 269.534C119.952 269.534 120.132 269.609 120.282 269.76C120.433 269.911 120.508 270.091 120.508 270.301C120.508 270.44 120.473 270.568 120.402 270.685C120.334 270.801 120.241 270.895 120.125 270.966C120.011 271.034 119.883 271.068 119.741 271.068ZM119.741 266.21C119.531 266.21 119.351 266.135 119.2 265.984C119.05 265.834 118.974 265.653 118.974 265.443C118.974 265.233 119.05 265.053 119.2 264.902C119.351 264.751 119.531 264.676 119.741 264.676C119.952 264.676 120.132 264.751 120.282 264.902C120.433 265.053 120.508 265.233 120.508 265.443C120.508 265.582 120.473 265.71 120.402 265.827C120.334 265.943 120.241 266.037 120.125 266.108C120.011 266.176 119.883 266.21 119.741 266.21ZM132.745 262.273V271H131.722L126.966 264.148H126.881V271H125.824V262.273H126.847L131.62 269.142H131.705V262.273H132.745ZM137.382 271.136C136.791 271.136 136.273 270.996 135.827 270.714C135.384 270.433 135.037 270.04 134.787 269.534C134.54 269.028 134.416 268.437 134.416 267.761C134.416 267.08 134.54 266.484 134.787 265.976C135.037 265.467 135.384 265.072 135.827 264.791C136.273 264.51 136.791 264.369 137.382 264.369C137.973 264.369 138.49 264.51 138.933 264.791C139.379 265.072 139.726 265.467 139.973 265.976C140.223 266.484 140.348 267.08 140.348 267.761C140.348 268.437 140.223 269.028 139.973 269.534C139.726 270.04 139.379 270.433 138.933 270.714C138.49 270.996 137.973 271.136 137.382 271.136ZM137.382 270.233C137.831 270.233 138.2 270.118 138.49 269.888C138.78 269.658 138.994 269.355 139.134 268.98C139.273 268.605 139.343 268.199 139.343 267.761C139.343 267.324 139.273 266.916 139.134 266.538C138.994 266.161 138.78 265.855 138.49 265.622C138.2 265.389 137.831 265.273 137.382 265.273C136.933 265.273 136.564 265.389 136.274 265.622C135.985 265.855 135.77 266.161 135.631 266.538C135.492 266.916 135.422 267.324 135.422 267.761C135.422 268.199 135.492 268.605 135.631 268.98C135.77 269.355 135.985 269.658 136.274 269.888C136.564 270.118 136.933 270.233 137.382 270.233ZM142.889 267.062V271H141.883V264.455H142.855V265.477H142.94C143.094 265.145 143.327 264.878 143.639 264.676C143.952 264.472 144.355 264.369 144.849 264.369C145.292 264.369 145.68 264.46 146.013 264.642C146.345 264.821 146.604 265.094 146.788 265.46C146.973 265.824 147.065 266.284 147.065 266.841V271H146.059V266.909C146.059 266.395 145.926 265.994 145.659 265.707C145.392 265.418 145.025 265.273 144.559 265.273C144.238 265.273 143.952 265.342 143.699 265.482C143.449 265.621 143.251 265.824 143.106 266.091C142.961 266.358 142.889 266.682 142.889 267.062ZM152.653 266.79V267.727H148.835V266.79H152.653ZM154.559 271V262.273H157.61C158.218 262.273 158.719 262.378 159.114 262.588C159.509 262.795 159.803 263.075 159.996 263.428C160.189 263.777 160.286 264.165 160.286 264.591C160.286 264.966 160.219 265.276 160.086 265.52C159.955 265.764 159.782 265.957 159.566 266.099C159.353 266.241 159.121 266.347 158.871 266.415V266.5C159.138 266.517 159.407 266.611 159.677 266.781C159.947 266.952 160.172 267.196 160.354 267.514C160.536 267.832 160.627 268.222 160.627 268.682C160.627 269.119 160.528 269.513 160.329 269.862C160.13 270.212 159.816 270.489 159.387 270.693C158.958 270.898 158.4 271 157.712 271H154.559ZM155.616 270.062H157.712C158.403 270.062 158.893 269.929 159.182 269.662C159.475 269.392 159.621 269.065 159.621 268.682C159.621 268.386 159.546 268.114 159.395 267.864C159.245 267.611 159.03 267.409 158.752 267.259C158.474 267.105 158.144 267.028 157.763 267.028H155.616V270.062ZM155.616 266.108H157.576C157.894 266.108 158.181 266.045 158.437 265.92C158.695 265.795 158.9 265.619 159.05 265.392C159.204 265.165 159.28 264.898 159.28 264.591C159.28 264.207 159.147 263.882 158.88 263.615C158.613 263.345 158.189 263.21 157.61 263.21H155.616V266.108ZM162.227 271V264.455H163.233V271H162.227ZM162.738 263.364C162.542 263.364 162.373 263.297 162.231 263.163C162.092 263.03 162.023 262.869 162.023 262.682C162.023 262.494 162.092 262.334 162.231 262.2C162.373 262.067 162.542 262 162.738 262C162.934 262 163.102 262.067 163.241 262.2C163.383 262.334 163.454 262.494 163.454 262.682C163.454 262.869 163.383 263.03 163.241 263.163C163.102 263.297 162.934 263.364 162.738 263.364ZM166.08 267.062V271H165.075V264.455H166.046V265.477H166.132C166.285 265.145 166.518 264.878 166.83 264.676C167.143 264.472 167.546 264.369 168.041 264.369C168.484 264.369 168.872 264.46 169.204 264.642C169.536 264.821 169.795 265.094 169.98 265.46C170.164 265.824 170.257 266.284 170.257 266.841V271H169.251V266.909C169.251 266.395 169.117 265.994 168.85 265.707C168.583 265.418 168.217 265.273 167.751 265.273C167.43 265.273 167.143 265.342 166.89 265.482C166.64 265.621 166.443 265.824 166.298 266.091C166.153 266.358 166.08 266.682 166.08 267.062ZM174.02 271.153C173.606 271.153 173.229 271.075 172.891 270.919C172.553 270.76 172.285 270.531 172.086 270.233C171.887 269.932 171.787 269.568 171.787 269.142C171.787 268.767 171.861 268.463 172.009 268.23C172.157 267.994 172.354 267.81 172.601 267.676C172.849 267.543 173.121 267.443 173.42 267.378C173.721 267.31 174.023 267.256 174.327 267.216C174.725 267.165 175.047 267.126 175.295 267.101C175.545 267.072 175.726 267.026 175.84 266.96C175.956 266.895 176.015 266.781 176.015 266.619V266.585C176.015 266.165 175.9 265.838 175.67 265.605C175.442 265.372 175.097 265.256 174.634 265.256C174.154 265.256 173.778 265.361 173.505 265.571C173.232 265.781 173.04 266.006 172.93 266.244L171.975 265.903C172.145 265.506 172.373 265.196 172.657 264.974C172.944 264.75 173.256 264.594 173.594 264.506C173.935 264.415 174.27 264.369 174.6 264.369C174.81 264.369 175.052 264.395 175.324 264.446C175.6 264.494 175.866 264.595 176.121 264.749C176.38 264.902 176.594 265.134 176.765 265.443C176.935 265.753 177.02 266.168 177.02 266.688V271H176.015V270.114H175.964C175.895 270.256 175.782 270.408 175.623 270.57C175.464 270.732 175.252 270.869 174.988 270.983C174.724 271.097 174.401 271.153 174.02 271.153ZM174.174 270.25C174.572 270.25 174.907 270.172 175.18 270.016C175.455 269.859 175.662 269.658 175.802 269.411C175.944 269.163 176.015 268.903 176.015 268.631V267.71C175.972 267.761 175.878 267.808 175.733 267.851C175.591 267.891 175.427 267.926 175.239 267.957C175.055 267.986 174.874 268.011 174.698 268.034C174.525 268.054 174.384 268.071 174.276 268.085C174.015 268.119 173.77 268.175 173.543 268.251C173.319 268.325 173.137 268.437 172.998 268.588C172.861 268.736 172.793 268.937 172.793 269.193C172.793 269.543 172.922 269.807 173.181 269.986C173.442 270.162 173.773 270.25 174.174 270.25ZM178.856 271V264.455H179.828V265.443H179.896C180.015 265.119 180.231 264.857 180.544 264.655C180.856 264.453 181.208 264.352 181.6 264.352C181.674 264.352 181.767 264.354 181.877 264.357C181.988 264.359 182.072 264.364 182.129 264.369V265.392C182.095 265.384 182.017 265.371 181.894 265.354C181.775 265.334 181.649 265.324 181.515 265.324C181.197 265.324 180.913 265.391 180.663 265.524C180.416 265.655 180.22 265.837 180.075 266.07C179.933 266.3 179.862 266.562 179.862 266.858V271H178.856ZM184.168 273.455C183.997 273.455 183.845 273.44 183.712 273.412C183.578 273.386 183.486 273.361 183.435 273.335L183.691 272.449C183.935 272.511 184.151 272.534 184.338 272.517C184.526 272.5 184.692 272.416 184.837 272.266C184.985 272.118 185.119 271.878 185.242 271.545L185.429 271.034L183.009 264.455H184.1L185.906 269.67H185.975L187.781 264.455H188.872L186.094 271.955C185.969 272.293 185.814 272.572 185.629 272.794C185.445 273.018 185.23 273.185 184.986 273.293C184.744 273.401 184.472 273.455 184.168 273.455Z" fill="#644A41"/>
<path d="M104 170C148.183 170 184 134.183 184 90C184 45.8172 148.183 10 104 10C59.8172 10 24 45.8172 24 90C24 134.183 59.8172 170 104 170Z" fill="#3B4EFF"/>
<path d="M64.717 57.366C63.652 54.2924 63.8749 50.7459 65.3115 47.8466C66.748 44.9472 69.3859 42.7322 72.3953 41.8985C72.7173 37.1948 76.7175 33.5115 81.1882 33.6857C81.5474 31.4707 83.2936 29.4175 85.2998 28.6211C87.2937 27.8247 89.6839 28.2229 91.3558 29.629C91.8883 27.5385 93.263 25.56 95.2692 25.1244C97.2755 24.6889 99.4923 25.5226 100.768 27.215C101.845 24.776 104.26 24.2036 106.811 24.0169C109.363 23.8303 111.963 25.1991 113.338 27.4638C115.047 25.2986 117.871 24.776 120.36 25.7839C122.849 26.7919 124.608 29.5544 124.509 32.3666C126.119 31.0849 128.682 31.4831 130.478 32.4413C132.274 33.3995 133.475 35.49 133.438 37.6054C135.679 37.6552 137.686 38.9991 138.961 40.9403C140.224 42.8815 140.546 45.4823 139.791 47.6972C142.045 47.9959 143.692 50.6837 144.435 52.9485C145.178 55.2008 144.609 57.8886 143.023 59.5934C144.869 60.8253 145.5 63.7247 145.822 66.0019C146.157 68.279 145.513 70.6807 144.101 72.4477C145.587 73.8911 145.797 76.9647 145.525 79.0677C145.253 81.1707 143.952 83.0994 142.156 84.0825C143.531 85.5633 142.8 88.7613 141.934 90.6279C141.067 92.4944 139.011 93.6517 137.054 93.4152C137.636 95.3813 136.15 98.3429 134.577 99.5624C133.004 100.782 130.701 100.832 129.079 99.662C128.583 104.478 122.849 109.754 118.279 109.194C117.14 111.16 114.49 112.964 112.31 113.101C110.13 113.238 107.914 112.18 106.564 110.376C105.759 112.504 102.787 114.856 100.607 114.868C98.4273 114.881 96.3219 113.375 95.5045 111.247C91.8512 113.437 85.5351 110.961 83.7889 106.941C82.179 108.584 78.5751 109.455 76.6679 108.211C74.7607 106.966 73.8319 104.279 74.5254 102.039C72.7421 102.225 70.5005 101.242 69.2745 99.8611C68.0484 98.4798 67.4787 96.4888 67.776 94.6223C66.0793 94.3983 64.4446 92.3451 63.8253 90.6652C63.2185 88.9853 63.5529 86.957 64.6799 85.5882C63.169 84.4185 62.4878 81.8053 62.3888 79.8392C62.2897 77.8731 63.0575 75.8697 64.4446 74.5382C61.7448 71.9624 61.3361 66.4996 64.0111 63.9113C62.9337 63.2518 62.6117 62.3061 62.5621 60.9995C62.5126 59.6929 63.6643 58.1126 64.6922 57.366H64.717Z" fill="#2E2E2E"/>
<path d="M124.744 78.6073C121.685 83.5474 121.982 89.4084 125.4 91.6856C128.831 93.9627 134.094 91.81 137.153 86.8574C140.212 81.9173 139.915 76.0563 136.496 73.7791C133.066 71.5019 127.803 73.6547 124.744 78.5948V78.6073Z" fill="#F5F5FF" stroke="#2E2E2E" stroke-width="0.54" stroke-linecap="round" stroke-linejoin="round"/>
<path d="M133.921 76.156C135.407 76.7409 136.534 78.1594 136.769 79.7398C137.004 81.3201 136.348 83.0125 135.11 84.0204" stroke="#2E2E2E" stroke-width="0.54" stroke-linecap="round" stroke-linejoin="round"/>
<path d="M83.3926 78.6073C86.4515 83.5474 86.1543 89.4084 82.7362 91.6856C79.3058 93.9627 74.0424 91.81 70.9835 86.8574C67.9245 81.9173 68.2218 76.0563 71.6398 73.7791C75.0703 71.5019 80.3337 73.6547 83.3926 78.5948V78.6073Z" fill="#F5F5FF" stroke="#2E2E2E" stroke-width="0.54" stroke-linecap="round" stroke-linejoin="round"/>
<path d="M74.2158 76.156C72.7297 76.7409 71.6027 78.1594 71.3674 79.7398C71.1321 81.3201 71.7884 83.0125 73.0269 84.0204" stroke="#2E2E2E" stroke-width="0.54" stroke-linecap="round" stroke-linejoin="round"/>
<path d="M118.775 135.823C119.047 144.185 112.397 151.092 104.074 151.092C95.7521 151.092 89.3618 144.447 89.3618 136.321C89.3618 136.159 89.3618 135.985 89.3742 135.823L91.0089 113.785L91.43 108.211L92.2474 97.2603H115.902L117.202 114.557L118.131 127.15L118.787 135.811L118.775 135.823Z" fill="#F5F5FF" stroke="#2E2E2E" stroke-width="0.56" stroke-linecap="round" stroke-linejoin="round"/>
<path d="M118.131 127.162C110.366 127.722 101.808 123.84 95.9378 116.299C93.9563 113.773 92.4454 111.023 91.4299 108.223L92.2473 97.2727H115.901L117.202 114.569L118.131 127.162Z" fill="#2E2E2E"/>
<path d="M129.4 93.2533C128.484 95.6301 127.146 98.1064 125.549 100.508C122.465 105.137 118.378 109.48 114.291 112.242C109.821 115.254 103.95 116.237 98.848 114.495C94.8355 113.126 91.5165 110.226 88.5566 107.178C84.8661 103.37 81.4975 99.1143 79.6027 94.1368C78.129 90.2669 77.5097 85.9738 77.3364 81.5687C77.1011 75.4713 77.7574 69.1749 78.2776 63.5752C79.033 55.3126 84.0239 47.4731 91.1202 43.2672C98.0802 39.1483 106.985 38.5386 114.44 41.6619C121.895 44.7977 127.716 51.5795 129.697 59.4564C131.109 65.056 130.626 70.8672 130.713 76.5788C130.738 78.1841 130.812 79.8017 130.849 81.4194C130.961 85.4387 130.874 89.458 129.413 93.2533H129.4Z" fill="#F5F5FF" stroke="#2E2E2E" stroke-width="0.54" stroke-linecap="round" stroke-linejoin="round"/>
<path d="M130.924 81.4195V81.6186L130.775 81.4818C128.93 79.8765 127.803 77.5371 127.691 75.0982L126.725 56.6567C125.759 56.2709 124.831 55.8727 123.889 55.4372C122.49 54.7528 121.115 54.031 119.852 53.2347C117.078 51.5672 114.675 49.6633 112.843 47.7097C110.217 48.3443 107.22 48.6803 104.173 48.6803C100.619 48.6803 97.1887 48.2323 94.2536 47.3612C92.5446 49.2776 90.2906 51.1317 87.6899 52.7742C86.2038 53.7324 84.6062 54.6283 82.9095 55.4247C82.538 55.5989 82.1293 55.7856 81.6339 55.9971L80.668 75.0857C80.5317 77.6242 79.3428 80.001 77.3985 81.6062L77.2499 81.7306V81.544C77.027 75.8697 77.5843 69.9589 78.0549 64.7575L78.1787 63.5504C78.6741 58.2121 80.8661 53.0978 84.2966 48.9789C86.2038 46.6768 88.4949 44.6859 91.0708 43.1553C98.0432 39.0364 107.01 38.4142 114.477 41.5625C118.143 43.0931 121.45 45.5445 124.075 48.5807C126.775 51.6792 128.781 55.4247 129.784 59.4191C130.874 63.7371 130.849 68.2293 130.8 72.5845C130.787 73.8911 130.787 75.2475 130.8 76.5665C130.812 77.4873 130.837 78.4331 130.874 79.3539C130.887 80.0383 130.911 80.7103 130.924 81.4071V81.4195Z" fill="#2E2E2E"/>
<path d="M124.063 48.6057C121.438 45.5694 118.143 43.118 114.465 41.5874C107.01 38.4392 98.0311 39.0738 91.0587 43.1802C88.4827 44.7108 86.1916 46.6893 84.2844 49.0039C84.755 49.8127 85.3619 50.5718 86.043 51.2935C86.1173 52.9734 86.848 54.6284 88.0864 55.7608C89.5354 57.0922 91.616 57.6895 93.5479 57.3287C93.9195 58.797 95.6409 60.3027 97.127 60.5267C98.6131 60.7507 100.211 59.9916 100.979 58.685C101.821 59.9792 103.554 61.124 105.078 60.9871C106.613 60.8502 108.038 59.8174 108.644 58.3988C109.549 59.9294 110.985 61.2733 112.744 61.0369C114.502 60.8005 116.063 59.4192 116.521 57.702C118.738 58.3491 121.338 57.2789 121.896 55.039C122.156 53.9813 121.933 52.8738 121.4 51.9281C122.49 50.9077 123.394 49.8003 124.038 48.6057H124.063Z" fill="#2E2E2E"/>
<path d="M111.951 99.5376C111.951 101.603 107.554 103.283 104.557 103.283C101.746 103.283 96.0244 101.603 96.0244 99.5376" fill="#F5F5FF"/>
<path d="M111.951 99.5376C111.951 101.603 107.554 103.283 104.557 103.283C101.746 103.283 96.0244 101.603 96.0244 99.5376" stroke="#2E2E2E" stroke-width="0.62" stroke-linecap="round" stroke-linejoin="round"/>
<path d="M111.951 99.4878V99.5251H96.0244V99.4878C96.0244 97.9199 101.573 96.6382 104.557 96.6382C107.368 96.6382 111.951 97.9074 111.951 99.4878Z" fill="#2E2E2E" stroke="#2E2E2E" stroke-width="0.46" stroke-miterlimit="10"/>
<path d="M110.675 97.8952C111.48 98.4178 112.731 98.5173 113.796 97.9698C114.118 97.7832 114.465 98.2311 114.205 98.4924C113.239 99.5377 111.678 100.123 110.043 99.8364C108.31 99.5875 109.164 97.0241 110.687 97.8827L110.675 97.8952Z" fill="#2E2E2E"/>
<path d="M98.1172 99.8363C96.4825 100.123 94.9221 99.5377 93.9561 98.4924C93.696 98.2311 94.0428 97.7831 94.3524 97.9573C95.4175 98.5049 96.6683 98.4053 97.4733 97.8827C97.9562 97.5716 98.6126 97.7085 98.9222 98.2062C99.3681 98.8657 98.8851 99.7865 98.1049 99.8363H98.1172Z" fill="#2E2E2E"/>
<path d="M101.697 99.1768C102.353 99.7865 103.232 100.16 104.136 100.197C105.04 100.234 105.944 99.9483 106.65 99.4132" fill="#2E2E2E"/>
<path d="M101.697 99.1768C102.353 99.7865 103.232 100.16 104.136 100.197C105.04 100.234 105.944 99.9483 106.65 99.4132" stroke="#2E2E2E" stroke-width="0.92" stroke-linecap="round" stroke-linejoin="round"/>
<path d="M108.087 71.589C108.706 70.0584 109.957 68.9385 111.332 68.1545C112.719 67.383 114.304 66.96 115.902 66.9102C117.499 66.8604 119.097 67.1715 120.533 67.8435C121.958 68.5279 123.27 69.5482 124.013 71.029L119.753 70.917C118.465 70.8922 117.239 70.9046 116.026 70.9295C114.812 70.9668 113.586 71.0415 112.31 71.141C111.022 71.2406 109.71 71.3899 108.087 71.5766V71.589Z" fill="#2E2E2E"/>
<path d="M100.049 71.589C98.427 71.4023 97.1142 71.253 95.8263 71.1534C94.5507 71.0414 93.3246 70.9792 92.111 70.9419C90.8973 70.9046 89.6712 70.9046 88.3833 70.9294L84.123 71.0414C84.8661 69.5606 86.1788 68.5403 87.603 67.8559C89.0396 67.1839 90.6372 66.8604 92.2348 66.9226C93.8324 66.9724 95.4052 67.3954 96.8046 68.167C98.1793 68.9385 99.4177 70.0708 100.049 71.6014V71.589Z" fill="#2E2E2E"/>
<path d="M108.842 82.3777C110.069 79.0303 113.189 76.1559 116.942 76.4421C119.679 76.6287 122.787 78.0846 123.877 80.7227C123.964 80.9715 123.691 81.2204 123.444 81.1084C122.205 80.5236 121.475 79.5779 120.273 79.0303C115.864 76.6536 111.703 78.6944 109.325 82.6639C109.127 82.9376 108.681 82.6639 108.83 82.3652L108.842 82.3777Z" fill="#2E2E2E"/>
<path d="M113.722 79.9013C113.821 78.5574 114.985 77.537 116.323 77.6366C117.66 77.7361 118.676 78.9058 118.577 80.2498C118.478 81.5937 117.313 82.6141 115.976 82.5145C114.638 82.415 113.623 81.2453 113.722 79.9013Z" fill="#2E2E2E"/>
<path d="M121.066 82.1414C121.957 81.9423 122.812 81.5316 123.53 80.9592" stroke="#2E2E2E" stroke-width="0.54" stroke-linecap="round" stroke-linejoin="round"/>
<path d="M108.781 78.2588C109.784 76.5416 111.406 75.1977 113.276 74.5382C115.146 73.8787 117.252 73.9035 119.109 74.6128" stroke="#2E2E2E" stroke-width="0.54" stroke-linecap="round" stroke-linejoin="round"/>
<path d="M98.811 82.6764C95.9997 77.9104 90.8974 76.467 86.3151 80.0383C85.9932 80.2498 84.2841 81.88 84.2717 80.7352C85.3616 78.0971 88.4824 76.6412 91.207 76.4421C94.1421 76.2057 96.9409 78.0473 98.4023 80.4738C98.6995 81.1085 99.0215 81.7306 99.3187 82.3653C99.3806 82.5146 99.3187 82.6888 99.1701 82.751C99.0463 82.8132 98.8977 82.7635 98.8234 82.6639L98.811 82.6764Z" fill="#2E2E2E"/>
<path d="M94.4273 79.9016C94.3282 78.5577 93.1641 77.5373 91.8265 77.6368C90.489 77.7364 89.4735 78.9061 89.5726 80.25C89.6717 81.5939 90.8358 82.6143 92.1733 82.5148C93.5108 82.4152 94.5263 81.2455 94.4273 79.9016Z" fill="#2E2E2E"/>
<path d="M87.0831 82.1414C86.1915 81.9423 85.3369 81.5316 84.6187 80.9592" stroke="#2E2E2E" stroke-width="0.54" stroke-linecap="round" stroke-linejoin="round"/>
<path d="M99.3686 78.2588C98.3655 76.5416 96.7431 75.1977 94.8731 74.5382C93.003 73.8787 90.8977 73.9035 89.04 74.6128" stroke="#2E2E2E" stroke-width="0.54" stroke-linecap="round" stroke-linejoin="round"/>
<path d="M100.235 91.3122C98.9222 91.474 98.1792 90.043 98.786 88.8733" stroke="#2E2E2E" stroke-width="0.62" stroke-linecap="round" stroke-linejoin="round"/>
<path d="M107.914 91.4492C109.226 91.611 109.969 90.18 109.363 89.0103" stroke="#2E2E2E" stroke-width="0.62" stroke-linecap="round" stroke-linejoin="round"/>
<path d="M100.111 91.1255C102.229 93.0791 105.808 93.1289 107.975 91.2499" stroke="#2E2E2E" stroke-width="0.62" stroke-linecap="round" stroke-linejoin="round"/>
<path d="M161.216 192.902C149.921 198.016 139.617 199.597 138.193 196.424C136.769 193.25 144.769 186.531 156.051 181.404C167.346 176.29 177.65 174.709 179.074 177.883C180.498 181.056 172.498 187.775 161.216 192.902Z" fill="#2E2E2E"/>
<path d="M156.25 220.764L150.962 207.86L146.726 197.519L143.159 188.796L135.32 169.657C131.196 159.591 135.246 148.429 144.15 145.367C145.698 144.832 147.296 144.596 148.869 144.608C149.017 144.608 149.166 144.608 149.302 144.621C156.2 144.87 162.875 150.021 165.55 157.886L171.891 176.526L174.727 184.888L187 221" fill="#F5F5FF"/>
<path d="M156.25 220.764L150.962 207.86L146.726 197.519L143.159 188.796L135.32 169.657C131.196 159.591 135.246 148.429 144.15 145.367C145.698 144.832 147.296 144.596 148.869 144.608C149.017 144.608 149.166 144.608 149.302 144.621C156.2 144.87 162.875 150.021 165.55 157.886L171.891 176.526L174.727 184.888L187 221" stroke="#2E2E2E" stroke-width="0.54" stroke-linecap="round" stroke-linejoin="round"/>
<path d="M178.839 177.497C176.746 174.846 166.863 176.514 156.064 181.404C144.769 186.531 136.757 193.251 138.206 196.436C138.243 196.511 138.28 196.561 138.329 196.623L138.206 196.673L125.734 167.293C120.843 155.758 126.131 142.605 137.252 138.698C139.357 137.963 141.5 137.603 143.63 137.603C151.246 137.603 158.553 142.144 162.293 149.499L178.839 177.509V177.497Z" fill="#F5F5FF" stroke="#2E2E2E" stroke-width="0.54" stroke-linecap="round" stroke-linejoin="round"/>
<path d="M47.0815 193.101C58.376 198.216 68.6798 199.796 70.104 196.623C71.5282 193.45 63.5279 186.73 52.2458 181.603C40.9512 176.489 30.6475 174.909 29.2233 178.082C27.799 181.255 35.7993 187.974 47.0815 193.101Z" fill="#2E2E2E"/>
<path d="M21 220.988L33.533 184.988L36.4309 176.638L42.9079 158.047C45.6944 150.046 52.6173 144.895 59.6764 144.895H59.7631C61.3111 144.907 62.8591 145.156 64.3824 145.691C73.262 148.814 77.2498 160.001 73.0515 170.043L65.076 189.119L61.4473 197.817L57.5834 207.076L51.7628 220.988" fill="#F5F5FF"/>
<path d="M21 220.988L33.533 184.988L36.4309 176.638L42.9079 158.047C45.6944 150.046 52.6173 144.895 59.6764 144.895H59.7631C61.3111 144.907 62.8591 145.156 64.3824 145.691C73.262 148.814 77.2498 160.001 73.0515 170.043L65.0759 189.119L61.4473 197.817L57.5834 207.076L51.7628 220.988" stroke="#2E2E2E" stroke-width="0.54" stroke-linecap="round" stroke-linejoin="round"/>
<path d="M29.4587 177.696C31.5517 175.046 41.4344 176.713 52.2336 181.603C63.5281 186.73 71.5408 193.45 70.0918 196.635C70.0547 196.71 70.0175 196.76 69.968 196.822L70.0918 196.872L82.5629 167.492C87.4547 155.957 82.1666 142.804 71.0454 138.897C68.9401 138.163 66.7976 137.802 64.6675 137.802C57.0511 137.802 49.7443 142.344 46.0042 149.698L29.4587 177.709V177.696Z" fill="#F5F5FF" stroke="#2E2E2E" stroke-width="0.54" stroke-linecap="round" stroke-linejoin="round"/>
<path d="M151.259 220.988H56.7659L57.2489 207.076L57.5956 197.034L58.0291 184.715L59.4409 144.895L59.6514 138.225L80.42 131.443L83.8381 130.199L85.5347 129.577L89.956 127.188H91.2935H116.867H117.4L122.366 129.477L124.05 130.099L127.468 131.331L148.559 138.225L148.707 144.907L149.463 167.331L150.033 184.466L150.454 196.872V196.934L150.825 208.134L151.259 220.988Z" fill="#F5F5FF" stroke="#2E2E2E" stroke-width="0.54" stroke-linecap="round" stroke-linejoin="round"/>
<path d="M118.254 126.59L121.697 129.191L123.307 129.776C122.106 139.444 113.883 146.911 103.926 146.911C93.9687 146.911 85.8074 139.494 84.5442 129.875L86.1913 129.278L90.1048 126.105" fill="#F5F5FF"/>
<path d="M118.254 126.59L121.697 129.191L123.307 129.776C122.106 139.444 113.883 146.911 103.926 146.911C93.9687 146.911 85.8074 139.494 84.5442 129.875L86.1913 129.278L90.1048 126.105" stroke="#2E2E2E" stroke-width="0.54" stroke-linecap="round" stroke-linejoin="round"/>
</svg>
