<svg width="169" height="212" viewBox="0 0 169 212" fill="none" xmlns="http://www.w3.org/2000/svg">
<path d="M85 160C129.183 160 165 124.183 165 80C165 35.8172 129.183 0 85 0C40.8172 0 5 35.8172 5 80C5 124.183 40.8172 160 85 160Z" fill="#FFCE33"/>
<path d="M105.311 56.2782C102.234 61.6461 102.533 68.0145 105.971 70.4889C109.422 72.9632 114.717 70.6241 117.794 65.2427C120.871 59.8748 120.572 53.5064 117.134 51.0321C113.683 48.5577 108.388 50.8968 105.311 56.2647V56.2782Z" fill="#F5F5FF" stroke="#2E2E2E" stroke-width="0.54" stroke-linecap="round" stroke-linejoin="round"/>
<path d="M114.542 53.6282C116.037 54.2637 117.171 55.8051 117.408 57.5222C117.645 59.2394 116.984 61.0783 115.738 62.1735" stroke="#2E2E2E" stroke-width="0.54" stroke-linecap="round" stroke-linejoin="round"/>
<path d="M63.7139 56.2782C66.791 61.6461 66.492 68.0145 63.0536 70.4889C59.6027 72.9632 54.3081 70.6241 51.2309 65.2427C48.1538 59.8748 48.4528 53.5064 51.8912 51.0321C55.3421 48.5577 60.6367 50.8968 63.7139 56.2647V56.2782Z" fill="#F5F5FF" stroke="#2E2E2E" stroke-width="0.54" stroke-linecap="round" stroke-linejoin="round"/>
<path d="M54.4823 53.6282C52.9873 54.2637 51.8536 55.8051 51.6169 57.5222C51.3802 59.2394 52.0405 61.0783 53.2863 62.1735" stroke="#2E2E2E" stroke-width="0.54" stroke-linecap="round" stroke-linejoin="round"/>
<path d="M99.892 118.462C100.166 127.548 93.4762 135.052 85.1044 135.052C76.7326 135.052 70.3042 127.832 70.3042 119.002C70.3042 118.827 70.3042 118.637 70.3167 118.462L71.9611 94.5158L72.3847 88.4583L73.2069 76.5598H97.0018L98.3099 95.3541L99.2442 109.037L99.9045 118.448L99.892 118.462Z" fill="#F5F5FF" stroke="#2E2E2E" stroke-width="0.56" stroke-linecap="round" stroke-linejoin="round"/>
<path d="M99.2316 109.051C91.4204 109.659 82.8119 105.441 76.9068 97.247C74.9135 94.5022 73.3936 91.514 72.3721 88.4718L73.1943 76.5732H96.9892L98.2972 95.3675L99.2316 109.051Z" fill="#2E2E2E"/>
<path d="M110.78 72.2062C109.858 74.7887 108.513 77.4794 106.906 80.0889C103.804 85.1188 99.6927 89.8376 95.5815 92.8393C91.0842 96.1114 85.179 97.1796 80.0463 95.2866C76.0099 93.7993 72.6712 90.6489 69.6937 87.3362C65.9812 83.1988 62.5926 78.5746 60.6865 73.1661C59.204 68.9611 58.5811 64.2963 58.4067 59.5099C58.17 52.8845 58.8303 46.0429 59.3535 39.9584C60.1134 30.9804 65.134 22.4621 72.2725 17.892C79.2739 13.4165 88.2313 12.754 95.731 16.1478C103.231 19.5551 109.086 26.9241 111.079 35.4829C112.5 41.5674 112.014 47.8817 112.101 54.0879C112.126 55.8321 112.201 57.5899 112.238 59.3476C112.35 63.7149 112.263 68.0822 110.793 72.2062H110.78Z" fill="#F5F5FF" stroke="#2E2E2E" stroke-width="0.54" stroke-linecap="round" stroke-linejoin="round"/>
<path d="M91.844 49.6531C92.3548 47.9494 93.5258 46.6244 94.8464 45.6779C96.1919 44.7314 97.7366 44.15 99.3312 43.9607C100.926 43.7714 102.558 43.9878 104.053 44.5962C105.535 45.2182 106.918 46.2323 107.778 47.7601L103.505 47.9765C102.209 48.0576 100.976 48.1658 99.7673 48.301C98.5464 48.4362 97.338 48.612 96.0548 48.8418C94.7716 49.0582 93.4635 49.3286 91.8564 49.6531H91.844Z" fill="#2E2E2E"/>
<path d="M79.6726 49.6531C78.0655 49.3286 76.7574 49.0582 75.4742 48.8418C74.2035 48.6255 72.9827 48.4497 71.7618 48.301C70.5409 48.1658 69.32 48.0576 68.0244 47.9765L63.7512 47.7601C64.6108 46.2187 65.9937 45.2182 67.4762 44.5962C68.9712 43.9878 70.5907 43.7714 72.1978 43.9607C73.7924 44.15 75.3497 44.7314 76.6827 45.6779C78.0032 46.6379 79.1743 47.9494 79.6851 49.6531H79.6726Z" fill="#2E2E2E"/>
<path d="M90.7725 61.268C90.9968 60.5919 91.2584 59.9294 91.4951 59.2669L91.52 59.2263C92.1803 57.9418 93.0524 56.7114 94.2483 55.8596C95.4194 54.9942 96.8396 54.4804 98.2598 54.3993C99.6676 54.3046 101.1 54.5615 102.396 55.1564C103.044 55.4539 103.654 55.819 104.227 56.2517C104.8 56.6573 105.336 57.1846 105.623 57.8877C105.697 58.0635 105.623 58.2663 105.473 58.3339C105.411 58.361 105.336 58.3745 105.261 58.3474C104.551 58.1311 104.065 57.7931 103.53 57.455C102.994 57.1305 102.433 56.8601 101.873 56.6438C100.739 56.2111 99.543 56.0218 98.347 56.0624C97.1635 56.1029 96.0049 56.4274 94.9709 57.0629C93.9493 57.7119 93.0524 58.6449 92.3049 59.7401L92.3298 59.6995C91.981 60.308 91.6446 60.9299 91.2833 61.5249C91.1961 61.6601 91.0217 61.7007 90.8971 61.606C90.785 61.5249 90.7476 61.3761 90.785 61.2409L90.7725 61.268Z" fill="#2E2E2E"/>
<path d="M102.969 59.632C103.841 59.321 104.651 58.8207 105.299 58.1582" stroke="#2E2E2E" stroke-width="0.51" stroke-linecap="round" stroke-linejoin="round"/>
<path d="M94.9834 57.8877C94.9834 56.4004 96.0922 55.197 97.4625 55.197C98.8329 55.197 99.9417 56.4004 99.9417 57.8877C99.9417 59.375 98.8329 60.5784 97.4625 60.5784C96.0922 60.5784 94.9834 59.375 94.9834 57.8877Z" fill="#2E2E2E"/>
<path d="M90.2617 57.1846C91.0839 55.3592 92.5665 53.8178 94.3604 52.9525C96.1668 52.0736 98.2722 51.8573 100.203 52.3575" stroke="#2E2E2E" stroke-width="0.51" stroke-linecap="round" stroke-linejoin="round"/>
<path d="M80.2454 59.9561C79.8841 59.3612 79.5477 58.7392 79.1989 58.1308L79.2238 58.1713C78.4763 57.0761 77.5794 56.1567 76.5578 55.4942C75.5238 54.8587 74.3652 54.5342 73.1817 54.4936C71.9857 54.453 70.7897 54.6423 69.6561 55.075C69.083 55.2914 68.5224 55.5482 67.9991 55.8863C67.4634 56.2243 66.9651 56.5623 66.2675 56.7787C66.1055 56.8328 65.9311 56.7246 65.8937 56.5488C65.8688 56.4677 65.8937 56.3866 65.9062 56.3189C66.1927 55.6023 66.7284 55.075 67.3015 54.6694C67.8745 54.2502 68.485 53.8716 69.1328 53.5742C70.4284 52.9792 71.8611 52.7223 73.2689 52.817C74.6891 52.8981 76.0969 53.4119 77.2804 54.2773C78.4764 55.1291 79.3484 56.3595 80.0087 57.644L80.0336 57.6846C80.2703 58.3471 80.5319 59.0097 80.7561 59.6857C80.806 59.848 80.7312 60.0237 80.5818 60.0778C80.4572 60.1319 80.3201 60.0778 80.2454 59.9561Z" fill="#2E2E2E"/>
<path d="M68.5477 58.0497C67.6756 57.7387 66.8658 57.2385 66.218 56.5759" stroke="#2E2E2E" stroke-width="0.51" stroke-linecap="round" stroke-linejoin="round"/>
<path d="M76.533 56.3054C76.533 54.8181 75.4243 53.6147 74.0539 53.6147C72.6835 53.6147 71.5747 54.8181 71.5747 56.3054C71.5747 57.7928 72.6835 58.9961 74.0539 58.9961C75.4243 58.9961 76.533 57.7928 76.533 56.3054Z" fill="#2E2E2E"/>
<path d="M81.255 55.616C80.4328 53.7906 78.9503 52.2627 77.1563 51.3839C75.3499 50.505 73.2445 50.2887 71.3135 50.7889" stroke="#2E2E2E" stroke-width="0.51" stroke-linecap="round" stroke-linejoin="round"/>
<path d="M81.8901 70.0969C80.5695 70.2727 79.8221 68.7178 80.4325 67.4468" stroke="#2E2E2E" stroke-width="0.62" stroke-linecap="round" stroke-linejoin="round"/>
<path d="M89.6265 70.2456C90.947 70.4214 91.6945 68.8664 91.084 67.5955" stroke="#2E2E2E" stroke-width="0.62" stroke-linecap="round" stroke-linejoin="round"/>
<path d="M81.7778 69.894C83.9082 72.0169 87.5085 72.0709 89.6887 70.0293" stroke="#2E2E2E" stroke-width="0.62" stroke-linecap="round" stroke-linejoin="round"/>
<path d="M83.958 79.0885C84.4314 79.5888 85.0917 79.8727 85.752 79.8727C86.4122 79.8727 87.0725 79.5888 87.5459 79.0885C88.2934 78.3043 89.6264 78.791 90.6604 78.9533C91.682 79.1156 92.7285 79.3319 93.7376 79.102" stroke="#2E2E2E" stroke-width="0.53" stroke-linecap="round" stroke-linejoin="round"/>
<path d="M83.9582 79.0885C83.2108 78.3043 81.8778 78.791 80.8437 78.9533C79.8222 79.1156 78.7757 79.3319 77.7666 79.102" stroke="#2E2E2E" stroke-width="0.53" stroke-linecap="round" stroke-linejoin="round"/>
<path d="M81.0183 82.2527C83.647 83.2397 86.5497 83.3749 89.2406 82.6313" stroke="#2E2E2E" stroke-width="0.53" stroke-linecap="round" stroke-linejoin="round"/>
<path d="M85.752 73.7071C86.35 72.5308 87.5584 71.8277 88.7668 71.5167C89.9877 71.2057 91.1961 71.2733 92.3049 71.4626C94.5723 71.9358 96.2043 72.7741 97.4127 73.2474L98.8454 73.8153C99.2191 73.9775 99.6053 74.1127 100.253 74.1398C101.536 74.2344 103.43 73.626 105.822 73.4232C105.585 75.9922 104.75 78.2096 102.645 79.9674C101.611 80.8327 100.153 81.4141 98.6834 81.5223C97.2134 81.644 95.843 81.2924 94.7342 80.8327C92.4793 79.8727 91.0342 78.4395 89.9254 77.2902C89.3399 76.6682 88.8042 76.0733 88.1937 75.4513C87.5708 74.8293 86.8856 74.2209 85.7395 73.7071H85.752Z" fill="#2E2E2E"/>
<path d="M85.7642 73.7071C84.6181 74.2209 83.9329 74.8158 83.31 75.4513C82.6996 76.0733 82.1638 76.6817 81.5783 77.2902C80.482 78.4395 79.0244 79.8727 76.7695 80.8327C75.6483 81.2924 74.2904 81.644 72.8203 81.5223C71.3503 81.4276 69.8927 80.8327 68.8587 79.9674C66.7533 78.2096 65.9186 75.9922 65.6819 73.4232C68.0863 73.626 69.9675 74.2344 71.2506 74.1398C71.8984 74.1127 72.2846 73.9775 72.6584 73.8153L74.0911 73.2474C75.2995 72.7741 76.9315 71.9358 79.1988 71.4626C80.3076 71.2733 81.5285 71.2057 82.7369 71.5167C83.9329 71.8277 85.1413 72.5308 85.7518 73.7071H85.7642Z" fill="#2E2E2E"/>
<path d="M142.062 180.05C130.701 185.607 120.336 187.324 118.903 183.877C117.47 180.429 125.518 173.127 136.867 167.557C148.229 161.999 158.594 160.282 160.027 163.73C161.46 167.178 153.412 174.479 142.062 180.05Z" fill="#2E2E2E"/>
<path d="M137.067 210.324L131.747 196.303L127.486 185.067L123.898 175.588L116.013 154.793C111.864 143.854 115.938 131.726 124.895 128.4C126.452 127.818 128.059 127.561 129.642 127.575C129.791 127.575 129.941 127.575 130.078 127.588C137.017 127.859 143.732 133.457 146.423 142.002L152.801 162.257L155.654 171.343L168 210.581" fill="#F5F5FF"/>
<path d="M137.067 210.324L131.747 196.303L127.486 185.067L123.898 175.588L116.013 154.793C111.864 143.854 115.938 131.726 124.895 128.4C126.452 127.818 128.059 127.561 129.642 127.575C129.791 127.575 129.941 127.575 130.078 127.588C137.017 127.859 143.732 133.457 146.423 142.002L152.801 162.257L155.654 171.343L168 210.581" stroke="#2E2E2E" stroke-width="0.54" stroke-linecap="round" stroke-linejoin="round"/>
<path d="M159.778 163.311C157.672 160.431 147.731 162.243 136.867 167.557C125.506 173.128 117.445 180.429 118.903 183.89C118.94 183.971 118.978 184.026 119.027 184.093L118.903 184.147L106.358 152.224C101.437 139.69 106.756 125.398 117.944 121.153C120.062 120.355 122.217 119.963 124.36 119.963C132.021 119.963 139.371 124.898 143.134 132.889L159.778 163.325V163.311Z" fill="#2E2E2E"/>
<path d="M27.249 180.05C38.6108 185.607 48.9758 187.324 50.4085 183.877C51.8412 180.429 43.7933 173.127 32.444 167.557C21.0823 161.999 10.7172 160.282 9.28453 163.73C7.85186 167.178 15.8998 174.479 27.249 180.05Z" fill="#2E2E2E"/>
<path d="M1 210.364L13.6075 171.248L16.5227 162.175L23.0383 141.975C25.8413 133.281 32.8054 127.683 39.9065 127.683H39.9937C41.5509 127.697 43.1082 127.967 44.6405 128.548C53.5729 131.942 57.5844 144.098 53.3611 155.009L45.3382 175.737L41.688 185.188L37.8011 195.248L31.9458 210.364" fill="#F5F5FF"/>
<path d="M1 210.364L13.6075 171.248L16.5227 162.175L23.0383 141.975C25.8413 133.281 32.8054 127.683 39.9065 127.683H39.9937C41.5509 127.697 43.1082 127.967 44.6405 128.548C53.5729 131.942 57.5844 144.098 53.3611 155.009L45.3381 175.737L41.688 185.188L37.8011 195.248L31.9458 210.364" stroke="#2E2E2E" stroke-width="0.54" stroke-linecap="round" stroke-linejoin="round"/>
<path d="M9.52148 163.311C11.6269 160.431 21.5684 162.243 32.4318 167.557C43.7936 173.128 51.8539 180.429 50.3963 183.89C50.3589 183.971 50.3216 184.026 50.2718 184.093L50.3963 184.147L62.9416 152.224C67.8625 139.69 62.5429 125.398 51.3556 121.153C49.2377 120.355 47.0825 119.963 44.9397 119.963C37.278 119.963 29.9278 124.898 26.1654 132.889L9.52148 163.325V163.311Z" fill="#2E2E2E"/>
<path d="M132.046 211H36.9788L37.4771 195.884L37.8259 184.972L38.2619 171.586L39.6822 128.319L39.8939 121.883L42.9586 120.679L60.7736 113.703L64.212 112.35L65.9188 111.674L70.3788 109.078H71.7242H97.4501H97.9858L102.981 111.566L104.676 112.229L108.114 113.581L126.452 120.774L129.28 121.883L129.48 128.332L130.24 152.697L130.813 171.316L131.224 184.796V184.864L131.598 197.033L132.046 211Z" fill="#F5F5FF" stroke="#2E2E2E" stroke-width="0.5" stroke-linecap="round" stroke-linejoin="round"/>
<path d="M111.503 171.924C105.859 171.924 101.287 166.962 101.287 160.837V141.772H121.706V160.837C121.706 166.962 117.134 171.924 111.49 171.924H111.503Z" fill="#F5F5FF" stroke="#2E2E2E" stroke-width="0.5" stroke-linecap="round" stroke-linejoin="round"/>
<path d="M101.262 147.018H121.731" stroke="#2E2E2E" stroke-width="0.5" stroke-linecap="round" stroke-linejoin="round"/>
<path d="M99.4685 108.659L102.321 111.255L103.941 111.891C102.732 122.396 94.4603 130.509 84.4441 130.509C74.4278 130.509 66.218 122.451 64.9473 111.999L66.6042 111.35L71.2261 108.321" fill="#F5F5FF"/>
<path d="M99.4685 108.659L102.321 111.255L103.941 111.891C102.732 122.396 94.4603 130.509 84.4441 130.509C74.4278 130.509 66.218 122.451 64.9473 111.999L66.6042 111.35L71.2261 108.321" stroke="#2E2E2E" stroke-width="0.5" stroke-linecap="round" stroke-linejoin="round"/>
<path d="M106.246 113.04C104.888 124.79 95.6439 133.862 84.4441 133.862C73.2444 133.862 64.0628 124.844 62.6426 113.162" stroke="#2E2E2E" stroke-width="0.56" stroke-linecap="round" stroke-linejoin="round"/>
<path d="M52.5264 146.938L55.7779 142.76" stroke="#2E2E2E" stroke-width="0.5" stroke-linecap="round" stroke-linejoin="round"/>
<path d="M50.7446 134.106L52.8127 136.35" stroke="#2E2E2E" stroke-width="0.5" stroke-linecap="round" stroke-linejoin="round"/>
<path d="M57.5471 131.861L60.4997 129.292" stroke="#2E2E2E" stroke-width="0.5" stroke-linecap="round" stroke-linejoin="round"/>
<path d="M52.5264 123.844L55.7779 126.413" stroke="#2E2E2E" stroke-width="0.5" stroke-linecap="round" stroke-linejoin="round"/>
<path d="M42.7717 140.839L45.4253 138.595" stroke="#2E2E2E" stroke-width="0.5" stroke-linecap="round" stroke-linejoin="round"/>
<path d="M44.2542 127.697L47.2067 131.537" stroke="#2E2E2E" stroke-width="0.5" stroke-linecap="round" stroke-linejoin="round"/>
<path d="M45.1387 160.404L49.8603 156.875" stroke="#2E2E2E" stroke-width="0.5" stroke-linecap="round" stroke-linejoin="round"/>
<path d="M45.4253 150.142L47.7923 152.711" stroke="#2E2E2E" stroke-width="0.5" stroke-linecap="round" stroke-linejoin="round"/>
<path d="M60.2004 152.386L63.153 149.817" stroke="#2E2E2E" stroke-width="0.5" stroke-linecap="round" stroke-linejoin="round"/>
<path d="M65.2209 137.635L68.1859 142.448" stroke="#2E2E2E" stroke-width="0.5" stroke-linecap="round" stroke-linejoin="round"/>
<path d="M73.4932 150.466L76.1592 147.897" stroke="#2E2E2E" stroke-width="0.5" stroke-linecap="round" stroke-linejoin="round"/>
<path d="M61.384 162.649L64.3366 166.489" stroke="#2E2E2E" stroke-width="0.5" stroke-linecap="round" stroke-linejoin="round"/>
<path d="M49.2749 170.978L52.5265 167.449" stroke="#2E2E2E" stroke-width="0.5" stroke-linecap="round" stroke-linejoin="round"/>
<path d="M55.7778 179.956L58.1324 178.036" stroke="#2E2E2E" stroke-width="0.5" stroke-linecap="round" stroke-linejoin="round"/>
<path d="M43.656 182.849L46.6086 186.054" stroke="#2E2E2E" stroke-width="0.5" stroke-linecap="round" stroke-linejoin="round"/>
<path d="M43.0706 173.222L45.4251 170.978" stroke="#2E2E2E" stroke-width="0.5" stroke-linecap="round" stroke-linejoin="round"/>
<path d="M53.6975 186.054L57.248 189.583" stroke="#2E2E2E" stroke-width="0.5" stroke-linecap="round" stroke-linejoin="round"/>
<path d="M44.2542 197.601L48.0912 195.356" stroke="#2E2E2E" stroke-width="0.5" stroke-linecap="round" stroke-linejoin="round"/>
<path d="M54.8809 198.872L58.1324 202.09" stroke="#2E2E2E" stroke-width="0.5" stroke-linecap="round" stroke-linejoin="round"/>
<path d="M48.3901 206.579L50.7447 204.334" stroke="#2E2E2E" stroke-width="0.5" stroke-linecap="round" stroke-linejoin="round"/>
<path d="M69.3572 203.361L72.0232 205.93" stroke="#2E2E2E" stroke-width="0.5" stroke-linecap="round" stroke-linejoin="round"/>
<path d="M66.7036 194.072L69.9552 189.894" stroke="#2E2E2E" stroke-width="0.5" stroke-linecap="round" stroke-linejoin="round"/>
<path d="M65.8188 178.996L68.4724 181.565" stroke="#2E2E2E" stroke-width="0.5" stroke-linecap="round" stroke-linejoin="round"/>
<path d="M74.3899 172.911L77.3424 169.693" stroke="#2E2E2E" stroke-width="0.5" stroke-linecap="round" stroke-linejoin="round"/>
<path d="M76.1592 159.444L78.2272 161.04" stroke="#2E2E2E" stroke-width="0.5" stroke-linecap="round" stroke-linejoin="round"/>
<path d="M85.0168 153.022L88.8664 149.817" stroke="#2E2E2E" stroke-width="0.5" stroke-linecap="round" stroke-linejoin="round"/>
<path d="M82.0642 142.124L85.0168 145.328" stroke="#2E2E2E" stroke-width="0.5" stroke-linecap="round" stroke-linejoin="round"/>
<path d="M73.2065 137.31L75.2746 139.555" stroke="#2E2E2E" stroke-width="0.5" stroke-linecap="round" stroke-linejoin="round"/>
<path d="M90.9343 140.204L93.2889 137.635" stroke="#2E2E2E" stroke-width="0.5" stroke-linecap="round" stroke-linejoin="round"/>
<path d="M101.86 132.186L104.227 134.741" stroke="#2E2E2E" stroke-width="0.5" stroke-linecap="round" stroke-linejoin="round"/>
<path d="M111.017 132.51L114.268 128.657" stroke="#2E2E2E" stroke-width="0.5" stroke-linecap="round" stroke-linejoin="round"/>
<path d="M109.248 121.923L111.615 125.128" stroke="#2E2E2E" stroke-width="0.5" stroke-linecap="round" stroke-linejoin="round"/>
<path d="M120.772 131.537L124.023 129.617" stroke="#2E2E2E" stroke-width="0.5" stroke-linecap="round" stroke-linejoin="round"/>
<path d="M119.588 123.519L121.357 126.088" stroke="#2E2E2E" stroke-width="0.5" stroke-linecap="round" stroke-linejoin="round"/>
<path d="M93.2891 158.795L96.2416 156.226" stroke="#2E2E2E" stroke-width="0.5" stroke-linecap="round" stroke-linejoin="round"/>
<path d="M95.9548 149.182L98.0229 151.102" stroke="#2E2E2E" stroke-width="0.5" stroke-linecap="round" stroke-linejoin="round"/>
<path d="M85.9014 169.382L87.6829 167.773" stroke="#2E2E2E" stroke-width="0.5" stroke-linecap="round" stroke-linejoin="round"/>
<path d="M80.5945 180.916L83.248 178.671" stroke="#2E2E2E" stroke-width="0.5" stroke-linecap="round" stroke-linejoin="round"/>
<path d="M97.1389 174.507L99.207 177.4" stroke="#2E2E2E" stroke-width="0.5" stroke-linecap="round" stroke-linejoin="round"/>
<path d="M90.0376 184.445L93.2892 182.849" stroke="#2E2E2E" stroke-width="0.5" stroke-linecap="round" stroke-linejoin="round"/>
<path d="M80.8809 190.218L84.1324 192.463" stroke="#2E2E2E" stroke-width="0.5" stroke-linecap="round" stroke-linejoin="round"/>
<path d="M87.085 202.09L90.0375 198.561" stroke="#2E2E2E" stroke-width="0.5" stroke-linecap="round" stroke-linejoin="round"/>
<path d="M77.0437 197.601L79.4107 199.845" stroke="#2E2E2E" stroke-width="0.5" stroke-linecap="round" stroke-linejoin="round"/>
<path d="M79.6973 205.294L82.0643 203.05" stroke="#2E2E2E" stroke-width="0.5" stroke-linecap="round" stroke-linejoin="round"/>
<path d="M94.7715 195.356L97.4251 193.112" stroke="#2E2E2E" stroke-width="0.5" stroke-linecap="round" stroke-linejoin="round"/>
<path d="M103.928 187.974L106.295 190.543" stroke="#2E2E2E" stroke-width="0.5" stroke-linecap="round" stroke-linejoin="round"/>
<path d="M108.949 183.16L111.615 181.24" stroke="#2E2E2E" stroke-width="0.5" stroke-linecap="round" stroke-linejoin="round"/>
<path d="M105.411 176.116L107.18 177.711" stroke="#2E2E2E" stroke-width="0.5" stroke-linecap="round" stroke-linejoin="round"/>
<path d="M100.976 199.845L103.629 197.912" stroke="#2E2E2E" stroke-width="0.5" stroke-linecap="round" stroke-linejoin="round"/>
<path d="M109.833 204.01L112.499 201.441" stroke="#2E2E2E" stroke-width="0.5" stroke-linecap="round" stroke-linejoin="round"/>
<path d="M117.221 193.112L119.588 190.867" stroke="#2E2E2E" stroke-width="0.5" stroke-linecap="round" stroke-linejoin="round"/>
<path d="M112.2 187.014L114.268 188.934" stroke="#2E2E2E" stroke-width="0.5" stroke-linecap="round" stroke-linejoin="round"/>
<path d="M121.656 182.849L124.908 179.645" stroke="#2E2E2E" stroke-width="0.5" stroke-linecap="round" stroke-linejoin="round"/>
<path d="M118.703 174.507L121.058 177.076" stroke="#2E2E2E" stroke-width="0.5" stroke-linecap="round" stroke-linejoin="round"/>
<path d="M124.608 171.302L126.676 169.058" stroke="#2E2E2E" stroke-width="0.5" stroke-linecap="round" stroke-linejoin="round"/>
<path d="M125.792 155.591L127.262 158.16" stroke="#2E2E2E" stroke-width="0.5" stroke-linecap="round" stroke-linejoin="round"/>
<path d="M124.309 147.573L126.676 145.004" stroke="#2E2E2E" stroke-width="0.5" stroke-linecap="round" stroke-linejoin="round"/>
<path d="M124.023 137L125.493 139.555" stroke="#2E2E2E" stroke-width="0.5" stroke-linecap="round" stroke-linejoin="round"/>
<path d="M116.922 135.715L117.819 137.31" stroke="#2E2E2E" stroke-width="0.5" stroke-linecap="round" stroke-linejoin="round"/>
<path d="M121.357 203.361L123.724 201.116" stroke="#2E2E2E" stroke-width="0.5" stroke-linecap="round" stroke-linejoin="round"/>
<path d="M122.84 194.383L124.609 196.316" stroke="#2E2E2E" stroke-width="0.5" stroke-linecap="round" stroke-linejoin="round"/>
<path d="M126.976 189.258L128.745 191.827" stroke="#2E2E2E" stroke-width="0.5" stroke-linecap="round" stroke-linejoin="round"/>
<path d="M95.656 208.174L99.2066 205.93" stroke="#2E2E2E" stroke-width="0.5" stroke-linecap="round" stroke-linejoin="round"/>
<path d="M94.4724 201.116L96.8394 202.401" stroke="#2E2E2E" stroke-width="0.5" stroke-linecap="round" stroke-linejoin="round"/>
<path d="M126.091 205.605L128.445 207.85" stroke="#2E2E2E" stroke-width="0.5" stroke-linecap="round" stroke-linejoin="round"/>
</svg>
